<svg width="108" height="108" viewBox="0 0 108 108" fill="none" xmlns="http://www.w3.org/2000/svg">
<path d="M54 107.5C39.7087 107.5 26.2751 101.936 16.1696 91.8304C6.06417 81.7249 0.5 68.2913 0.5 54C0.5 39.7087 6.06437 26.2753 16.1697 16.1696C26.2749 6.06396 39.7087 0.5 54 0.5C68.2913 0.5 81.7249 6.06417 91.8304 16.1696C101.936 26.2751 107.5 39.7087 107.5 54C107.5 68.2913 101.936 81.7247 91.8303 91.8304C81.7251 101.936 68.2913 107.5 54 107.5ZM54 6.25C27.6701 6.25 6.25 27.6701 6.25 54C6.25 80.3299 27.6701 101.75 54 101.75C80.3299 101.75 101.75 80.3299 101.75 54C101.75 27.6701 80.3299 6.25 54 6.25Z" fill="white" stroke="white"/>
<path d="M54 50.625C49.3476 50.625 45.5625 46.8399 45.5625 42.1875C45.5625 37.5351 49.3476 33.75 54 33.75C58.6524 33.75 62.4375 37.5351 62.4375 42.1875C62.4375 44.0513 63.9484 45.5625 65.8125 45.5625C67.6766 45.5625 69.1875 44.0513 69.1875 42.1875C69.1875 34.9732 64.1296 28.9221 57.375 27.3826V23.625C57.375 21.7612 55.8641 20.25 54 20.25C52.1359 20.25 50.625 21.7612 50.625 23.625V27.3826C43.8704 28.9221 38.8125 34.9732 38.8125 42.1875C38.8125 50.5619 45.6256 57.375 54 57.375C58.6524 57.375 62.4375 61.1601 62.4375 65.8125C62.4375 70.4649 58.6524 74.25 54 74.25C49.3476 74.25 45.5625 70.4649 45.5625 65.8125C45.5625 63.9487 44.0516 62.4375 42.1875 62.4375C40.3234 62.4375 38.8125 63.9487 38.8125 65.8125C38.8125 73.0268 43.8704 79.0779 50.625 80.6174V84.375C50.625 86.2388 52.1359 87.75 54 87.75C55.8641 87.75 57.375 86.2388 57.375 84.375V80.6174C64.1296 79.0779 69.1875 73.0268 69.1875 65.8125C69.1875 57.4381 62.3744 50.625 54 50.625Z" fill="white"/>
</svg>
