<svg width="22" height="31" viewBox="0 0 22 31" fill="none" xmlns="http://www.w3.org/2000/svg">
<path d="M19.9392 19.715C20.8964 18.1029 21.5314 16.0638 21.6546 14.0463C21.7328 12.7513 21.4461 11.392 20.8253 10.1137C19.8515 8.10568 18.1787 6.97765 16.5627 5.88778C15.3567 5.07456 14.217 4.30664 13.4113 3.20962L13.2668 3.01407C12.7906 2.37016 12.2527 1.64041 12.1674 1.0275C12.0821 0.407449 11.5229 -0.0337442 10.9116 0.0020282C10.2908 0.0449551 9.8098 0.562463 9.8098 1.18967V22.4385C8.817 21.8328 7.59437 21.4607 6.25563 21.4607C2.99054 21.4607 0.332031 23.5999 0.332031 26.2304C0.332031 28.8608 2.99054 31 6.25563 31C9.52072 31 12.1792 28.8608 12.1792 26.2304V12.3316C13.9587 13.016 16.8707 14.7593 17.6716 18.8302C17.5223 19.052 17.3802 19.2905 17.2143 19.4813C16.7807 19.975 16.8281 20.7286 17.3209 21.1626C17.809 21.6014 18.5578 21.549 18.9914 21.0553C19.3089 20.6928 19.5909 20.2683 19.861 19.8247C19.8894 19.7913 19.9155 19.7556 19.9392 19.715Z" fill="url(#paint0_linear_214_2)"/>
<defs>
<linearGradient id="paint0_linear_214_2" x1="0.332031" y1="15.5" x2="21.6672" y2="15.5" gradientUnits="userSpaceOnUse">
<stop stop-color="#CD2288"/>
<stop offset="1" stop-color="#8700FF"/>
</linearGradient>
</defs>
</svg>
