<svg width="55" height="55" viewBox="0 0 55 55" fill="none" xmlns="http://www.w3.org/2000/svg">
<g clip-path="url(#clip0_44_1379)">
<path d="M25.3516 24.707C22.6269 24.707 20.4102 26.9238 20.4102 29.6484C20.4102 32.3731 22.6269 34.5898 25.3516 34.5898C28.0762 34.5898 30.293 32.3731 30.293 29.6484C30.293 26.9238 28.0762 24.707 25.3516 24.707ZM25.3516 32.4414C23.8116 32.4414 22.5586 31.1885 22.5586 29.6484C22.5586 28.1083 23.8116 26.8555 25.3516 26.8555C26.8916 26.8555 28.1445 28.1083 28.1445 29.6484C28.1445 31.1885 26.8916 32.4414 25.3516 32.4414Z" fill="url(#paint0_linear_44_1379)"/>
<path d="M7.58984 30.7213C8.18313 30.7213 8.66406 30.2403 8.66406 29.6471C8.66406 20.4463 16.1494 12.9609 25.3502 12.9609C25.9435 12.9609 26.4244 12.4799 26.4244 11.8867C26.4244 11.2935 25.9435 10.8125 25.3502 10.8125C14.9648 10.8125 6.51562 19.2617 6.51562 29.6471C6.51573 30.2404 6.99666 30.7213 7.58984 30.7213Z" fill="url(#paint1_linear_44_1379)"/>
<path d="M44.1862 29.6484C44.1862 29.0553 43.7051 28.5742 43.1119 28.5742C42.5187 28.5742 42.0377 29.0553 42.0377 29.6484C42.0377 38.8492 34.5524 46.3346 25.3516 46.3346C24.7583 46.3346 24.2773 46.8155 24.2773 47.4088C24.2773 48.002 24.7583 48.483 25.3516 48.483C35.737 48.483 44.1862 40.0339 44.1862 29.6484Z" fill="url(#paint2_linear_44_1379)"/>
<path d="M55 1.07424C55 0.735114 54.8398 0.415856 54.5679 0.213044C54.2961 0.0103385 53.9445 -0.0520736 53.6193 0.0446061L41.0867 3.7744C40.6313 3.91007 40.319 4.3288 40.319 4.80404V9.1817C36.0021 6.0106 30.8088 4.2969 25.3516 4.2969C20.3383 4.2969 15.4908 5.75805 11.3329 8.52245C10.8389 8.85094 10.7046 9.51771 11.0331 10.0116C11.3616 10.5059 12.0283 10.6399 12.5224 10.3115C16.3266 7.7822 20.7629 6.44534 25.3516 6.44534C31.0507 6.44534 36.2756 8.51203 40.319 11.9336V16.2894C39.5948 15.8247 38.7349 15.5539 37.8125 15.5539C35.2458 15.5539 33.1576 17.642 33.1576 20.2088C33.1576 20.2126 33.1579 20.2164 33.1579 20.2202C31.0371 18.4612 28.3158 17.4024 25.3516 17.4024C18.599 17.4024 13.1055 22.896 13.1055 29.6485C13.1055 36.4009 18.599 41.8946 25.3516 41.8946C32.104 41.8946 37.5977 36.4009 37.5977 29.6485C37.5977 27.8834 37.2217 26.2046 36.5465 24.6873C36.9494 24.8014 37.3737 24.8637 37.8125 24.8637C40.3792 24.8637 42.4674 22.7755 42.4674 20.2088V13.9991C46.246 18.1282 48.5547 23.6236 48.5547 29.6485C48.5547 42.4427 38.1458 52.8516 25.3516 52.8516C12.5573 52.8516 2.14844 42.4427 2.14844 29.6485C2.14844 25.0585 3.48605 20.6214 6.01648 16.8164C6.34509 16.3222 6.21092 15.6555 5.71689 15.327C5.22296 14.9986 4.55608 15.1327 4.22759 15.6266C1.4619 19.7853 0 24.6339 0 29.6485C0 36.4201 2.63699 42.7865 7.42532 47.5747C12.2135 52.363 18.5799 55 25.3516 55C32.1232 55 38.4896 52.363 43.2778 47.5747C48.0661 42.7865 50.7031 36.4201 50.7031 29.6485C50.7031 26.6483 50.1845 23.7281 49.1915 20.9891C49.5605 21.0835 49.947 21.134 50.3451 21.134C52.9117 21.134 55 19.0458 55 16.4791V6.30236C55 6.29903 55 1.07424 55 1.07424ZM52.8516 2.51466V5.48391L42.4674 8.57433V5.60508L52.8516 2.51466ZM25.3516 39.7461C19.7837 39.7461 15.2539 35.2164 15.2539 29.6485C15.2539 24.0806 19.7837 19.5508 25.3516 19.5508C30.9195 19.5508 35.4492 24.0806 35.4492 29.6485C35.4492 35.2164 30.9195 39.7461 25.3516 39.7461ZM37.8125 22.7152C36.4304 22.7152 35.306 21.5909 35.306 20.2088C35.306 18.8267 36.4304 17.7023 37.8125 17.7023C39.1946 17.7023 40.319 18.8267 40.319 20.2088C40.319 21.5909 39.1946 22.7152 37.8125 22.7152ZM43.2778 11.7222C43.0127 11.4571 42.742 11.1997 42.4674 10.9479V10.8159L52.8516 7.72559V12.5597C52.1274 12.095 51.2675 11.8242 50.3451 11.8242C48.3361 11.8242 46.6206 13.1035 45.9696 14.8901C45.1669 13.7737 44.2693 12.7137 43.2778 11.7222ZM50.3451 18.9854C48.963 18.9854 47.8385 17.8611 47.8385 16.479C47.8385 15.0969 48.963 13.9725 50.3451 13.9725C51.7272 13.9725 52.8516 15.0969 52.8516 16.479C52.8516 17.8612 51.7272 18.9854 50.3451 18.9854Z" fill="url(#paint3_linear_44_1379)"/>
<path d="M8.18555 13.5558C8.46807 13.5558 8.74521 13.4408 8.94502 13.2399C9.1459 13.0401 9.25977 12.7641 9.25977 12.4805C9.25977 12.1979 9.1459 11.9208 8.94502 11.7211C8.74521 11.5213 8.46914 11.4062 8.18555 11.4062C7.90303 11.4062 7.62588 11.5212 7.42607 11.7211C7.22627 11.9208 7.11133 12.1979 7.11133 12.4805C7.11133 12.7642 7.22627 13.0401 7.42607 13.2399C7.62695 13.4408 7.90303 13.5558 8.18555 13.5558Z" fill="url(#paint4_linear_44_1379)"/>
</g>
<defs>
<linearGradient id="paint0_linear_44_1379" x1="20.4102" y1="29.6484" x2="30.293" y2="29.6484" gradientUnits="userSpaceOnUse">
<stop stop-color="#CD2288"/>
<stop offset="1" stop-color="#8700FF"/>
</linearGradient>
<linearGradient id="paint1_linear_44_1379" x1="6.51563" y1="20.7669" x2="26.4244" y2="20.7669" gradientUnits="userSpaceOnUse">
<stop stop-color="#CD2288"/>
<stop offset="1" stop-color="#8700FF"/>
</linearGradient>
<linearGradient id="paint2_linear_44_1379" x1="24.2773" y1="38.5286" x2="44.1862" y2="38.5286" gradientUnits="userSpaceOnUse">
<stop stop-color="#CD2288"/>
<stop offset="1" stop-color="#8700FF"/>
</linearGradient>
<linearGradient id="paint3_linear_44_1379" x1="7.97034e-10" y1="27.5" x2="55" y2="27.5" gradientUnits="userSpaceOnUse">
<stop stop-color="#CD2288"/>
<stop offset="1" stop-color="#8700FF"/>
</linearGradient>
<linearGradient id="paint4_linear_44_1379" x1="7.11133" y1="12.481" x2="9.25977" y2="12.481" gradientUnits="userSpaceOnUse">
<stop stop-color="#CD2288"/>
<stop offset="1" stop-color="#8700FF"/>
</linearGradient>
<clipPath id="clip0_44_1379">
<rect width="55" height="55" fill="white"/>
</clipPath>
</defs>
</svg>
