<svg width="55" height="55" viewBox="0 0 55 55" fill="none" xmlns="http://www.w3.org/2000/svg">
<path d="M54.4217 0.374837C54.0553 0.0686848 53.5721 -0.0592547 53.1021 0.025716L17.438 6.47103C16.6711 6.60971 16.1133 7.27734 16.1133 8.05668V38.1327C14.4015 36.5987 12.142 35.6641 9.66797 35.6641C4.33705 35.6641 0 40.0012 0 45.3321C0 50.663 4.33705 55 9.66797 55C14.9989 55 19.3359 50.663 19.3359 45.3321V21.2193L51.7773 15.3564V33.2988C50.0656 31.7647 47.8061 30.8301 45.332 30.8301C40.0011 30.8301 35.6641 35.1672 35.6641 40.4981C35.6641 45.829 40.0011 50.1661 45.332 50.1661C50.6629 50.1661 55 45.829 55 40.4981V1.61137C55 1.13388 54.7883 0.680989 54.4217 0.374837ZM9.66797 51.7774C6.11402 51.7774 3.22266 48.886 3.22266 45.3321C3.22266 41.7781 6.11402 38.8868 9.66797 38.8868C13.2219 38.8868 16.1133 41.7781 16.1133 45.3321C16.1133 48.886 13.2219 51.7774 9.66797 51.7774ZM19.3359 17.9445V9.403L51.7773 3.54002V12.0816L19.3359 17.9445ZM45.332 46.9434C41.7781 46.9434 38.8867 44.052 38.8867 40.4981C38.8867 36.9441 41.7781 34.0528 45.332 34.0528C48.886 34.0528 51.7773 36.9441 51.7773 40.4981C51.7773 44.052 48.886 46.9434 45.332 46.9434Z" fill="url(#paint0_linear_214_6)"/>
<defs>
<linearGradient id="paint0_linear_214_6" x1="8.0016e-10" y1="27.5" x2="55" y2="27.5" gradientUnits="userSpaceOnUse">
<stop stop-color="#CD2288"/>
<stop offset="1" stop-color="#8700FF"/>
</linearGradient>
</defs>
</svg>
