<svg width="108" height="108" viewBox="0 0 108 108" fill="none" xmlns="http://www.w3.org/2000/svg">
<path d="M54 0.5C68.2913 0.5 81.7249 6.06417 91.8304 16.1696C101.936 26.2749 107.5 39.7085 107.5 54C107.5 68.2913 101.936 81.7249 91.8304 91.8303C81.7247 101.936 68.2913 107.5 54 107.5C39.7087 107.5 26.2753 101.936 16.1697 91.8304C6.06438 81.7249 0.5 68.2913 0.5 54C0.5 39.7085 6.06438 26.2749 16.1696 16.1696C26.2751 6.06417 39.7087 0.5 54 0.5ZM5.82812 54C5.82812 80.5625 27.4375 102.172 54 102.172C80.5625 102.172 102.172 80.5625 102.172 54C102.172 27.4375 80.5625 5.82812 54 5.82812C27.4375 5.82812 5.82812 27.4375 5.82812 54Z" fill="white" stroke="white"/>
<path d="M93.0987 55.8477C84.5821 43.6844 71.8385 35.5659 57.2155 32.9874C42.5935 30.4093 27.8408 33.6792 15.6777 42.1961C14.2463 43.1982 13.8982 45.1711 14.9006 46.6028C15.903 48.0346 17.8763 48.382 19.3073 47.3798C30.0858 39.8327 43.158 36.9344 56.1167 39.2195C69.0753 41.5044 80.368 48.6988 87.9151 59.4775C88.5307 60.3567 89.5122 60.8271 90.5097 60.8271C91.1366 60.8271 91.7696 60.6413 92.3218 60.2546C93.7533 59.252 94.1011 57.2791 93.0987 55.8477Z" fill="white"/>
<path d="M23.1953 52.9316C21.7639 53.934 21.4158 55.9069 22.4182 57.3383C23.4206 58.77 25.3939 59.1178 26.8249 58.1154C43.1557 46.6809 65.7443 50.664 77.1795 66.9944C77.795 67.8736 78.7765 68.344 79.774 68.344C80.4009 68.344 81.0339 68.1581 81.5862 67.7715C83.0176 66.7693 83.3656 64.7962 82.3633 63.3648C68.9267 44.176 42.3845 39.496 23.1953 52.9316Z" fill="white"/>
<path d="M52.6642 58.802C44.9371 57.4397 37.1407 59.1677 30.7128 63.6687C29.2813 64.6709 28.9335 66.644 29.9357 68.0756C30.938 69.5071 32.9114 69.8547 34.3424 68.8525C39.3857 65.321 45.5029 63.9649 51.565 65.0341C57.628 66.1032 62.9117 69.4693 66.4428 74.5126C67.0583 75.3918 68.0398 75.8622 69.0374 75.8622C69.6641 75.8622 70.2973 75.6764 70.8495 75.2897C72.2809 74.2875 72.629 72.3146 71.6266 70.883C67.1261 64.4551 60.3919 60.1646 52.6642 58.802Z" fill="white"/>
</svg>
