<svg width="108" height="108" viewBox="0 0 108 108" fill="none" xmlns="http://www.w3.org/2000/svg">
<path d="M54 107.5C39.7087 107.5 26.2751 101.936 16.1696 91.8304C6.06417 81.7249 0.5 68.2913 0.5 54C0.5 39.7087 6.06437 26.2753 16.1697 16.1696C26.2749 6.06396 39.7087 0.5 54 0.5C68.2913 0.5 81.7249 6.06417 91.8304 16.1696C101.936 26.2751 107.5 39.7087 107.5 54C107.5 68.2913 101.936 81.7247 91.8303 91.8304C81.7251 101.936 68.2913 107.5 54 107.5ZM54 6.25C27.6701 6.25 6.25 27.6701 6.25 54C6.25 80.3299 27.6701 101.75 54 101.75C80.3299 101.75 101.75 80.3299 101.75 54C101.75 27.6701 80.3299 6.25 54 6.25Z" fill="white" stroke="white"/>
<path d="M37.7158 68.496H39.8471H76.1858C77.0639 68.496 77.8375 67.9192 78.0882 67.0776L85.9174 40.7895C86.0963 40.1888 85.9809 39.539 85.6064 39.0365C85.2317 38.534 84.6418 38.238 84.0151 38.238H33.4978L30.8267 29.2688C30.5761 28.4274 29.8023 27.8506 28.9243 27.8506H20.985C19.8888 27.8505 19 28.7391 19 29.8355C19 30.9317 19.8888 31.8205 20.985 31.8205H27.4444L30.1028 40.7465C30.1109 40.776 30.1194 40.8052 30.1288 40.834L37.1908 64.546C33.1598 64.8171 29.9625 68.181 29.9625 72.2795C29.9625 76.5547 33.4406 80.0328 37.7157 80.0328H39.6863C40.5475 82.9854 43.2767 85.1497 46.5037 85.1497C49.7306 85.1497 52.4599 82.9856 53.3211 80.0328H63.8529C64.7141 82.9854 67.4433 85.1497 70.6703 85.1497C73.8972 85.1497 76.6265 82.9856 77.4877 80.0328H80.0451C81.1413 80.0328 82.0301 79.144 82.0301 78.0478C82.0301 76.9516 81.1413 76.0628 80.0451 76.0628H77.4877C76.6265 73.1101 73.8973 70.9459 70.6703 70.9459C67.4433 70.9459 64.714 73.1101 63.8529 76.0628H53.3211C52.4599 73.1101 49.7307 70.9459 46.5037 70.9459C43.2767 70.9459 40.5473 73.1101 39.6863 76.0628H37.7157C35.6295 76.0628 33.9324 74.3656 33.9324 72.2794C33.9324 70.1932 35.6296 68.496 37.7158 68.496ZM66.8352 42.2077H81.3529L78.6206 51.3819H66.8352V42.2077ZM66.8351 55.3519H77.4381L74.7059 64.5261H66.8351V55.3519ZM52.1473 42.2077H62.8653V51.3819H52.1473V42.2077ZM52.1471 55.3519H62.8652V64.5261H52.1471V55.3519ZM48.1775 64.5261H41.3271L38.5949 55.3519H48.1775V64.5261ZM34.6804 42.2077H48.1774V51.3819H37.4126L34.6804 42.2077ZM70.6704 74.9158C72.3974 74.9158 73.8023 76.3207 73.8023 78.0477C73.8023 79.7747 72.3974 81.1796 70.6704 81.1796C68.9435 81.1796 67.5386 79.7747 67.5386 78.0477C67.5386 76.3207 68.9435 74.9158 70.6704 74.9158ZM46.5038 74.9158C48.2308 74.9158 49.6357 76.3207 49.6357 78.0477C49.6357 79.7747 48.2308 81.1796 46.5038 81.1796C44.7769 81.1796 43.372 79.7747 43.372 78.0477C43.372 76.3207 44.7769 74.9158 46.5038 74.9158Z" fill="white"/>
</svg>
