<svg width="38" height="38" viewBox="0 0 38 38" fill="none" xmlns="http://www.w3.org/2000/svg">
<path d="M19 0C8.50572 0 0 8.50655 0 19C0 29.4935 8.50572 38 19 38C29.4943 38 38 29.4926 38 19C38 8.50738 29.4935 0 19 0ZM20.1501 27.4636V29.663C20.1501 30.0061 19.8831 30.2558 19.5391 30.2558H18.0731C17.7291 30.2558 17.4522 30.0061 17.4522 29.663V27.657C16.1027 27.5958 14.7418 27.3081 13.7115 26.9162C13.1534 26.7045 12.8425 26.1067 12.9905 25.5279L13.2295 24.5969C13.313 24.2703 13.5313 23.9974 13.8298 23.8445C14.1282 23.689 14.4788 23.6733 14.7922 23.7932C15.7737 24.1727 16.9329 24.4489 18.1707 24.4489C19.7466 24.4489 20.8257 23.8403 20.8257 22.734C20.8257 21.6831 19.9409 21.0191 17.8937 20.3271C14.9344 19.3316 12.9078 17.9491 12.9078 15.266C12.9078 12.8326 14.6301 10.9242 17.5745 10.343V8.33705C17.5745 7.99391 17.8681 7.68632 18.212 7.68632H19.678C20.022 7.68632 20.2742 7.99391 20.2742 8.33705V10.1487C21.5616 10.2041 22.4909 10.3951 23.2682 10.6481C23.856 10.8399 24.2033 11.4559 24.0487 12.0562L23.8387 12.8896C23.7568 13.2071 23.5468 13.4767 23.2591 13.6321C22.9713 13.7876 22.6315 13.8157 22.3206 13.709C21.6145 13.4668 20.6934 13.2468 19.5259 13.2468C17.7283 13.2468 17.147 14.0216 17.147 14.7963C17.147 15.7092 18.1153 16.2896 20.466 17.1752C23.7568 18.3369 25.0789 19.8583 25.0789 22.3462C25.0781 24.8077 23.3393 26.9112 20.1501 27.4636Z" fill="white"/>
</svg>
