<svg width="19" height="14" viewBox="0 0 19 14" fill="none" xmlns="http://www.w3.org/2000/svg">
<path fill-rule="evenodd" clip-rule="evenodd" d="M15.3116 0.561479C15.609 0.266682 16.0105 0.100771 16.4293 0.0996154C16.848 0.0984601 17.2504 0.262153 17.5494 0.555305C17.8484 0.848457 18.02 1.24751 18.0272 1.6662C18.0343 2.08488 17.8764 2.48956 17.5875 2.79273L9.10452 13.3965C8.95873 13.5535 8.78276 13.6795 8.58715 13.767C8.39154 13.8545 8.1803 13.9016 7.96606 13.9056C7.75181 13.9095 7.53897 13.8703 7.34025 13.7901C7.14154 13.7099 6.96103 13.5905 6.80952 13.439L1.1889 7.81623C1.03231 7.67032 0.906719 7.49437 0.819612 7.29887C0.732504 7.10337 0.685664 6.89233 0.681889 6.67834C0.678113 6.46435 0.717478 6.25178 0.797636 6.05333C0.877793 5.85488 0.9971 5.67461 1.14844 5.52327C1.29978 5.37193 1.48005 5.25263 1.6785 5.17247C1.87695 5.09231 2.08951 5.05295 2.30351 5.05672C2.5175 5.0605 2.72854 5.10734 2.92404 5.19444C3.11954 5.28155 3.29549 5.40715 3.4414 5.56373L7.89115 10.0114L15.2713 0.60823C15.2844 0.591769 15.2986 0.576154 15.3138 0.561479H15.3116Z" fill="#CD2288"/>
</svg>
