<svg width="26" height="24" viewBox="0 0 26 24" fill="none" xmlns="http://www.w3.org/2000/svg">
<path d="M7.6636 6.29583L7.66361 6.29578C7.48278 6.27735 7.30109 6.26783 7.11929 6.26735C4.2866 6.26752 2.0041 8.47205 2.0041 11.1749C2.0041 13.8778 4.28678 16.0824 7.11963 16.0824H10.8041C11.1328 16.0824 11.413 16.3404 11.413 16.6753C11.413 17.0101 11.1328 17.2681 10.8041 17.2681H7.11963C3.62945 17.2681 0.786328 14.5475 0.786328 11.1749C0.786328 7.80219 3.62945 5.08158 7.11963 5.08158C7.17229 5.08158 7.22516 5.08234 7.27857 5.08379C8.49119 1.53699 12.4324 -0.434153 16.1527 0.654939C19.1631 1.53617 21.2264 4.21 21.2218 7.246C21.2218 7.24611 21.2218 7.24621 21.2218 7.24632L21.0218 7.246C21.0218 7.38587 21.0173 7.52102 21.0091 7.65421L7.6636 6.29583ZM7.6636 6.29583L7.66785 6.29617C7.95877 6.31957 8.23429 6.1399 8.31397 5.85576L8.314 5.85576L8.31492 5.85223C8.97563 3.31903 11.3511 1.53594 14.0824 1.54113C17.3669 1.54732 20.0104 4.10875 20.004 7.24559L20.004 7.24688C20.005 7.48218 19.9891 7.71728 19.9565 7.95053M7.6636 6.29583L21.2179 7.47334C23.9247 7.78208 25.9268 10.0995 25.7038 12.75C25.4886 15.3091 23.2671 17.2686 20.6129 17.2681C20.6129 17.2681 20.6129 17.2681 20.6128 17.2681H15.7336C15.405 17.2681 15.1248 17.0101 15.1248 16.6753C15.1248 16.3404 15.405 16.0824 15.7336 16.0824H20.6129C22.7683 16.0824 24.5017 14.4055 24.5017 12.3535C24.5017 10.3016 22.7683 8.62466 20.6129 8.62466H20.5597C20.2311 8.62466 19.9509 8.36673 19.9508 8.03187V8.03182C19.9508 8.00489 19.9527 7.97768 19.9565 7.95053M19.9565 7.95053L20.1545 7.97874L19.9565 7.95101C19.9565 7.95085 19.9565 7.95069 19.9565 7.95053Z" fill="url(#paint0_linear_61_3230)" stroke="white" stroke-width="0.4"/>
<path d="M18.1683 12.5916L13.2531 7.86914L8.33789 12.5916L8.91646 13.1476L12.8442 9.37311V24.1401H13.662V9.37311L17.5898 13.1476L18.1683 12.5916Z" fill="url(#paint1_linear_61_3230)"/>
<defs>
<linearGradient id="paint0_linear_61_3230" x1="0.986328" y1="8.81166" x2="25.5207" y2="8.81166" gradientUnits="userSpaceOnUse">
<stop stop-color="white"/>
<stop offset="1" stop-color="white"/>
</linearGradient>
<linearGradient id="paint1_linear_61_3230" x1="8.33789" y1="16.0046" x2="18.1683" y2="16.0046" gradientUnits="userSpaceOnUse">
<stop stop-color="white"/>
<stop offset="1" stop-color="white"/>
</linearGradient>
</defs>
</svg>
