<svg width="88" height="103" viewBox="0 0 88 103" fill="none" xmlns="http://www.w3.org/2000/svg">
<g clip-path="url(#clip0_44_984)">
<path d="M84 58.0174C83.9981 56.6475 83.6409 55.2583 82.8511 54.1132L76.5124 44.9656C75.4506 43.4451 73.8352 42.671 72.2208 42.668C71.26 42.668 70.2817 42.9457 69.4173 43.5537L63.2367 47.8906C62.5867 48.3582 61.4723 48.6791 60.3959 48.6708C59.5597 48.6748 58.7516 48.4861 58.218 48.1888L52.1655 44.8823C51.1892 44.3522 50.1009 44.1349 49.0066 44.1328C47.4348 44.1411 45.8431 44.5767 44.5641 45.5764L43.8578 46.1352C43.2933 45.8175 42.4306 45.3334 41.4534 44.785C40.2816 44.137 38.9036 43.8757 37.5117 43.8705C36.2544 43.8746 34.9973 44.0931 33.8936 44.619L29.7711 46.6029C29.1002 46.9311 28.033 47.1454 26.973 47.1401C25.913 47.1452 24.8477 46.9309 24.1767 46.6029L20.0505 44.6179C19.2978 44.256 18.4933 44.1012 17.6959 44.1002C16.7778 44.1012 15.8652 44.3053 15.0169 44.6928C14.1697 45.0825 13.3833 45.6577 12.757 46.447L5.24454 55.9361C4.41188 56.9848 3.99829 58.3055 4.00001 59.6055C3.99829 61.1558 4.58641 62.711 5.72079 63.801L12.7286 70.5441L9.40422 74.4555C8.48782 75.5342 8.03157 76.9327 8.03157 78.3156C8.02985 79.7869 8.54797 81.2725 9.57422 82.3663L10.2486 83.089C10.8841 83.7689 11.6477 84.2014 12.4467 84.4321C12.0459 85.2635 11.8269 86.1751 11.8286 87.0885C11.8269 88.5609 12.345 90.0454 13.3694 91.1405L13.3677 91.1394L14.0441 91.8653C15.0069 92.8947 16.255 93.4073 17.4847 93.4064C18.1456 93.4075 18.8073 93.2577 19.4292 92.9644C19.6475 93.9631 20.0983 94.9125 20.8073 95.6711L21.4838 96.397C22.4466 97.4263 23.6927 97.939 24.9244 97.9381C25.8872 97.9392 26.8544 97.6191 27.687 96.9979C27.9306 97.8817 28.348 98.7193 28.9833 99.4001L29.6597 100.126C30.6205 101.155 31.8686 101.668 33.0986 101.667C34.4084 101.668 35.7313 101.088 36.7083 99.9374L39.6464 96.477L43.6381 100.644C44.5936 101.643 45.82 102.141 47.0306 102.138C48.3606 102.141 49.7023 101.54 50.6814 100.358L51.3186 99.5878C51.8686 98.9215 52.2277 98.1328 52.4359 97.3097L53.9822 98.9193C54.9394 99.9148 56.1641 100.41 57.373 100.409C58.7047 100.41 60.0502 99.8091 61.0302 98.6261L61.6638 97.857C62.3955 96.9754 62.8074 95.8833 62.9345 94.768C63.3427 94.8859 63.7563 94.9659 64.1734 94.9659C65.5052 94.9659 66.8469 94.366 67.8278 93.184L68.4633 92.415C69.3514 91.3414 69.7933 89.9645 69.7914 88.6071C69.7914 88.1857 69.7378 87.7664 69.655 87.3521C70.7595 87.187 71.8305 86.6314 72.6449 85.645L73.282 84.8751C74.1702 83.8015 74.6102 82.4247 74.6102 81.0661C74.6119 79.5714 74.0775 78.063 73.023 76.9641L71.8313 75.7226L82.5872 62.3099C83.5528 61.1024 83.9983 59.5481 84 58.0174ZM13.6897 81.5781C13.1198 81.5761 12.5625 81.3463 12.127 80.8809L11.4516 80.1582C10.9842 79.6598 10.7534 78.9967 10.7516 78.3157C10.7534 77.6771 10.9561 77.0536 11.3734 76.5625L18.1822 68.5489C18.6258 68.0269 19.2177 67.7655 19.8248 67.7647C20.393 67.7657 20.9484 67.9964 21.3875 68.4629L22.0602 69.1866C22.0602 69.1866 22.7566 70.3482 22.7583 71.03C22.7566 71.5405 22.6202 72.0378 22.3556 72.4685C22.333 72.4941 15.0069 81.1054 15.0069 81.1054C14.6178 81.4159 14.1578 81.5758 13.6897 81.5781ZM19.1275 89.5712C18.6848 90.0911 18.0939 90.3513 17.4867 90.3535C16.9169 90.3524 16.3613 90.1217 15.9241 89.6563L15.2477 88.9313L15.2459 88.9303C14.7823 88.434 14.5495 87.7687 14.5495 87.0878C14.5495 86.4492 14.7541 85.8257 15.1694 85.3345C15.1694 85.3345 24.2453 74.6789 24.3217 74.5762C24.7555 74.1057 25.3144 73.8627 25.8916 73.8616C26.4614 73.8627 27.017 74.0923 27.4542 74.5588L28.1306 75.2846C28.5959 75.7809 28.827 76.4453 28.8288 77.1271C28.8269 77.7657 28.6225 78.3901 28.2069 78.8812L19.1275 89.5712ZM26.5661 94.1016C26.1244 94.6227 25.5336 94.8834 24.9263 94.8853C24.3564 94.8843 23.8008 94.6536 23.3636 94.1871L22.6853 93.4621C22.22 92.9648 21.9872 92.3006 21.9872 91.6197C21.9872 91.0497 22.1591 90.4969 22.488 90.0366L28.8086 82.5961C29.235 82.1624 29.7694 81.9339 30.3231 81.9339C30.893 81.9349 31.4486 82.1645 31.8858 82.631L32.5641 83.3569C33.0277 83.8531 33.2605 84.5175 33.2622 85.1983C33.2603 85.8382 33.0541 86.4625 32.6403 86.9525L26.5661 94.1016ZM38.5758 93.3164L34.7405 97.831C34.2986 98.3517 33.7069 98.6124 33.0997 98.6143C32.5299 98.6132 31.9742 98.3825 31.537 97.9161L30.8606 97.1911C30.397 96.6948 30.1642 96.0296 30.1625 95.3486C30.1642 94.7087 30.3688 94.0844 30.7844 93.5953L34.618 89.0809C35.0616 88.5602 35.6534 88.2987 36.2606 88.2976C36.8288 88.2987 37.3861 88.5283 37.8233 88.9958L38.5016 89.7208C38.9652 90.2171 39.1961 90.8814 39.198 91.5622C39.1958 92.2019 38.9913 92.8263 38.5758 93.3164ZM71.8942 81.0702C71.8934 81.6972 71.6942 82.3113 71.2906 82.7993L70.6552 83.5684C70.2116 84.1036 69.6097 84.3742 68.9934 84.3753C68.4344 84.3742 67.887 84.1527 67.4527 83.6998L56.7441 72.5304L54.8923 74.7665L66.3545 86.7427C66.8319 87.2411 67.0717 87.9178 67.0753 88.6088C67.0717 89.2383 66.8744 89.8514 66.4717 90.3395L65.8381 91.1086C65.3945 91.6438 64.7927 91.9134 64.1764 91.9155C63.6173 91.9136 63.0683 91.691 62.6373 91.2409L51.9259 80.0717L50.0761 82.3078L59.582 92.2224C60.0402 92.7176 60.2748 93.3768 60.2748 94.0534C60.2748 94.6809 60.0775 95.2949 59.6749 95.782L59.0394 96.551C58.5975 97.0862 57.9939 97.3569 57.3759 97.3588C56.815 97.3569 56.2678 97.1343 55.8352 96.6842L46.3483 86.8057H46.3466L46.3448 86.8037L44.4986 89.0439L44.5005 89.0459L44.5359 89.0837L49.2875 94.0297C49.7084 94.5177 49.9266 95.1431 49.9283 95.7901C49.9266 96.4144 49.7309 97.0254 49.3283 97.5127L48.6928 98.2826C48.2492 98.8178 47.6492 99.0864 47.0347 99.0885C46.4756 99.0866 45.9283 98.8651 45.4956 98.413L41.3586 94.0925C41.7186 93.2959 41.9195 92.4315 41.9195 91.5641C41.9213 90.0928 41.4031 88.6093 40.3788 87.5134L39.7005 86.7875C38.7397 85.759 37.4933 85.2455 36.2634 85.2475C36.168 85.2475 36.0717 85.2721 35.9781 85.2783C35.9781 85.2527 35.9834 85.226 35.9834 85.2004C35.9852 83.7291 34.4427 81.1475 34.4427 81.1475L33.7663 80.4238C33.0472 79.6547 32.1698 79.175 31.2573 78.9822C31.4455 78.3815 31.5519 77.756 31.5519 77.1296C31.5519 75.6582 31.0355 74.1735 30.0111 73.0788L29.3347 72.3529C28.3719 71.3236 27.1258 70.8099 25.8958 70.8109C25.7522 70.8109 25.6105 70.8437 25.4677 70.8582C25.4286 69.4453 24.9241 68.0336 23.9423 66.9817V66.9806L23.2678 66.2579C22.305 65.2275 21.0589 64.7138 19.8289 64.7149C18.517 64.7138 17.1963 65.2941 16.2192 66.4445L14.612 68.3362L7.49235 61.4873C6.98063 60.9931 6.72516 60.3102 6.72329 59.609C6.72501 59.0215 6.90235 58.4463 7.28047 57.9687L14.7928 48.4798C15.0909 48.1025 15.5319 47.7611 16.0483 47.5241C16.5647 47.2872 17.1509 47.1572 17.6991 47.1581C18.1764 47.1581 18.6244 47.2555 18.9827 47.4298L23.107 49.4147C24.2697 49.9673 25.6195 50.1939 26.9761 50.1989C28.3342 50.1938 29.6824 49.9671 30.8452 49.4147L34.9677 47.4307C35.6031 47.1181 36.562 46.9242 37.5156 46.9283C38.5702 46.921 39.6264 47.1672 40.2391 47.5199C40.6281 47.7382 40.9972 47.9454 41.3399 48.1391L37.1355 51.4725C35.7845 52.5439 35.0564 54.2479 35.0583 55.9673C35.0566 57.1054 35.3764 58.2639 36.0274 59.2471L36.0256 59.245L36.5809 60.0866C37.6355 61.6677 39.2799 62.4807 40.9234 62.4847C41.8516 62.4847 42.797 62.2202 43.6397 61.6501L46.1541 59.947C46.6669 59.5934 47.4413 59.3699 48.242 59.374C49.183 59.3678 50.1311 59.6816 50.7011 60.1541L57.6572 65.7788C59.2053 67.0296 61.7269 69.3498 63.1242 70.8099L71.1756 79.2059C71.6524 79.7044 71.8923 80.3781 71.8942 81.0702ZM80.5684 60.2688L69.8425 73.6455L64.9727 68.5684C63.4473 66.9803 60.932 64.6643 59.2448 63.2975L52.2906 57.6728C51.1116 56.7307 49.668 56.3235 48.2408 56.3175C47.0263 56.3215 45.8027 56.6201 44.7464 57.3294L42.2339 59.0324C41.8484 59.2938 41.3941 59.4272 40.922 59.4282C40.0783 59.4314 39.2339 58.9873 38.7631 58.2644L38.2095 57.4238L38.2077 57.4217C37.9131 56.9737 37.7759 56.4713 37.7739 55.9627C37.7775 55.1937 38.092 54.4473 38.7013 53.9624L46.1355 48.0711C46.7783 47.5463 47.9219 47.1782 49.0081 47.1873C49.7627 47.1833 50.4834 47.3544 50.977 47.6293L57.0294 50.9358C58.0613 51.4947 59.2258 51.7232 60.3973 51.7264C61.9027 51.7181 63.4244 51.3491 64.6781 50.4806L70.8606 46.1428C71.2552 45.8651 71.7288 45.7215 72.2225 45.7215C73.057 45.7195 73.8933 46.146 74.3669 46.8421L80.7056 55.9897C81.0711 56.5136 81.2828 57.2527 81.2828 58.0188C81.2839 58.8754 81.0156 59.7183 80.5684 60.2688Z" fill="url(#paint0_linear_44_984)"/>
</g>
<g clip-path="url(#clip1_44_984)">
<path d="M50.6307 11.7689C51.0885 12.2852 51.0885 13.1221 50.6307 13.6381L42.7691 22.5052C42.3113 23.0212 41.5695 23.0212 41.1117 22.5052L37.3693 18.284C36.9115 17.768 36.9115 16.931 37.3693 16.415C37.8268 15.8987 38.5689 15.8987 39.0264 16.415L41.9403 19.7015L48.9734 11.7689C49.4311 11.2529 50.1732 11.2529 50.6307 11.7689ZM59 17.137C59 26.4884 52.2901 34.0549 44 34.0549C35.7088 34.0549 29 26.4871 29 17.137C29 7.78573 35.7099 0.219238 44 0.219238C52.2912 0.219238 59 7.78702 59 17.137ZM56.6562 17.137C56.6562 9.24684 50.9949 2.86265 44 2.86265C37.0042 2.86265 31.3438 9.24787 31.3438 17.137C31.3438 25.0273 37.0051 31.4114 44 31.4114C50.9958 31.4114 56.6562 25.0262 56.6562 17.137Z" fill="url(#paint1_linear_44_984)"/>
</g>
<defs>
<linearGradient id="paint0_linear_44_984" x1="4" y1="72.4028" x2="84" y2="72.4028" gradientUnits="userSpaceOnUse">
<stop stop-color="#CD2288"/>
<stop offset="1" stop-color="#55287D"/>
</linearGradient>
<linearGradient id="paint1_linear_44_984" x1="29" y1="17.137" x2="59" y2="17.137" gradientUnits="userSpaceOnUse">
<stop stop-color="#CD2288"/>
<stop offset="1" stop-color="#55287D"/>
</linearGradient>
<clipPath id="clip0_44_984">
<rect width="88" height="75.5662" fill="white" transform="translate(0 27.2876)"/>
</clipPath>
<clipPath id="clip1_44_984">
<rect width="30" height="33.8356" fill="white" transform="translate(29 0.219238)"/>
</clipPath>
</defs>
</svg>
