<svg width="90" height="102" viewBox="0 0 90 102" fill="none" xmlns="http://www.w3.org/2000/svg">
<g clip-path="url(#clip0_44_971)">
<path d="M52.4126 48.006L41.848 41.1635C40.9176 40.6321 39.8105 40.686 38.9236 41.3057C38.0367 41.9254 37.497 43.0223 37.498 44.2031V57.8031C37.498 59.6703 38.8266 61.1882 40.474 61.2031C41.629 61.2031 41.1656 61.2864 52.3406 54.0495C53.3455 53.4816 53.9865 52.3252 54.0017 51.0526C54.0169 49.78 53.4036 48.6044 52.4126 48.006ZM40.498 57.8031V44.2031L50.9246 51.0422L40.498 57.8031Z" fill="url(#paint0_linear_44_971)"/>
<path d="M82.5004 42.5022C78.9378 42.5073 75.8681 45.3473 75.1504 49.3022H64.4239C64.1108 44.6307 62.4883 40.1949 59.7934 36.6423L67.3819 28.0403C70.5947 30.4449 74.8923 29.7018 77.3262 26.3208C79.7602 22.9398 79.5398 18.0192 76.8164 14.9348C74.0929 11.8504 69.7511 11.6042 66.7696 14.3651C63.7881 17.126 63.1354 21.997 65.2594 25.6365L57.6709 34.2368C54.5363 31.1825 50.6224 29.3438 46.5004 28.9889V16.8322C50.2729 15.9595 52.8494 11.9911 52.4625 7.64958C52.0755 3.30808 48.8507 0.00390625 45.0004 0.00390625C41.1502 0.00390625 37.9254 3.30808 37.5384 7.64958C37.1514 11.9911 39.728 15.9595 43.5004 16.8322V28.9906C39.3785 29.3455 35.4645 31.1842 32.3299 34.2385L24.7414 25.6382C26.8654 21.9987 26.2128 17.1277 23.2313 14.3668C20.2497 11.6059 15.9079 11.8521 13.1845 14.9365C10.461 18.0209 10.2407 22.9415 12.6747 26.3225C15.1086 29.7035 19.4061 30.4466 22.6189 28.042L30.2074 36.644C27.5128 40.1961 25.8904 44.6312 25.5769 49.3022H14.8504C14.0804 45.0267 10.5789 42.1066 6.74814 42.5452C2.9174 42.9838 0.00195312 46.6386 0.00195312 51.0022C0.00195312 55.3658 2.9174 59.0206 6.74814 59.4591C10.5789 59.8977 14.0804 56.9776 14.8504 52.7022H25.5784C25.8916 57.3737 27.514 61.8095 30.2089 65.3621L22.6204 73.9624C19.4091 71.5552 15.1111 72.2949 12.6751 75.6739C10.239 79.053 10.4563 83.9737 13.1778 87.0603C15.8993 90.1468 20.241 90.3965 23.2242 87.6381C26.2075 84.8796 26.8631 80.0091 24.7414 76.3679L32.3299 67.7676C35.4645 70.8218 39.3785 72.6606 43.5004 73.0155V85.1722C39.728 86.0449 37.1514 90.0133 37.5384 94.3548C37.9254 98.6963 41.1502 102 45.0004 102C48.8507 102 52.0755 98.6963 52.4625 94.3548C52.8494 90.0133 50.2729 86.0449 46.5004 85.1722V73.0155C50.6224 72.6606 54.5363 70.8218 57.6709 67.7676L65.2594 76.3679C63.1354 80.0074 63.7881 84.8784 66.7696 87.6393C69.7511 90.4001 74.0929 90.1539 76.8164 87.0695C79.5398 83.9851 79.7602 79.0646 77.3262 75.6836C74.8923 72.3026 70.5947 71.5595 67.3819 73.9641L59.7934 65.3621C62.4883 61.8095 64.1108 57.3737 64.4239 52.7022H75.1504C75.9398 57.0847 79.5909 60.0241 83.5022 59.4258C87.4134 58.8275 90.2462 54.8961 89.9821 50.4333C89.7179 45.9704 86.4471 42.5031 82.5004 42.5022ZM68.3344 17.3422C70.0919 15.3507 72.941 15.3509 74.6982 17.3426C76.4555 19.3342 76.4555 22.5632 74.6982 24.5549C72.941 26.5465 70.0919 26.5467 68.3344 24.5553C67.4903 23.5988 67.0161 22.3015 67.0161 20.9487C67.0161 19.596 67.4903 18.2986 68.3344 17.3422ZM40.5004 8.50217C40.5004 5.68552 42.5151 3.40217 45.0004 3.40217C47.4857 3.40217 49.5004 5.68552 49.5004 8.50217C49.5004 11.3188 47.4857 13.6022 45.0004 13.6022C42.5151 13.6022 40.5004 11.3188 40.5004 8.50217ZM15.3004 24.557C13.5433 22.5652 13.5434 19.3362 15.3008 17.3447C17.0581 15.3532 19.9072 15.3532 21.6646 17.3447C23.4219 19.3362 23.4221 22.5652 21.6649 24.557C20.821 25.5136 19.6763 26.051 18.4827 26.051C17.2891 26.051 16.1444 25.5136 15.3004 24.557ZM7.50042 56.1022C5.01514 56.1022 3.00042 53.8188 3.00042 51.0022C3.00042 48.1855 5.01514 45.9022 7.50042 45.9022C9.98571 45.9022 12.0004 48.1855 12.0004 51.0022C12.0004 53.8188 9.98571 56.1022 7.50042 56.1022ZM21.6664 84.6622C20.2267 86.2959 17.998 86.6296 16.2334 85.4755C14.4687 84.3215 13.6084 81.9677 14.136 79.7374C14.6636 77.5072 16.4475 75.9569 18.4849 75.9582C20.2915 75.9883 21.9093 77.2329 22.6008 79.1247C23.2923 81.0164 22.925 83.1931 21.6664 84.6622ZM49.5004 93.5022C49.5004 96.3188 47.4857 98.6022 45.0004 98.6022C42.5151 98.6022 40.5004 96.3188 40.5004 93.5022C40.5004 90.6855 42.5151 88.4022 45.0004 88.4022C47.4857 88.4022 49.5004 90.6855 49.5004 93.5022ZM74.7004 77.4474C75.5445 78.4038 76.0187 79.7012 76.0187 81.0539C76.0187 82.4067 75.5445 83.704 74.7004 84.6605C72.9196 86.5876 70.1167 86.5876 68.3359 84.6605C67.199 83.372 66.755 81.494 67.1711 79.7338C67.5873 77.9737 68.8004 76.5989 70.3534 76.1273C71.9064 75.6557 73.5635 76.1589 74.7004 77.4474ZM45.0004 69.7022C35.8877 69.7022 28.5004 61.3299 28.5004 51.0022C28.5004 40.6745 35.8877 32.3022 45.0004 32.3022C54.1131 32.3022 61.5004 40.6745 61.5004 51.0022C61.4897 61.3249 54.1087 69.69 45.0004 69.7022ZM82.5004 56.1022C80.0152 56.1022 78.0004 53.8188 78.0004 51.0022C78.0004 48.1855 80.0152 45.9022 82.5004 45.9022C84.9857 45.9022 87.0004 48.1855 87.0004 51.0022C87.0004 53.8188 84.9857 56.1022 82.5004 56.1022Z" fill="url(#paint1_linear_44_971)"/>
</g>
<defs>
<linearGradient id="paint0_linear_44_971" x1="37.498" y1="51.0015" x2="54.002" y2="51.0015" gradientUnits="userSpaceOnUse">
<stop stop-color="#8700FF"/>
<stop offset="1" stop-color="#CD2288"/>
</linearGradient>
<linearGradient id="paint1_linear_44_971" x1="0.00195313" y1="51.0022" x2="89.9991" y2="51.0022" gradientUnits="userSpaceOnUse">
<stop stop-color="#8700FF"/>
<stop offset="1" stop-color="#CD2288"/>
</linearGradient>
<clipPath id="clip0_44_971">
<rect width="90" height="102" fill="white"/>
</clipPath>
</defs>
</svg>
