<svg width="20" height="20" viewBox="0 0 20 20" fill="none" xmlns="http://www.w3.org/2000/svg">
<path d="M19.3699 8.23281H10.1963V12.0033H15.4369C15.2109 13.2221 14.5254 14.2529 13.492 14.9436C12.6186 15.5275 11.5039 15.8729 10.1937 15.8729C7.65723 15.8729 5.51172 14.159 4.74492 11.8561C4.55195 11.2721 4.44023 10.6475 4.44023 10.0051C4.44023 9.3627 4.55195 8.73809 4.74492 8.1541C5.51426 5.85371 7.65977 4.13984 10.1963 4.13984C11.6258 4.13984 12.908 4.63242 13.9186 5.59727L16.7115 2.80176C15.023 1.22754 12.8217 0.262695 10.1963 0.262695C6.39023 0.262695 3.09707 2.44629 1.49492 5.63027C0.834766 6.94551 0.458984 8.4334 0.458984 10.0076C0.458984 11.5818 0.834766 13.0672 1.49492 14.3824C3.09707 17.5664 6.39023 19.75 10.1963 19.75C12.8268 19.75 15.0307 18.8766 16.6404 17.3887C18.4812 15.6926 19.5451 13.1941 19.5451 10.226C19.5451 9.53535 19.4842 8.87266 19.3699 8.23281Z" fill="white"/>
</svg>
