<svg width="56" height="57" viewBox="0 0 56 57" fill="none" xmlns="http://www.w3.org/2000/svg">
<path d="M28.216 54.9861C42.693 54.9861 54.429 43.1279 54.429 28.5001C54.429 13.8723 42.693 2.01416 28.216 2.01416C13.7389 2.01416 2.00293 13.8723 2.00293 28.5001C2.00293 43.1279 13.7389 54.9861 28.216 54.9861Z" fill="white" stroke="#55287D" stroke-width="3" stroke-miterlimit="10"/>
<path d="M28.2156 52.867C41.5345 52.867 52.3316 41.9575 52.3316 28.4999C52.3316 15.0423 41.5345 4.13281 28.2156 4.13281C14.8967 4.13281 4.09961 15.0423 4.09961 28.4999C4.09961 41.9575 14.8967 52.867 28.2156 52.867Z" fill="#55287D"/>
<path d="M17.0908 39.4461V17.1513C17.3043 16.2742 17.7126 15.4578 18.2849 14.7639C18.8572 14.07 19.5783 13.5169 20.3937 13.1466C21.8262 12.7903 23.3229 12.7903 24.7555 13.1466L44.0483 25.0293C44.8161 25.9424 45.2376 27.1016 45.2376 28.2998C45.2376 29.498 44.8161 30.6571 44.0483 31.5703L24.4913 43.3131C23.1035 43.6704 21.6493 43.6704 20.2615 43.3131C18.7411 42.4952 17.6016 41.104 17.0908 39.4419V39.4461Z" fill="white"/>
<path d="M26.1016 33.3056V23.6943H22.9308V33.3056H26.1016Z" fill="#55287D"/>
<path d="M31.3867 33.3056V23.6943H28.216V33.3056H31.3867Z" fill="#55287D"/>
</svg>
