<svg width="90" height="90" viewBox="0 0 90 90" fill="none" xmlns="http://www.w3.org/2000/svg">
<path d="M44.998 36.9146C40.5395 36.9146 36.9121 40.542 36.9121 45.0005C36.9121 49.459 40.5395 53.0864 44.998 53.0864C49.4566 53.0864 53.084 49.459 53.084 45.0005C53.084 40.542 49.4567 36.9146 44.998 36.9146ZM44.998 49.5708C42.478 49.5708 40.4277 47.5207 40.4277 45.0005C40.4277 42.4803 42.478 40.4302 44.998 40.4302C47.518 40.4302 49.5683 42.4803 49.5683 45.0005C49.5683 47.5207 47.5182 49.5708 44.998 49.5708Z" fill="url(#paint0_linear_44_977)"/>
<path d="M44.998 28.4771C35.887 28.4771 28.4746 35.8894 28.4746 45.0005C28.4746 54.1116 35.887 61.5239 44.998 61.5239C54.1091 61.5239 61.5215 54.1116 61.5215 45.0005C61.5215 35.8894 54.1091 28.4771 44.998 28.4771ZM44.998 58.0083C37.8255 58.0083 31.9902 52.1731 31.9902 45.0005C31.9902 37.8279 37.8255 31.9927 44.998 31.9927C52.1706 31.9927 58.0058 37.8279 58.0058 45.0005C58.0058 52.1731 52.1706 58.0083 44.998 58.0083Z" fill="url(#paint1_linear_44_977)"/>
<path d="M89.9279 1.27169C89.6592 0.338818 88.6852 -0.198544 87.7521 0.069346L78.7968 2.65016C77.952 2.77831 77.3046 3.50762 77.3046 4.38811V16.8918C76.4753 16.3797 75.538 16.0267 74.535 15.8766C70.8023 12.0887 66.4507 9.09148 61.5875 6.96734C56.345 4.67744 50.7631 3.51623 44.9969 3.51623C33.9161 3.51623 23.4984 7.8313 15.6632 15.6667C7.82789 23.502 3.51265 33.9197 3.51265 45.0005C3.51265 50.3386 4.50687 55.5082 6.4663 60.3981C5.21544 60.9029 4.04351 61.6605 3.03101 62.6728C-1.00773 66.7118 -1.00773 73.2833 3.03101 77.3222L15.1943 89.4856C15.5376 89.8287 15.9875 90.0004 16.4373 90.0004C16.8871 90.0004 17.3371 89.8287 17.6802 89.4856L25.5259 81.6399C31.4913 84.8133 38.1939 86.4848 44.9969 86.4848C53.2026 86.4848 61.1366 84.0928 67.9418 79.5671C68.7502 79.0294 68.9698 77.9384 68.4321 77.1299C67.8945 76.3215 66.8033 76.1021 65.995 76.6397C59.7687 80.7807 52.5075 82.9694 44.9969 82.9694C39.132 82.9694 33.3502 81.612 28.1374 79.0287L29.8438 77.3224C33.8825 73.2835 33.8825 66.7119 29.8438 62.673C26.1968 59.0264 20.4852 58.6722 16.4375 61.6113C14.5199 60.2188 12.2286 59.567 9.96047 59.6527C8.01563 55.0144 7.02844 50.092 7.02844 45.0007C7.02844 24.0647 24.0611 7.03203 44.9971 7.03203C54.3982 7.03203 63.2184 10.3965 70.1595 16.5652C67.7295 17.7749 66.055 20.2838 66.055 23.1775C66.055 27.2484 69.3669 30.5603 73.4378 30.5603C75.6436 30.5603 77.6252 29.5867 78.9793 28.048C81.5949 33.287 82.9658 39.0873 82.9658 45.0007C82.9658 52.5117 80.777 59.7725 76.6361 65.9986C76.0984 66.807 76.3179 67.8983 77.1264 68.4356C77.4257 68.6348 77.7637 68.7301 78.0982 68.7301C78.6669 68.7301 79.225 68.4546 79.5636 67.9456C84.0894 61.1407 86.4814 53.2063 86.4814 45.0007C86.4814 37.59 84.5099 30.3406 80.7747 23.9914C80.8042 23.724 80.8206 23.4528 80.8206 23.1777V5.72615L88.726 3.44785C89.6585 3.17856 90.1967 2.20456 89.9279 1.27169ZM17.6801 65.1589C20.3482 62.4909 24.6895 62.4911 27.3575 65.1589C30.0255 67.8269 30.0255 72.1682 27.3575 74.8363L16.4371 85.7567L5.51673 74.8363C2.84872 72.1682 2.84872 67.8269 5.51673 65.1589C6.85073 63.8249 8.60326 63.1578 10.3554 63.1578C12.1076 63.1578 13.8602 63.8249 15.1942 65.1589C15.8808 65.8452 16.9936 65.8452 17.6801 65.1589ZM73.4374 27.0447C71.305 27.0447 69.5702 25.3099 69.5702 23.1775C69.5702 21.0451 71.305 19.3103 73.4374 19.3103C75.5698 19.3103 77.3046 21.0451 77.3046 23.1775C77.3046 25.3099 75.5698 27.0447 73.4374 27.0447Z" fill="url(#paint2_linear_44_977)"/>
<path d="M44.998 78.1646C63.2847 78.1646 78.1622 63.2872 78.1622 45.0005C78.1622 44.0298 77.3752 43.2427 76.4044 43.2427C75.4335 43.2427 74.6466 44.0298 74.6466 45.0005C74.6466 61.3487 61.3462 74.649 44.998 74.649C44.0272 74.649 43.2402 75.4361 43.2402 76.4068C43.2402 77.3775 44.0272 78.1646 44.998 78.1646Z" fill="url(#paint3_linear_44_977)"/>
<path d="M43.2402 68.0864C43.2402 69.057 44.0272 69.8442 44.998 69.8442C58.697 69.8442 69.8417 58.6995 69.8417 45.0005C69.8417 44.0298 69.0548 43.2427 68.0839 43.2427C67.1131 43.2427 66.3261 44.0298 66.3261 45.0005C66.3261 56.7608 56.7583 66.3286 44.998 66.3286C44.0272 66.3286 43.2402 67.1157 43.2402 68.0864Z" fill="url(#paint4_linear_44_977)"/>
<path d="M73.0879 71.3364C72.6256 71.3364 72.1721 71.5229 71.8434 71.8497C71.5164 72.1784 71.3301 72.6302 71.3301 73.0942C71.3301 73.5565 71.5164 74.0101 71.8434 74.337C72.1721 74.664 72.6238 74.8521 73.0879 74.8521C73.5502 74.8521 74.0037 74.6641 74.3307 74.337C74.6576 74.0099 74.8457 73.5565 74.8457 73.0942C74.8457 72.6302 74.6576 72.1784 74.3307 71.8497C74.0037 71.5228 73.5502 71.3364 73.0879 71.3364Z" fill="url(#paint5_linear_44_977)"/>
<defs>
<linearGradient id="paint0_linear_44_977" x1="36.9121" y1="45.0005" x2="53.084" y2="45.0005" gradientUnits="userSpaceOnUse">
<stop stop-color="#00FBEB"/>
<stop offset="1" stop-color="#8700FF"/>
</linearGradient>
<linearGradient id="paint1_linear_44_977" x1="28.4746" y1="45.0005" x2="61.5215" y2="45.0005" gradientUnits="userSpaceOnUse">
<stop stop-color="#00FBEB"/>
<stop offset="1" stop-color="#8700FF"/>
</linearGradient>
<linearGradient id="paint2_linear_44_977" x1="0.00195313" y1="45.0005" x2="89.9971" y2="45.0005" gradientUnits="userSpaceOnUse">
<stop stop-color="#00FBEB"/>
<stop offset="1" stop-color="#8700FF"/>
</linearGradient>
<linearGradient id="paint3_linear_44_977" x1="43.2402" y1="60.7036" x2="78.1622" y2="60.7036" gradientUnits="userSpaceOnUse">
<stop stop-color="#00FBEB"/>
<stop offset="1" stop-color="#8700FF"/>
</linearGradient>
<linearGradient id="paint4_linear_44_977" x1="43.2402" y1="56.5434" x2="69.8417" y2="56.5434" gradientUnits="userSpaceOnUse">
<stop stop-color="#00FBEB"/>
<stop offset="1" stop-color="#8700FF"/>
</linearGradient>
<linearGradient id="paint5_linear_44_977" x1="71.3301" y1="73.0942" x2="74.8457" y2="73.0942" gradientUnits="userSpaceOnUse">
<stop stop-color="#00FBEB"/>
<stop offset="1" stop-color="#8700FF"/>
</linearGradient>
</defs>
</svg>
