<svg width="55" height="55" viewBox="0 0 55 55" fill="none" xmlns="http://www.w3.org/2000/svg">
<g clip-path="url(#clip0_44_1389)">
<path d="M54.3605 13.4326C53.9579 13.1281 53.4357 13.0298 52.9497 13.1673L30.1764 19.6126C29.4828 19.809 29.0039 20.4421 29.0039 21.163V42.9773C28.055 42.427 26.9548 42.1102 25.7812 42.1102C22.2273 42.1102 19.3359 45.0016 19.3359 48.5555C19.3359 52.1094 22.2273 55.0008 25.7812 55.0008C29.3352 55.0008 32.2265 52.1094 32.2265 48.5555C32.2265 48.3881 32.2265 28.8269 32.2265 28.8269L51.7772 23.2936V36.532C50.8284 35.9817 49.7282 35.6649 48.5546 35.6649C45.0006 35.6649 42.1093 38.5563 42.1093 42.1102C42.1093 45.6642 45.0006 48.5555 48.5546 48.5555C52.1085 48.5555 54.9999 45.6642 54.9999 42.1102C54.9999 41.9672 54.9999 14.7178 54.9999 14.7178C55 14.2129 54.7632 13.7371 54.3605 13.4326ZM25.7813 51.7782C24.0044 51.7782 22.5587 50.3325 22.5587 48.5555C22.5587 46.7785 24.0044 45.3329 25.7813 45.3329C27.5583 45.3329 29.004 46.7785 29.004 48.5555C29.004 50.3325 27.5583 51.7782 25.7813 51.7782ZM48.5547 45.3329C46.7777 45.3329 45.332 43.8872 45.332 42.1102C45.332 40.3333 46.7777 38.8876 48.5547 38.8876C50.3316 38.8876 51.7773 40.3333 51.7773 42.1102C51.7773 43.8872 50.3316 45.3329 48.5547 45.3329ZM51.7773 19.9446L32.2266 25.4777V22.3816L51.7773 16.8485V19.9446Z" fill="url(#paint0_linear_44_1389)"/>
<path d="M22.4837 11.4383C18.9088 8.81765 16.2897 6.22213 14.4771 3.50318L12.6199 0.717639C12.226 0.126821 11.4917 -0.136469 10.8123 0.0692431C10.1327 0.275063 9.66793 0.901437 9.66793 1.61149V26.8633C8.71908 26.3129 7.61887 25.9962 6.44529 25.9962C2.89136 25.9962 0 28.8875 0 32.4415C0 35.9954 2.89136 38.8867 6.44529 38.8867C9.99922 38.8867 12.8906 35.9954 12.8906 32.4415V6.80994C14.8163 9.29127 17.3474 11.669 20.5784 14.0376C21.8183 14.9464 22.5585 16.405 22.5585 17.9397C22.5585 20.6051 20.39 22.7736 17.7245 22.7736C16.8347 22.7736 16.1132 23.4951 16.1132 24.3849C16.1132 25.2748 16.8347 25.9963 17.7245 25.9963C22.167 25.9962 25.7811 22.382 25.7811 17.9396C25.7811 15.3822 24.5484 12.9518 22.4837 11.4383ZM6.44529 35.6641C4.66832 35.6641 3.22264 34.2184 3.22264 32.4415C3.22264 30.6645 4.66832 29.2188 6.44529 29.2188C8.22225 29.2188 9.66793 30.6645 9.66793 32.4415C9.66793 34.2184 8.22225 35.6641 6.44529 35.6641Z" fill="url(#paint1_linear_44_1389)"/>
</g>
<defs>
<linearGradient id="paint0_linear_44_1389" x1="19.3359" y1="34.0536" x2="54.9999" y2="34.0536" gradientUnits="userSpaceOnUse">
<stop stop-color="#CD2288"/>
<stop offset="1" stop-color="#8700FF"/>
</linearGradient>
<linearGradient id="paint1_linear_44_1389" x1="3.73608e-10" y1="19.4434" x2="25.7811" y2="19.4434" gradientUnits="userSpaceOnUse">
<stop stop-color="#CD2288"/>
<stop offset="1" stop-color="#8700FF"/>
</linearGradient>
<clipPath id="clip0_44_1389">
<rect width="55" height="55" fill="white"/>
</clipPath>
</defs>
</svg>
