<svg width="37" height="55" viewBox="0 0 37 55" fill="none" xmlns="http://www.w3.org/2000/svg">
<path d="M31.977 16.1779C26.8926 12.4714 23.1677 8.80035 20.5897 4.95478L17.9483 1.015C17.3881 0.179371 16.3439 -0.193017 15.3775 0.097935C14.4111 0.389039 13.75 1.27496 13.75 2.27924V37.9944C12.4005 37.2161 10.8358 36.768 9.16667 36.768C4.11217 36.768 0 40.8575 0 45.884C0 50.9106 4.11217 55 9.16667 55C14.2212 55 18.3333 50.9106 18.3333 45.884V9.63173C21.0722 13.1412 24.6719 16.5043 29.2672 19.8542C31.0305 21.1396 32.0833 23.2027 32.0833 25.3732C32.0833 29.1431 28.9992 32.2102 25.2083 32.2102C23.9427 32.2102 22.9167 33.2306 22.9167 34.4892C22.9167 35.7478 23.9427 36.7682 25.2083 36.7682C31.5265 36.768 36.6667 31.6562 36.6667 25.3731C36.6667 21.756 34.9134 18.3185 31.977 16.1779ZM9.16667 50.442C6.63942 50.442 4.58333 48.3973 4.58333 45.884C4.58333 43.3707 6.63942 41.326 9.16667 41.326C11.6939 41.326 13.75 43.3707 13.75 45.884C13.75 48.3973 11.6939 50.442 9.16667 50.442Z" fill="url(#paint0_linear_44_1377)"/>
<path fill-rule="evenodd" clip-rule="evenodd" d="M12.75 37.4958C11.6488 37.028 10.438 36.768 9.16667 36.768C4.11217 36.768 0 40.8575 0 45.884C0 50.9106 4.11217 55 9.16667 55C14.2212 55 18.3333 50.9106 18.3333 45.884V9.63173C18.6547 10.0436 18.988 10.4534 19.3333 10.8614C21.9308 13.9304 25.2112 16.8974 29.2672 19.8542C31.0305 21.1396 32.0833 23.2027 32.0833 25.3732C32.0833 29.1431 28.9992 32.2102 25.2083 32.2102C23.9427 32.2102 22.9167 33.2306 22.9167 34.4892C22.9167 35.7478 23.9427 36.7682 25.2083 36.7682C31.5265 36.768 36.6667 31.6562 36.6667 25.3731C36.6667 21.756 34.9134 18.3185 31.977 16.1779C26.8926 12.4714 23.1677 8.80035 20.5897 4.95478L17.9483 1.015C17.3881 0.179371 16.3439 -0.193017 15.3775 0.097935C14.4111 0.389039 13.75 1.27496 13.75 2.27924V37.9944C13.4284 37.8089 13.0946 37.6422 12.75 37.4958ZM15.6658 1.05547C15.1188 1.22028 14.75 1.71937 14.75 2.27924V39.7256L13.2504 38.8607C12.0476 38.167 10.6545 37.768 9.16667 37.768C4.65922 37.768 1 41.415 1 45.884C1 50.3531 4.65922 54 9.16667 54C13.6741 54 17.3333 50.3531 17.3333 45.884V6.72495L19.1217 9.0165C21.7899 12.4355 25.316 15.7363 29.8562 19.0461C31.8762 20.5185 33.0833 22.8811 33.0833 25.3732C33.0833 29.7006 29.5463 33.2102 25.2083 33.2102C24.4898 33.2102 23.9167 33.7881 23.9167 34.4892C23.9167 35.1903 24.4898 35.7682 25.2083 35.7682C30.9794 35.768 35.6667 31.0987 35.6667 25.3731C35.6667 22.0773 34.0675 18.9394 31.3879 16.986C26.2406 13.2336 22.421 9.48244 19.7591 5.51164C19.7591 5.51163 19.7591 5.51166 19.7591 5.51164L17.1177 1.57187C16.8032 1.10272 16.2136 0.890588 15.6658 1.05547ZM9.16667 51.442C6.09237 51.442 3.58333 48.9548 3.58333 45.884C3.58333 42.8132 6.09237 40.326 9.16667 40.326C12.241 40.326 14.75 42.8132 14.75 45.884C14.75 48.9548 12.241 51.442 9.16667 51.442ZM4.58333 45.884C4.58333 48.3973 6.63942 50.442 9.16667 50.442C11.6939 50.442 13.75 48.3973 13.75 45.884C13.75 43.3707 11.6939 41.326 9.16667 41.326C6.63942 41.326 4.58333 43.3707 4.58333 45.884Z" fill="#55287D"/>
<defs>
<linearGradient id="paint0_linear_44_1377" x1="5.35524e-10" y1="27.5" x2="36.6667" y2="27.5" gradientUnits="userSpaceOnUse">
<stop stop-color="#CD2288"/>
<stop offset="1" stop-color="#8700FF"/>
</linearGradient>
</defs>
</svg>
