<svg width="1181" height="512" viewBox="0 0 1181 512" fill="none" xmlns="http://www.w3.org/2000/svg">
<path d="M243.328 491.576C243.328 492.552 243.104 493.448 242.656 494.264C242.208 495.064 241.52 495.712 240.592 496.208C239.664 496.704 238.512 496.952 237.136 496.952H234.592V503H230.488V486.152H237.136C238.48 486.152 239.616 486.384 240.544 486.848C241.472 487.312 242.168 487.952 242.632 488.768C243.096 489.584 243.328 490.52 243.328 491.576ZM236.824 493.688C237.608 493.688 238.192 493.504 238.576 493.136C238.96 492.768 239.152 492.248 239.152 491.576C239.152 490.904 238.96 490.384 238.576 490.016C238.192 489.648 237.608 489.464 236.824 489.464H234.592V493.688H236.824ZM249.569 499.832H254.945V503H245.465V486.152H249.569V499.832ZM267.39 500.024H261.102L260.094 503H255.798L261.894 486.152H266.646L272.742 503H268.398L267.39 500.024ZM266.334 496.856L264.246 490.688L262.182 496.856H266.334ZM289.045 486.152L283.213 497.432V503H279.109V497.432L273.277 486.152H277.933L281.197 493.208L284.437 486.152H289.045ZM296.795 503.168C295.563 503.168 294.459 502.968 293.483 502.568C292.507 502.168 291.723 501.576 291.131 500.792C290.555 500.008 290.251 499.064 290.219 497.96H294.587C294.651 498.584 294.867 499.064 295.235 499.4C295.603 499.72 296.083 499.88 296.675 499.88C297.283 499.88 297.763 499.744 298.115 499.472C298.467 499.184 298.643 498.792 298.643 498.296C298.643 497.88 298.499 497.536 298.211 497.264C297.939 496.992 297.595 496.768 297.179 496.592C296.779 496.416 296.203 496.216 295.451 495.992C294.363 495.656 293.475 495.32 292.787 494.984C292.099 494.648 291.507 494.152 291.011 493.496C290.515 492.84 290.267 491.984 290.267 490.928C290.267 489.36 290.835 488.136 291.971 487.256C293.107 486.36 294.587 485.912 296.411 485.912C298.267 485.912 299.763 486.36 300.899 487.256C302.035 488.136 302.643 489.368 302.723 490.952H298.283C298.251 490.408 298.051 489.984 297.683 489.68C297.315 489.36 296.843 489.2 296.267 489.2C295.771 489.2 295.371 489.336 295.067 489.608C294.763 489.864 294.611 490.24 294.611 490.736C294.611 491.28 294.867 491.704 295.379 492.008C295.891 492.312 296.691 492.64 297.779 492.992C298.867 493.36 299.747 493.712 300.419 494.048C301.107 494.384 301.699 494.872 302.195 495.512C302.691 496.152 302.939 496.976 302.939 497.984C302.939 498.944 302.691 499.816 302.195 500.6C301.715 501.384 301.011 502.008 300.083 502.472C299.155 502.936 298.059 503.168 296.795 503.168Z" fill="#55287D" class="svg-elem-1"></path>
<path d="M478.304 486.152L472.328 503H467.192L461.216 486.152H465.584L469.76 498.872L473.96 486.152H478.304ZM484.123 486.152V503H480.019V486.152H484.123ZM491.201 489.44V492.848H496.697V496.016H491.201V499.712H497.417V503H487.097V486.152H497.417V489.44H491.201ZM523.266 486.152L518.874 503H513.906L511.218 491.912L508.434 503H503.466L499.194 486.152H503.586L506.01 498.416L509.01 486.152H513.522L516.402 498.416L518.85 486.152H523.266ZM531.42 503.168C530.188 503.168 529.084 502.968 528.108 502.568C527.132 502.168 526.348 501.576 525.756 500.792C525.18 500.008 524.876 499.064 524.844 497.96H529.212C529.276 498.584 529.492 499.064 529.86 499.4C530.228 499.72 530.708 499.88 531.3 499.88C531.908 499.88 532.388 499.744 532.74 499.472C533.092 499.184 533.268 498.792 533.268 498.296C533.268 497.88 533.124 497.536 532.836 497.264C532.564 496.992 532.22 496.768 531.804 496.592C531.404 496.416 530.828 496.216 530.076 495.992C528.988 495.656 528.1 495.32 527.412 494.984C526.724 494.648 526.132 494.152 525.636 493.496C525.14 492.84 524.892 491.984 524.892 490.928C524.892 489.36 525.46 488.136 526.596 487.256C527.732 486.36 529.212 485.912 531.036 485.912C532.892 485.912 534.388 486.36 535.524 487.256C536.66 488.136 537.268 489.368 537.348 490.952H532.908C532.876 490.408 532.676 489.984 532.308 489.68C531.94 489.36 531.468 489.2 530.892 489.2C530.396 489.2 529.996 489.336 529.692 489.608C529.388 489.864 529.236 490.24 529.236 490.736C529.236 491.28 529.492 491.704 530.004 492.008C530.516 492.312 531.316 492.64 532.404 492.992C533.492 493.36 534.372 493.712 535.044 494.048C535.732 494.384 536.324 494.872 536.82 495.512C537.316 496.152 537.564 496.976 537.564 497.984C537.564 498.944 537.316 499.816 536.82 500.6C536.34 501.384 535.636 502.008 534.708 502.472C533.78 502.936 532.684 503.168 531.42 503.168Z" fill="#55287D" class="svg-elem-2"></path>
<path d="M651.456 486.152V489.44H644.592V492.992H649.728V496.184H644.592V503H640.488V486.152H651.456ZM664.101 500.024H657.813L656.805 503H652.509L658.605 486.152H663.357L669.453 503H665.109L664.101 500.024ZM663.045 496.856L660.957 490.688L658.893 496.856H663.045ZM686.38 503H682.276L675.412 492.608V503H671.308V486.152H675.412L682.276 496.592V486.152H686.38V503ZM699.555 494.36C700.531 494.568 701.315 495.056 701.907 495.824C702.499 496.576 702.795 497.44 702.795 498.416C702.795 499.824 702.299 500.944 701.307 501.776C700.331 502.592 698.963 503 697.203 503H689.355V486.152H696.939C698.651 486.152 699.987 486.544 700.947 487.328C701.923 488.112 702.411 489.176 702.411 490.52C702.411 491.512 702.147 492.336 701.619 492.992C701.107 493.648 700.419 494.104 699.555 494.36ZM693.459 492.968H696.147C696.819 492.968 697.331 492.824 697.683 492.536C698.051 492.232 698.235 491.792 698.235 491.216C698.235 490.64 698.051 490.2 697.683 489.896C697.331 489.592 696.819 489.44 696.147 489.44H693.459V492.968ZM696.483 499.688C697.171 499.688 697.699 499.536 698.067 499.232C698.451 498.912 698.643 498.456 698.643 497.864C698.643 497.272 698.443 496.808 698.043 496.472C697.659 496.136 697.123 495.968 696.435 495.968H693.459V499.688H696.483ZM715.664 500.024H709.376L708.368 503H704.072L710.168 486.152H714.92L721.016 503H716.672L715.664 500.024ZM714.608 496.856L712.52 490.688L710.456 496.856H714.608ZM728.967 503.168C727.735 503.168 726.631 502.968 725.655 502.568C724.679 502.168 723.895 501.576 723.303 500.792C722.727 500.008 722.423 499.064 722.391 497.96H726.759C726.823 498.584 727.039 499.064 727.407 499.4C727.775 499.72 728.255 499.88 728.847 499.88C729.455 499.88 729.935 499.744 730.287 499.472C730.639 499.184 730.815 498.792 730.815 498.296C730.815 497.88 730.671 497.536 730.383 497.264C730.111 496.992 729.767 496.768 729.351 496.592C728.951 496.416 728.375 496.216 727.623 495.992C726.535 495.656 725.647 495.32 724.959 494.984C724.271 494.648 723.679 494.152 723.183 493.496C722.687 492.84 722.439 491.984 722.439 490.928C722.439 489.36 723.007 488.136 724.143 487.256C725.279 486.36 726.759 485.912 728.583 485.912C730.439 485.912 731.935 486.36 733.071 487.256C734.207 488.136 734.815 489.368 734.895 490.952H730.455C730.423 490.408 730.223 489.984 729.855 489.68C729.487 489.36 729.015 489.2 728.439 489.2C727.943 489.2 727.543 489.336 727.239 489.608C726.935 489.864 726.783 490.24 726.783 490.736C726.783 491.28 727.039 491.704 727.551 492.008C728.063 492.312 728.863 492.64 729.951 492.992C731.039 493.36 731.919 493.712 732.591 494.048C733.279 494.384 733.871 494.872 734.367 495.512C734.863 496.152 735.111 496.976 735.111 497.984C735.111 498.944 734.863 499.816 734.367 500.6C733.887 501.384 733.183 502.008 732.255 502.472C731.327 502.936 730.231 503.168 728.967 503.168ZM741.74 489.44V492.848H747.236V496.016H741.74V499.712H747.956V503H737.636V486.152H747.956V489.44H741.74Z" fill="#55287D" class="svg-elem-3"></path>
<path d="M845.456 486.152V489.44H838.592V492.992H843.728V496.184H838.592V503H834.488V486.152H845.456ZM855.581 503.168C853.997 503.168 852.541 502.8 851.213 502.064C849.901 501.328 848.853 500.304 848.069 498.992C847.301 497.664 846.917 496.176 846.917 494.528C846.917 492.88 847.301 491.4 848.069 490.088C848.853 488.776 849.901 487.752 851.213 487.016C852.541 486.28 853.997 485.912 855.581 485.912C857.165 485.912 858.613 486.28 859.925 487.016C861.253 487.752 862.293 488.776 863.045 490.088C863.813 491.4 864.197 492.88 864.197 494.528C864.197 496.176 863.813 497.664 863.045 498.992C862.277 500.304 861.237 501.328 859.925 502.064C858.613 502.8 857.165 503.168 855.581 503.168ZM855.581 499.424C856.925 499.424 857.997 498.976 858.797 498.08C859.613 497.184 860.021 496 860.021 494.528C860.021 493.04 859.613 491.856 858.797 490.976C857.997 490.08 856.925 489.632 855.581 489.632C854.221 489.632 853.133 490.072 852.317 490.952C851.517 491.832 851.117 493.024 851.117 494.528C851.117 496.016 851.517 497.208 852.317 498.104C853.133 498.984 854.221 499.424 855.581 499.424ZM870.584 499.832H875.96V503H866.48V486.152H870.584V499.832ZM882.022 499.832H887.398V503H877.918V486.152H882.022V499.832ZM897.323 503.168C895.739 503.168 894.283 502.8 892.955 502.064C891.643 501.328 890.595 500.304 889.811 498.992C889.043 497.664 888.659 496.176 888.659 494.528C888.659 492.88 889.043 491.4 889.811 490.088C890.595 488.776 891.643 487.752 892.955 487.016C894.283 486.28 895.739 485.912 897.323 485.912C898.907 485.912 900.355 486.28 901.667 487.016C902.995 487.752 904.035 488.776 904.787 490.088C905.555 491.4 905.939 492.88 905.939 494.528C905.939 496.176 905.555 497.664 904.787 498.992C904.019 500.304 902.979 501.328 901.667 502.064C900.355 502.8 898.907 503.168 897.323 503.168ZM897.323 499.424C898.667 499.424 899.739 498.976 900.539 498.08C901.355 497.184 901.763 496 901.763 494.528C901.763 493.04 901.355 491.856 900.539 490.976C899.739 490.08 898.667 489.632 897.323 489.632C895.963 489.632 894.875 490.072 894.059 490.952C893.259 491.832 892.859 493.024 892.859 494.528C892.859 496.016 893.259 497.208 894.059 498.104C894.875 498.984 895.963 499.424 897.323 499.424ZM931.406 486.152L927.014 503H922.046L919.358 491.912L916.574 503H911.606L907.334 486.152H911.726L914.15 498.416L917.15 486.152H921.662L924.542 498.416L926.99 486.152H931.406ZM937.569 489.44V492.848H943.065V496.016H937.569V499.712H943.785V503H933.465V486.152H943.785V489.44H937.569ZM955.041 503L951.537 496.64H950.553V503H946.449V486.152H953.337C954.665 486.152 955.793 486.384 956.721 486.848C957.665 487.312 958.369 487.952 958.833 488.768C959.297 489.568 959.529 490.464 959.529 491.456C959.529 492.576 959.209 493.576 958.569 494.456C957.945 495.336 957.017 495.96 955.785 496.328L959.673 503H955.041ZM950.553 493.736H953.097C953.849 493.736 954.409 493.552 954.777 493.184C955.161 492.816 955.353 492.296 955.353 491.624C955.353 490.984 955.161 490.48 954.777 490.112C954.409 489.744 953.849 489.56 953.097 489.56H950.553V493.736ZM968.201 503.168C966.969 503.168 965.865 502.968 964.889 502.568C963.913 502.168 963.129 501.576 962.537 500.792C961.961 500.008 961.657 499.064 961.625 497.96H965.993C966.057 498.584 966.273 499.064 966.641 499.4C967.009 499.72 967.489 499.88 968.081 499.88C968.689 499.88 969.169 499.744 969.521 499.472C969.873 499.184 970.049 498.792 970.049 498.296C970.049 497.88 969.905 497.536 969.617 497.264C969.345 496.992 969.001 496.768 968.585 496.592C968.185 496.416 967.609 496.216 966.857 495.992C965.769 495.656 964.881 495.32 964.193 494.984C963.505 494.648 962.913 494.152 962.417 493.496C961.921 492.84 961.673 491.984 961.673 490.928C961.673 489.36 962.241 488.136 963.377 487.256C964.513 486.36 965.993 485.912 967.817 485.912C969.673 485.912 971.169 486.36 972.305 487.256C973.441 488.136 974.049 489.368 974.129 490.952H969.689C969.657 490.408 969.457 489.984 969.089 489.68C968.721 489.36 968.249 489.2 967.673 489.2C967.177 489.2 966.777 489.336 966.473 489.608C966.169 489.864 966.017 490.24 966.017 490.736C966.017 491.28 966.273 491.704 966.785 492.008C967.297 492.312 968.097 492.64 969.185 492.992C970.273 493.36 971.153 493.712 971.825 494.048C972.513 494.384 973.105 494.872 973.601 495.512C974.097 496.152 974.345 496.976 974.345 497.984C974.345 498.944 974.097 499.816 973.601 500.6C973.121 501.384 972.417 502.008 971.489 502.472C970.561 502.936 969.465 503.168 968.201 503.168Z" fill="#55287D" class="svg-elem-4"></path>
<path d="M1025.58 503.168C1024.35 503.168 1023.25 502.968 1022.27 502.568C1021.3 502.168 1020.51 501.576 1019.92 500.792C1019.34 500.008 1019.04 499.064 1019.01 497.96H1023.38C1023.44 498.584 1023.66 499.064 1024.02 499.4C1024.39 499.72 1024.87 499.88 1025.46 499.88C1026.07 499.88 1026.55 499.744 1026.9 499.472C1027.26 499.184 1027.43 498.792 1027.43 498.296C1027.43 497.88 1027.29 497.536 1027 497.264C1026.73 496.992 1026.38 496.768 1025.97 496.592C1025.57 496.416 1024.99 496.216 1024.24 495.992C1023.15 495.656 1022.26 495.32 1021.58 494.984C1020.89 494.648 1020.3 494.152 1019.8 493.496C1019.3 492.84 1019.06 491.984 1019.06 490.928C1019.06 489.36 1019.62 488.136 1020.76 487.256C1021.9 486.36 1023.38 485.912 1025.2 485.912C1027.06 485.912 1028.55 486.36 1029.69 487.256C1030.82 488.136 1031.43 489.368 1031.51 490.952H1027.07C1027.04 490.408 1026.84 489.984 1026.47 489.68C1026.1 489.36 1025.63 489.2 1025.06 489.2C1024.56 489.2 1024.16 489.336 1023.86 489.608C1023.55 489.864 1023.4 490.24 1023.4 490.736C1023.4 491.28 1023.66 491.704 1024.17 492.008C1024.68 492.312 1025.48 492.64 1026.57 492.992C1027.66 493.36 1028.54 493.712 1029.21 494.048C1029.9 494.384 1030.49 494.872 1030.98 495.512C1031.48 496.152 1031.73 496.976 1031.73 497.984C1031.73 498.944 1031.48 499.816 1030.98 500.6C1030.5 501.384 1029.8 502.008 1028.87 502.472C1027.94 502.936 1026.85 503.168 1025.58 503.168ZM1038.29 486.152V496.232C1038.29 497.24 1038.53 498.016 1039.03 498.56C1039.53 499.104 1040.25 499.376 1041.21 499.376C1042.17 499.376 1042.91 499.104 1043.42 498.56C1043.93 498.016 1044.19 497.24 1044.19 496.232V486.152H1048.29V496.208C1048.29 497.712 1047.97 498.984 1047.33 500.024C1046.69 501.064 1045.83 501.848 1044.74 502.376C1043.67 502.904 1042.47 503.168 1041.14 503.168C1039.81 503.168 1038.62 502.912 1037.57 502.4C1036.53 501.872 1035.7 501.088 1035.09 500.048C1034.49 498.992 1034.18 497.712 1034.18 496.208V486.152H1038.29ZM1061.38 494.36C1062.35 494.568 1063.14 495.056 1063.73 495.824C1064.32 496.576 1064.62 497.44 1064.62 498.416C1064.62 499.824 1064.12 500.944 1063.13 501.776C1062.15 502.592 1060.78 503 1059.02 503H1051.18V486.152H1058.76C1060.47 486.152 1061.81 486.544 1062.77 487.328C1063.74 488.112 1064.23 489.176 1064.23 490.52C1064.23 491.512 1063.97 492.336 1063.44 492.992C1062.93 493.648 1062.24 494.104 1061.38 494.36ZM1055.28 492.968H1057.97C1058.64 492.968 1059.15 492.824 1059.5 492.536C1059.87 492.232 1060.06 491.792 1060.06 491.216C1060.06 490.64 1059.87 490.2 1059.5 489.896C1059.15 489.592 1058.64 489.44 1057.97 489.44H1055.28V492.968ZM1058.3 499.688C1058.99 499.688 1059.52 499.536 1059.89 499.232C1060.27 498.912 1060.46 498.456 1060.46 497.864C1060.46 497.272 1060.26 496.808 1059.86 496.472C1059.48 496.136 1058.94 495.968 1058.26 495.968H1055.28V499.688H1058.3ZM1073.09 503.168C1071.86 503.168 1070.76 502.968 1069.78 502.568C1068.8 502.168 1068.02 501.576 1067.43 500.792C1066.85 500.008 1066.55 499.064 1066.52 497.96H1070.88C1070.95 498.584 1071.16 499.064 1071.53 499.4C1071.9 499.72 1072.38 499.88 1072.97 499.88C1073.58 499.88 1074.06 499.744 1074.41 499.472C1074.76 499.184 1074.94 498.792 1074.94 498.296C1074.94 497.88 1074.8 497.536 1074.51 497.264C1074.24 496.992 1073.89 496.768 1073.48 496.592C1073.08 496.416 1072.5 496.216 1071.75 495.992C1070.66 495.656 1069.77 495.32 1069.08 494.984C1068.4 494.648 1067.8 494.152 1067.31 493.496C1066.81 492.84 1066.56 491.984 1066.56 490.928C1066.56 489.36 1067.13 488.136 1068.27 487.256C1069.4 486.36 1070.88 485.912 1072.71 485.912C1074.56 485.912 1076.06 486.36 1077.2 487.256C1078.33 488.136 1078.94 489.368 1079.02 490.952H1074.58C1074.55 490.408 1074.35 489.984 1073.98 489.68C1073.61 489.36 1073.14 489.2 1072.56 489.2C1072.07 489.2 1071.67 489.336 1071.36 489.608C1071.06 489.864 1070.91 490.24 1070.91 490.736C1070.91 491.28 1071.16 491.704 1071.68 492.008C1072.19 492.312 1072.99 492.64 1074.08 492.992C1075.16 493.36 1076.04 493.712 1076.72 494.048C1077.4 494.384 1078 494.872 1078.49 495.512C1078.99 496.152 1079.24 496.976 1079.24 497.984C1079.24 498.944 1078.99 499.816 1078.49 500.6C1078.01 501.384 1077.31 502.008 1076.38 502.472C1075.45 502.936 1074.36 503.168 1073.09 503.168ZM1081.07 494.552C1081.07 492.888 1081.43 491.408 1082.15 490.112C1082.87 488.8 1083.87 487.784 1085.15 487.064C1086.44 486.328 1087.91 485.96 1089.54 485.96C1091.54 485.96 1093.25 486.488 1094.67 487.544C1096.1 488.6 1097.05 490.04 1097.53 491.864H1093.02C1092.68 491.16 1092.2 490.624 1091.58 490.256C1090.97 489.888 1090.27 489.704 1089.49 489.704C1088.23 489.704 1087.2 490.144 1086.42 491.024C1085.63 491.904 1085.24 493.08 1085.24 494.552C1085.24 496.024 1085.63 497.2 1086.42 498.08C1087.2 498.96 1088.23 499.4 1089.49 499.4C1090.27 499.4 1090.97 499.216 1091.58 498.848C1092.2 498.48 1092.68 497.944 1093.02 497.24H1097.53C1097.05 499.064 1096.1 500.504 1094.67 501.56C1093.25 502.6 1091.54 503.12 1089.54 503.12C1087.91 503.12 1086.44 502.76 1085.15 502.04C1083.87 501.304 1082.87 500.288 1082.15 498.992C1081.43 497.696 1081.07 496.216 1081.07 494.552ZM1108.63 503L1105.13 496.64H1104.15V503H1100.04V486.152H1106.93C1108.26 486.152 1109.39 486.384 1110.31 486.848C1111.26 487.312 1111.96 487.952 1112.43 488.768C1112.89 489.568 1113.12 490.464 1113.12 491.456C1113.12 492.576 1112.8 493.576 1112.16 494.456C1111.54 495.336 1110.61 495.96 1109.38 496.328L1113.27 503H1108.63ZM1104.15 493.736H1106.69C1107.44 493.736 1108 493.552 1108.37 493.184C1108.75 492.816 1108.95 492.296 1108.95 491.624C1108.95 490.984 1108.75 490.48 1108.37 490.112C1108 489.744 1107.44 489.56 1106.69 489.56H1104.15V493.736ZM1119.8 486.152V503H1115.7V486.152H1119.8ZM1132.98 494.36C1133.95 494.568 1134.74 495.056 1135.33 495.824C1135.92 496.576 1136.22 497.44 1136.22 498.416C1136.22 499.824 1135.72 500.944 1134.73 501.776C1133.75 502.592 1132.39 503 1130.63 503H1122.78V486.152H1130.36C1132.07 486.152 1133.41 486.544 1134.37 487.328C1135.35 488.112 1135.83 489.176 1135.83 490.52C1135.83 491.512 1135.57 492.336 1135.04 492.992C1134.53 493.648 1133.84 494.104 1132.98 494.36ZM1126.88 492.968H1129.57C1130.24 492.968 1130.75 492.824 1131.11 492.536C1131.47 492.232 1131.66 491.792 1131.66 491.216C1131.66 490.64 1131.47 490.2 1131.11 489.896C1130.75 489.592 1130.24 489.44 1129.57 489.44H1126.88V492.968ZM1129.91 499.688C1130.59 499.688 1131.12 499.536 1131.49 499.232C1131.87 498.912 1132.07 498.456 1132.07 497.864C1132.07 497.272 1131.87 496.808 1131.47 496.472C1131.08 496.136 1130.55 495.968 1129.86 495.968H1126.88V499.688H1129.91ZM1142.7 489.44V492.848H1148.2V496.016H1142.7V499.712H1148.92V503H1138.6V486.152H1148.92V489.44H1142.7ZM1160.17 503L1156.67 496.64H1155.69V503H1151.58V486.152H1158.47C1159.8 486.152 1160.93 486.384 1161.85 486.848C1162.8 487.312 1163.5 487.952 1163.97 488.768C1164.43 489.568 1164.66 490.464 1164.66 491.456C1164.66 492.576 1164.34 493.576 1163.7 494.456C1163.08 495.336 1162.15 495.96 1160.92 496.328L1164.81 503H1160.17ZM1155.69 493.736H1158.23C1158.98 493.736 1159.54 493.552 1159.91 493.184C1160.29 492.816 1160.49 492.296 1160.49 491.624C1160.49 490.984 1160.29 490.48 1159.91 490.112C1159.54 489.744 1158.98 489.56 1158.23 489.56H1155.69V493.736ZM1173.33 503.168C1172.1 503.168 1171 502.968 1170.02 502.568C1169.05 502.168 1168.26 501.576 1167.67 500.792C1167.09 500.008 1166.79 499.064 1166.76 497.96H1171.13C1171.19 498.584 1171.41 499.064 1171.77 499.4C1172.14 499.72 1172.62 499.88 1173.21 499.88C1173.82 499.88 1174.3 499.744 1174.65 499.472C1175.01 499.184 1175.18 498.792 1175.18 498.296C1175.18 497.88 1175.04 497.536 1174.75 497.264C1174.48 496.992 1174.13 496.768 1173.72 496.592C1173.32 496.416 1172.74 496.216 1171.99 495.992C1170.9 495.656 1170.01 495.32 1169.33 494.984C1168.64 494.648 1168.05 494.152 1167.55 493.496C1167.05 492.84 1166.81 491.984 1166.81 490.928C1166.81 489.36 1167.37 488.136 1168.51 487.256C1169.65 486.36 1171.13 485.912 1172.95 485.912C1174.81 485.912 1176.3 486.36 1177.44 487.256C1178.57 488.136 1179.18 489.368 1179.26 490.952H1174.82C1174.79 490.408 1174.59 489.984 1174.22 489.68C1173.85 489.36 1173.38 489.2 1172.81 489.2C1172.31 489.2 1171.91 489.336 1171.61 489.608C1171.3 489.864 1171.15 490.24 1171.15 490.736C1171.15 491.28 1171.41 491.704 1171.92 492.008C1172.43 492.312 1173.23 492.64 1174.32 492.992C1175.41 493.36 1176.29 493.712 1176.96 494.048C1177.65 494.384 1178.24 494.872 1178.73 495.512C1179.23 496.152 1179.48 496.976 1179.48 497.984C1179.48 498.944 1179.23 499.816 1178.73 500.6C1178.25 501.384 1177.55 502.008 1176.62 502.472C1175.69 502.936 1174.6 503.168 1173.33 503.168Z" fill="#55287D" class="svg-elem-5"></path>
<path d="M1157.96 18.0455C1149.96 26.2905 1137.97 42.5701 1120.64 36.3742L1157.96 18.0455L1151.23 55.7663C1136.12 46.9343 1150.07 28.4864 1157.85 18.19L1157.96 18.0455Z" fill="#D630A9" class="svg-elem-6"></path>
<path d="M1129.68 53.0948L1157.96 18.0455M1157.96 18.0455C1149.96 26.2905 1137.97 42.5701 1120.64 36.3742L1157.96 18.0455ZM1157.96 18.0455C1150.2 28.3129 1136.05 46.8928 1151.23 55.7663L1157.96 18.0455Z" stroke="#CD2288" stroke-width="10" class="svg-elem-7"></path>
<path d="M12 456C12 430.813 61.4985 387.212 98.1939 381.306C134.889 375.4 181.867 376.529 215.639 381.306C239.239 384.644 291.651 390.513 321.491 354.382C351.332 318.251 378.954 297.736 433.896 316.166C452.883 322.535 495.895 333.362 516.058 325.719C536.22 318.077 557.054 284.03 564.951 267.962C572.208 253.197 602.957 231.831 654.169 257.539C705.382 283.248 744.06 254.355 756.997 236.695C776.656 211.942 806.193 160.698 845.711 160.698C885.229 160.698 913.255 177.2 935.938 177.2C961.645 177.2 1003.18 163.825 1036.25 141.591C1069.31 119.356 1113.53 71.7658 1131 51.5" stroke="#CD2288" stroke-width="23" class="svg-elem-8"></path>
<path d="M1065 133.638L1091 111V456H1065V133.638Z" fill="#55287D" class="svg-elem-9"></path>
<rect x="892" y="178" width="26" height="280" fill="#55287D" class="svg-elem-10"></rect>
<rect x="678" y="278" width="26" height="178" fill="#55287D" class="svg-elem-11"></rect>
<rect x="486" y="339" width="26" height="118" fill="#55287D" class="svg-elem-12"></rect>
<rect x="236" y="394" width="26" height="62" fill="#55287D" class="svg-elem-13"></rect>
<line y1="457" x2="1177" y2="457" stroke="#55287D" stroke-width="2" class="svg-elem-14"></line>
</svg>
