<svg width="48" height="46" viewBox="0 0 48 46" fill="none" xmlns="http://www.w3.org/2000/svg">
<path d="M23.9997 35.5885C23.4937 35.5885 23.083 35.1779 23.083 34.6719V5.33854C23.083 4.83254 23.4937 4.42188 23.9997 4.42188C24.5057 4.42188 24.9163 4.83254 24.9163 5.33854V34.6719C24.9163 35.1779 24.5057 35.5885 23.9997 35.5885Z" fill="url(#paint0_linear_52_2097)"/>
<path d="M24.0005 35.5891C23.7658 35.5891 23.5311 35.4993 23.3515 35.3214L16.0181 27.9881C15.6606 27.6306 15.6606 27.0495 16.0181 26.692C16.3756 26.3345 16.9568 26.3345 17.3143 26.692L24.0005 33.3763L30.6848 26.692C31.0423 26.3345 31.6235 26.3345 31.981 26.692C32.3385 27.0495 32.3385 27.6306 31.981 27.9881L24.6476 35.3214C24.4698 35.4993 24.2351 35.5891 24.0005 35.5891V35.5891Z" fill="url(#paint1_linear_52_2097)"/>
<path d="M6.58333 44.5475H41.4167C44.083 44.5475 46.25 42.3785 46.25 39.7142V30.5475C46.25 29.9035 45.7274 29.3809 45.0833 29.3809C44.4393 29.3809 43.9167 29.9035 43.9167 30.5475V39.7142C43.9167 41.0923 42.7948 42.2142 41.4167 42.2142H6.58333C5.20524 42.2142 4.08333 41.0923 4.08333 39.7142V30.5475C4.08333 29.9035 3.56074 29.3809 2.91667 29.3809C2.2726 29.3809 1.75 29.9035 1.75 30.5475V39.7142C1.75 42.3785 3.91703 44.5475 6.58333 44.5475Z" fill="url(#paint2_linear_52_2097)" stroke="white" stroke-width="0.5"/>
<defs>
<linearGradient id="paint0_linear_52_2097" x1="23.083" y1="20.0052" x2="24.9163" y2="20.0052" gradientUnits="userSpaceOnUse">
<stop stop-color="white"/>
<stop offset="1" stop-color="white"/>
</linearGradient>
<linearGradient id="paint1_linear_52_2097" x1="15.75" y1="31.0065" x2="32.2491" y2="31.0065" gradientUnits="userSpaceOnUse">
<stop stop-color="white"/>
<stop offset="1" stop-color="white"/>
</linearGradient>
<linearGradient id="paint2_linear_52_2097" x1="2" y1="36.9642" x2="46" y2="36.9642" gradientUnits="userSpaceOnUse">
<stop stop-color="white"/>
<stop offset="1" stop-color="white"/>
</linearGradient>
</defs>
</svg>
