<svg width="44" height="49" viewBox="0 0 44 49" fill="none" xmlns="http://www.w3.org/2000/svg">
<path d="M40.1767 43.064L40.3044 43.2789C39.9676 43.479 32.2135 48.0168 22.0001 48.0168C12.5691 48.0168 4.09315 43.4945 3.73223 43.2995C3.73223 43.2995 3.73223 43.2995 3.73222 43.2995L3.85107 43.0796L40.1767 43.064ZM40.1767 43.064L40.3044 43.2789C40.4558 43.1889 40.5814 43.0615 40.6687 42.9087C40.756 42.756 40.802 42.5833 40.802 42.4074C40.802 36.1759 38.8728 30.4591 35.3537 26.3166C33.0401 23.5931 30.169 21.6806 26.9963 20.7034M40.1767 43.064L26.9963 20.7034M26.9963 20.7034C28.843 19.6885 30.3354 18.1324 31.2632 16.2409C32.2849 14.158 32.5611 11.7925 32.046 9.53335C31.531 7.27421 30.2555 5.25626 28.4298 3.81076C26.6041 2.3653 24.3367 1.57812 22.0001 1.57812C19.6635 1.57812 17.3961 2.3653 15.5705 3.81076C13.7447 5.25626 12.4693 7.27421 11.9542 9.53335C11.4392 11.7925 11.7153 14.158 12.7371 16.2409C13.6649 18.1324 15.1573 19.6885 17.0039 20.7034C13.8313 21.6806 10.9602 23.5934 8.64656 26.3166L8.83708 26.4784L26.9963 20.7034ZM13.7472 11.7822C13.7472 10.1666 14.2309 8.58704 15.1374 7.24332C16.044 5.89949 17.3328 4.85174 18.8411 4.23294C20.3494 3.61413 22.0093 3.45218 23.6106 3.76768C25.212 4.08317 26.6827 4.86186 27.8367 6.0049C28.9907 7.14792 29.7763 8.60391 30.0946 10.1886C30.4128 11.7734 30.2495 13.416 29.6252 14.9089C29.0008 16.4018 27.9434 17.6783 26.5861 18.5765C25.229 19.4747 23.6331 19.9543 22.0004 19.9543C19.8115 19.9519 17.7135 19.0895 16.1664 17.5572C14.6194 16.025 13.7497 13.948 13.7472 11.7822ZM10.2105 27.6261C13.3051 23.9842 17.4912 21.9856 22.0001 21.9856C26.5091 21.9856 30.6952 23.9842 33.7898 27.6261C36.8758 31.2586 38.6322 36.2747 38.7498 41.812C36.8973 42.7882 30.201 45.9856 22.0001 45.9856C14.4155 45.9856 7.2485 42.7653 5.25111 41.7887C5.37337 36.2605 7.12881 31.2535 10.2105 27.6261Z" fill="url(#paint0_linear_52_2114)" stroke="white" stroke-width="0.5"/>
<defs>
<linearGradient id="paint0_linear_52_2114" x1="3.44824" y1="24.7975" x2="40.552" y2="24.7975" gradientUnits="userSpaceOnUse">
<stop stop-color="white"/>
<stop offset="1" stop-color="white"/>
</linearGradient>
</defs>
</svg>
