<svg width="32" height="35" viewBox="0 0 32 35" fill="none" xmlns="http://www.w3.org/2000/svg">
<path fill-rule="evenodd" clip-rule="evenodd" d="M15.9992 0.850098C16.4501 0.850098 16.8825 1.04501 17.2013 1.39195C17.5201 1.73889 17.6992 2.20945 17.6992 2.7001V17.5001C17.6992 17.9907 17.5201 18.4613 17.2013 18.8082C16.8825 19.1552 16.4501 19.3501 15.9992 19.3501H2.39922C1.94835 19.3501 1.51595 19.1552 1.19714 18.8082C0.878326 18.4613 0.699219 17.9907 0.699219 17.5001C0.699219 17.0094 0.878326 16.5389 1.19714 16.192C1.51595 15.845 1.94835 15.6501 2.39922 15.6501H14.2992V2.7001C14.2992 2.20945 14.4783 1.73889 14.7971 1.39195C15.116 1.04501 15.5484 0.850098 15.9992 0.850098Z" fill="#55287D"/>
<path fill-rule="evenodd" clip-rule="evenodd" d="M14.2988 17.4999C14.2988 17.0093 14.4779 16.5387 14.7967 16.1918C15.1156 15.8448 15.548 15.6499 15.9988 15.6499H29.5988C30.0497 15.6499 30.4821 15.8448 30.8009 16.1918C31.1197 16.5387 31.2988 17.0093 31.2988 17.4999C31.2988 17.9906 31.1197 18.4611 30.8009 18.8081C30.4821 19.155 30.0497 19.3499 29.5988 19.3499H17.6988V32.2999C17.6988 32.7906 17.5197 33.2611 17.2009 33.6081C16.8821 33.955 16.4497 34.1499 15.9988 34.1499C15.548 34.1499 15.1156 33.955 14.7967 33.6081C14.4779 33.2611 14.2988 32.7906 14.2988 32.2999V17.4999Z" fill="#55287D"/>
</svg>
