<svg width="52" height="52" viewBox="0 0 52 52" fill="none" xmlns="http://www.w3.org/2000/svg">
<circle cx="26" cy="26" r="26" fill="#55287D"/>
<path d="M14.4123 15.4395H37.7323C39.9323 15.4395 41.0411 16.4779 41.0411 18.5899V33.4091C41.0411 35.5035 39.9323 36.5595 37.7323 36.5595H14.4123C12.2123 36.5595 11.1035 35.5035 11.1035 33.4091V18.5899C11.1035 16.4779 12.2123 15.4395 14.4123 15.4395ZM26.0635 30.5755L37.9259 20.8427C38.3483 20.4907 38.6827 19.6811 38.1547 18.9595C37.6443 18.2379 36.7115 18.2203 36.0955 18.6603L26.0635 25.4539L16.0491 18.6603C15.4331 18.2203 14.5003 18.2379 13.9899 18.9595C13.4619 19.6811 13.7963 20.4907 14.2187 20.8427L26.0635 30.5755Z" fill="white"/>
</svg>
