<svg width="52" height="51" viewBox="0 0 52 51" fill="none" xmlns="http://www.w3.org/2000/svg">
<path d="M41.7988 16.3468C41.8155 16.0645 41.8246 15.778 41.8246 15.4814C41.834 9.24299 37.7594 3.73335 31.7917 1.9153C24.3111 -0.363772 16.3992 3.85287 14.1202 11.3335C13.9094 11.3227 13.7062 11.3168 13.5055 11.3168C6.60538 11.3168 1.01172 16.9105 1.01172 23.8106C1.01172 30.7107 6.60538 36.3044 13.5055 36.3044H21.0109C21.4709 36.3044 21.8438 35.9314 21.8438 35.4714C21.8438 35.0115 21.4709 34.6385 21.0109 34.6385H13.5055C7.52534 34.6385 2.67755 29.7907 2.67755 23.8106C2.67755 17.8305 7.52534 12.9827 13.5055 12.9827C13.8894 12.9837 14.2731 13.0046 14.6549 13.0451C15.0641 13.0794 15.4393 12.8161 15.5461 12.4196C16.9414 6.85231 21.9502 2.95176 27.6897 2.96311C34.5898 2.97664 40.1725 8.58134 40.1588 15.4814C40.161 16.001 40.1273 16.52 40.058 17.0348C40.0529 17.0721 40.0504 17.1098 40.0504 17.1474C40.0505 17.6073 40.4235 17.9802 40.8834 17.9802H40.9917C45.5918 17.9802 49.3209 21.7093 49.3209 26.3094C49.3209 30.9094 45.5918 34.6385 40.9917 34.6385H31.0525C30.5926 34.6385 30.2196 35.0115 30.2196 35.4714C30.2196 35.9314 30.5926 36.3044 31.0525 36.3044H40.9917C46.2004 36.3054 50.5366 32.3062 50.9562 27.1145C51.4009 21.6124 47.301 16.7915 41.7988 16.3468Z" fill="url(#paint0_linear_1781_829)"/>
<path fill-rule="evenodd" clip-rule="evenodd" d="M14.6545 13.0454C14.2727 13.0049 13.8891 12.9839 13.5051 12.9829C7.52495 12.9829 2.67716 17.8307 2.67716 23.8108C2.67716 29.7909 7.52495 34.6387 13.5051 34.6387H21.0105C21.4705 34.6387 21.8434 35.0117 21.8434 35.4716C21.8434 35.9316 21.4705 36.3046 21.0105 36.3046H13.5051C6.60499 36.3046 1.01133 30.7109 1.01133 23.8108C1.01133 16.9107 6.60499 11.317 13.5051 11.317C13.7058 11.317 13.909 11.3229 14.1198 11.3337C16.3988 3.85307 24.3107 -0.363568 31.7914 1.9155C37.759 3.73355 41.8336 9.24319 41.8243 15.4816C41.8243 15.7782 41.8151 16.0647 41.7984 16.347C47.3006 16.7917 51.4005 21.6126 50.9558 27.1147C50.5363 32.3065 46.2 36.3056 40.9913 36.3046H31.0521C30.5922 36.3046 30.2192 35.9316 30.2192 35.4716C30.2192 35.0117 30.5922 34.6387 31.0521 34.6387H40.9913C45.5914 34.6387 49.3205 30.9097 49.3205 26.3096C49.3205 21.7095 45.5914 17.9804 40.9913 17.9804H40.8831C40.4231 17.9804 40.0501 17.6076 40.05 17.1476C40.05 17.11 40.0525 17.0723 40.0576 17.035C40.1269 16.5202 40.1606 16.0012 40.1584 15.4816C40.1721 8.58154 34.5894 2.97685 27.6893 2.96331C21.9498 2.95196 16.941 6.85251 15.5457 12.4198C15.4389 12.8163 15.0637 13.0796 14.6545 13.0454ZM40.9913 36.7046H31.0521C30.3713 36.7046 29.8192 36.1525 29.8192 35.4716C29.8192 34.7907 30.3713 34.2387 31.0521 34.2387H40.9913C45.3705 34.2387 48.9205 30.6887 48.9205 26.3096C48.9205 21.9304 45.3705 18.3804 40.9913 18.3804H40.8831C40.2022 18.3804 39.6502 17.8285 39.65 17.1477V17.1476C39.65 17.0924 39.6537 17.0367 39.6613 16.9811C39.6613 16.981 39.6613 16.9809 39.6613 16.9808L40.0574 17.035L39.6612 16.9817C39.6612 16.9815 39.6613 16.9813 39.6613 16.9811C39.728 16.4846 39.7605 15.9842 39.7584 15.4833L39.7584 15.4808C39.7716 8.80167 34.3677 3.37641 27.6886 3.36331C22.1328 3.35232 17.2843 7.12799 15.9337 12.5171L15.932 12.5239L15.932 12.5239C15.7748 13.1071 15.2229 13.4943 14.6211 13.444L14.6123 13.4432L14.6123 13.4431C14.2442 13.4041 13.8744 13.3839 13.5044 13.3829C7.74547 13.3833 3.07716 18.0518 3.07716 23.8108C3.07716 29.57 7.74586 34.2387 13.5051 34.2387H21.0105C21.6914 34.2387 22.2434 34.7907 22.2434 35.4716C22.2434 36.1525 21.6914 36.7046 21.0105 36.7046H13.5051C6.38408 36.7046 0.611328 30.9318 0.611328 23.8108C0.611328 16.6898 6.38408 10.9171 13.5051 10.9171C13.6129 10.9171 13.7211 10.9187 13.8305 10.9218C16.29 3.41466 24.315 -0.78042 31.9079 1.53286C38.0442 3.40227 42.2339 9.06756 42.2243 15.4822C42.2243 15.482 42.2243 15.4818 42.2243 15.4816M42.2156 15.9865C42.2213 15.8211 42.2243 15.6533 42.2243 15.4822ZM42.2156 15.9865C47.743 16.6374 51.8066 21.5537 51.3545 27.1469C50.9182 32.5464 46.4084 36.7056 40.9913 36.7046C40.9913 36.7046 40.9913 36.7046 40.9913 36.7046" fill="white"/>
<path d="M36.0113 26.8144L25.9988 16.8027L15.9863 26.8144L17.1649 27.993L25.1659 19.9911V51.2972H26.8317V19.9911L34.8327 27.993L36.0113 26.8144Z" fill="url(#paint1_linear_1781_829)"/>
<defs>
<linearGradient id="paint0_linear_1781_829" x1="1.01172" y1="18.8006" x2="50.9892" y2="18.8006" gradientUnits="userSpaceOnUse">
<stop stop-color="white"/>
<stop offset="1" stop-color="white"/>
</linearGradient>
<linearGradient id="paint1_linear_1781_829" x1="15.9863" y1="34.0499" x2="36.0113" y2="34.0499" gradientUnits="userSpaceOnUse">
<stop stop-color="white"/>
<stop offset="1" stop-color="white"/>
</linearGradient>
</defs>
</svg>
