<svg width="55" height="53" viewBox="0 0 55 53" fill="none" xmlns="http://www.w3.org/2000/svg">
<g clip-path="url(#clip0_52_2106)">
<path d="M16.5461 14.4196C16.4393 14.8161 16.0641 15.0794 15.6549 15.0451C15.2731 15.0046 14.8894 14.9837 14.5055 14.9827L14.5049 15.1827C14.505 15.1827 14.5052 15.1827 14.5053 15.1827M16.5461 14.4196L42.8246 17.4814M16.5461 14.4196C17.9414 8.85231 22.9502 4.95176 28.6897 4.96311M16.5461 14.4196L28.6897 4.96311M14.5053 15.1827C8.63569 15.1828 3.87755 19.941 3.87755 25.8106C3.87755 31.6803 8.63579 36.4385 14.5055 36.4385H22.0109C22.5813 36.4385 23.0438 36.901 23.0438 37.4714C23.0438 38.0419 22.5813 38.5044 22.0109 38.5044H14.5055C7.49492 38.5044 1.81172 32.8211 1.81172 25.8106C1.81172 18.8001 7.49492 13.1168 14.5055 13.1168C14.6601 13.1168 14.8159 13.1202 14.975 13.1266C17.3452 5.63321 25.3134 1.42785 32.85 3.72398C38.902 5.56771 43.0341 11.1552 43.0246 17.4817M14.5053 15.1827C14.8822 15.1837 15.2589 15.2043 15.6338 15.244L15.6338 15.2441L15.6382 15.2445C16.1437 15.2868 16.6073 14.9615 16.7392 14.4717L16.7393 14.4717L16.7401 14.4682C18.113 8.99005 23.0417 5.15194 28.6893 5.16311C35.479 5.17642 40.9722 10.6914 40.9588 17.481L40.9588 17.4823C40.961 17.9925 40.9278 18.5023 40.8598 19.0079M14.5053 15.1827L40.8598 19.0079M43.0246 17.4817L42.8246 17.4814M43.0246 17.4817C43.0246 17.4816 43.0246 17.4815 43.0246 17.4814H42.8246M43.0246 17.4817C43.0246 17.7147 43.0191 17.9416 43.0087 18.165M42.8246 17.4814C42.8246 17.778 42.8155 18.0645 42.7988 18.3468M43.0087 18.165C42.9443 18.1585 42.8797 18.1527 42.8149 18.1475L42.7988 18.3468M43.0087 18.165C48.5231 18.7147 52.6039 23.5832 52.1556 29.1306C51.7276 34.4262 47.3046 38.5054 41.9917 38.5044H32.0525C31.4821 38.5044 31.0196 38.0419 31.0196 37.4714C31.0196 36.901 31.4821 36.4385 32.0525 36.4385H41.9917C46.4814 36.4385 50.1209 32.799 50.1209 28.3094C50.1209 23.8197 46.4814 20.1802 41.9917 20.1802H41.8834C41.313 20.1802 40.8506 19.7178 40.8504 19.1474C40.8504 19.101 40.8535 19.0544 40.8598 19.0079M43.0087 18.165C43.0057 18.2298 43.0023 18.2943 42.9985 18.3586L42.7988 18.3468M42.7988 18.3468L40.8598 19.0079M40.8598 19.0079C40.8599 19.0078 40.8599 19.0078 40.8599 19.0077L41.058 19.0348L40.8598 19.0082C40.8598 19.0081 40.8598 19.008 40.8598 19.0079ZM28.6897 4.96311C35.5898 4.97664 41.1725 10.5813 41.1588 17.4814L28.6897 4.96311Z" fill="url(#paint0_linear_52_2106)" stroke="white" stroke-width="0.4"/>
<path d="M37.0113 28.8139L26.9988 18.8022L16.9863 28.8139L18.1649 29.9925L26.1659 21.9907V53.2967H27.8317V21.9907L35.8327 29.9925L37.0113 28.8139Z" fill="url(#paint1_linear_52_2106)"/>
</g>
<defs>
<linearGradient id="paint0_linear_52_2106" x1="2.01172" y1="20.8006" x2="51.9892" y2="20.8006" gradientUnits="userSpaceOnUse">
<stop stop-color="white"/>
<stop offset="1" stop-color="white"/>
</linearGradient>
<linearGradient id="paint1_linear_52_2106" x1="16.9863" y1="36.0495" x2="37.0113" y2="36.0495" gradientUnits="userSpaceOnUse">
<stop stop-color="white"/>
<stop offset="1" stop-color="white"/>
</linearGradient>
<clipPath id="clip0_52_2106">
<rect width="55" height="53" fill="white"/>
</clipPath>
</defs>
</svg>
