<svg width="52" height="52" viewBox="0 0 52 52" fill="none" xmlns="http://www.w3.org/2000/svg">
<g clip-path="url(#clip0_52_2040)">
<g filter="url(#filter0_f_52_2040)">
<path d="M0.291016 51.777L3.91501 38.6055C1.68674 34.7513 0.499097 30.3731 0.511349 25.8973C0.511349 11.8718 11.9712 0.46875 26.0515 0.46875C32.8833 0.46875 39.299 3.1153 44.1108 7.92043C48.9347 12.7255 51.5916 19.1162 51.5793 25.9095C51.5793 39.9347 40.1192 51.338 26.0392 51.338H26.027C21.754 51.338 17.5544 50.2649 13.8201 48.2401L0.291016 51.777ZM14.4568 43.6301L15.2281 44.0936C18.4849 46.0205 22.2192 47.0327 26.027 47.0449H26.0392C37.7319 47.0449 47.2572 37.5687 47.2572 25.9095C47.2572 20.2627 45.0534 14.9576 41.0498 10.9571C37.0462 6.95688 31.7079 4.76169 26.0392 4.76169C14.3343 4.76169 4.80881 14.2379 4.80881 25.8971C4.80881 29.8853 5.92294 33.7757 8.0534 37.1419L8.55533 37.9468L6.41283 45.74L14.4568 43.6301Z" fill="black" fill-opacity="0.24"/>
</g>
<path d="M1.44922 50.4181L4.90738 37.8555C2.77498 34.1708 1.65324 29.992 1.65477 25.7389C1.65477 12.3693 12.5857 1.49316 25.995 1.49316C32.5125 1.49316 38.6189 4.02251 43.2136 8.59932C47.8082 13.1763 50.3356 19.271 50.3356 25.7509C50.3356 39.1202 39.4047 49.9964 25.9952 49.9964H25.9832C21.9081 49.9964 17.9058 48.9727 14.3509 47.0456L1.44922 50.4183V50.4181Z" fill="url(#paint0_linear_52_2040)"/>
<path d="M0.566406 51.2973L4.1454 38.2892C1.94481 34.4832 0.771741 30.1591 0.783994 25.7389C0.783994 11.8877 12.1017 0.625977 26.0072 0.625977C32.7542 0.625977 39.09 3.23949 43.8422 7.98506C48.6061 12.7306 51.2301 19.042 51.218 25.7509C51.218 39.6021 39.9003 50.8638 25.9948 50.8638H25.983C21.7711 50.8621 17.6267 49.8104 13.9275 47.8044L0.566406 51.2975V51.2973ZM14.5562 43.2515L15.318 43.7092C18.5345 45.6123 22.2223 46.6121 25.983 46.6241H25.995C37.5423 46.6241 46.9497 37.2655 46.9497 25.7509C46.9497 20.1743 44.7732 14.9349 40.8193 10.9843C36.8653 7.03372 31.5933 4.86568 25.995 4.86568C14.4354 4.86568 5.02822 14.2243 5.02822 25.7389C5.02822 29.6775 6.12841 33.5197 8.23246 36.8438L8.72826 37.6388L6.61217 45.3352L14.5562 43.2515Z" fill="#55287D"/>
<path d="M19.6949 15.2231C19.2232 14.1751 18.7274 14.1509 18.2802 14.1389C17.9174 14.127 17.4943 14.127 17.071 14.127C16.6478 14.127 15.9706 14.2835 15.3903 14.9097C14.8097 15.5362 13.1895 17.0538 13.1895 20.1494C13.1895 23.2326 15.4507 26.2196 15.765 26.6411C16.0794 27.0628 20.1301 33.6029 26.5265 36.1203C31.8468 38.2161 32.9352 37.7944 34.0838 37.6861C35.2446 37.5777 37.8081 36.1685 38.34 34.699C38.8599 33.2296 38.8599 31.9769 38.7028 31.712C38.5456 31.4469 38.1224 31.2905 37.4936 30.9772C36.8649 30.6641 33.7694 29.1465 33.1891 28.9297C32.6086 28.713 32.1855 28.6166 31.7744 29.2428C31.351 29.8691 30.1421 31.2783 29.7791 31.7C29.4164 32.1215 29.0417 32.1697 28.4128 31.8566C27.7841 31.5435 25.7527 30.8808 23.3466 28.737C21.4724 27.0748 20.2027 25.0151 19.8398 24.3889C19.4771 23.7627 19.8037 23.4251 20.118 23.1122C20.396 22.8351 20.7467 22.3774 21.0613 22.0161C21.3756 21.6548 21.4844 21.3899 21.6899 20.9682C21.8955 20.5467 21.7987 20.1854 21.6416 19.8723C21.4844 19.5589 20.2511 16.4635 19.6949 15.2231Z" fill="#55287D"/>
</g>
<defs>
<filter id="filter0_f_52_2040" x="-5.70898" y="-5.53125" width="63.2891" height="63.3086" filterUnits="userSpaceOnUse" color-interpolation-filters="sRGB">
<feFlood flood-opacity="0" result="BackgroundImageFix"/>
<feBlend mode="normal" in="SourceGraphic" in2="BackgroundImageFix" result="shape"/>
<feGaussianBlur stdDeviation="3" result="effect1_foregroundBlur_52_2040"/>
</filter>
<linearGradient id="paint0_linear_52_2040" x1="25.8915" y1="50.4149" x2="25.8915" y2="1.49023" gradientUnits="userSpaceOnUse">
<stop stop-color="#20B038"/>
<stop offset="1" stop-color="#60D66A"/>
</linearGradient>
<clipPath id="clip0_52_2040">
<rect width="52" height="52" fill="white"/>
</clipPath>
</defs>
</svg>
