<svg width="98" height="16" viewBox="0 0 98 16" fill="none" xmlns="http://www.w3.org/2000/svg">
<g clip-path="url(#clip0_59_1053)">
<path d="M-4.58061e-05 15.1148C-4.58137e-05 14.9403 0.0668563 14.7659 0.199928 14.6321L12.5372 2.29338C12.8009 2.02749 13.2373 2.02749 13.501 2.29338L24.8659 13.659L36.7297 1.79566C36.9934 1.53147 37.4272 1.53147 37.6933 1.79566L49.0108 13.1166L60.9313 1.19601C61.1977 0.93036 61.6297 0.93036 61.8951 1.19601L73.2605 12.5602L85.1236 0.696823C85.3893 0.431419 85.822 0.431419 86.0874 0.696823L97.8002 12.4101C98.0666 12.6758 98.0666 13.1085 97.8002 13.3737C97.5351 13.6393 97.1028 13.6393 96.8366 13.3737L85.6063 2.1428L73.7504 13.9994C73.4843 14.2645 73.0523 14.2645 72.7869 13.9994C72.7674 13.9799 72.7608 13.9568 72.7455 13.9369C72.7129 13.9135 72.6762 13.8996 72.6477 13.8709L61.4156 2.64028L49.5598 14.4964C49.3908 14.6657 49.1577 14.7148 48.9407 14.6703C48.7612 14.6742 48.5802 14.6095 48.4442 14.4737L37.2094 3.24285L25.3568 15.0994C25.0902 15.3634 24.6564 15.3634 24.3927 15.0994C24.3716 15.08 24.365 15.0581 24.3528 15.0376C24.321 15.0148 24.2838 15.0024 24.2543 14.9712L13.0249 3.74058L1.17104 15.5952C0.904671 15.8608 0.469467 15.8608 0.207222 15.5952C0.0646667 15.4655 -4.57985e-05 15.2892 -4.58061e-05 15.1148Z" fill="#55287D"/>
</g>
<defs>
<clipPath id="clip0_59_1053">
<rect width="16" height="98" fill="white" transform="matrix(-4.37114e-08 -1 -1 4.37114e-08 98 16)"/>
</clipPath>
</defs>
</svg>
