<svg width="34" height="34" viewBox="0 0 34 34" fill="none" xmlns="http://www.w3.org/2000/svg">
<path d="M29.1989 11.8491C29.1849 10.7933 28.9873 9.74809 28.6149 8.7601C28.292 7.92673 27.7988 7.16989 27.1668 6.53792C26.5349 5.90596 25.778 5.41276 24.9446 5.08986C23.9694 4.72375 22.939 4.52579 21.8975 4.5044C20.5565 4.44446 20.1314 4.42773 16.7274 4.42773C13.3234 4.42773 12.8871 4.42773 11.5559 4.5044C10.5148 4.52594 9.48495 4.7239 8.5101 5.08986C7.6766 5.41254 6.91964 5.90565 6.28765 6.53765C5.65565 7.16964 5.16254 7.9266 4.83986 8.7601C4.47301 9.73465 4.27548 10.7647 4.25579 11.8059C4.19586 13.1482 4.17773 13.5734 4.17773 16.9774C4.17773 20.3814 4.17773 20.8163 4.25579 22.1489C4.2767 23.1916 4.47325 24.2203 4.83986 25.1974C5.16308 26.0307 5.65656 26.7873 6.28877 27.4191C6.92097 28.0508 7.678 28.5437 8.51149 28.8663C9.48367 29.2471 10.5137 29.4592 11.5573 29.4936C12.8996 29.5535 13.3248 29.5716 16.7288 29.5716C20.1328 29.5716 20.5691 29.5716 21.9003 29.4936C22.9418 29.473 23.9722 29.2755 24.9474 28.9095C25.7806 28.5862 26.5372 28.0929 27.1691 27.461C27.8011 26.8291 28.2944 26.0724 28.6177 25.2393C28.9843 24.2635 29.1808 23.2348 29.2017 22.1907C29.2617 20.8497 29.2798 20.4246 29.2798 17.0192C29.277 13.6152 29.277 13.1831 29.1989 11.8491ZM16.719 23.4146C13.1589 23.4146 10.2748 20.5305 10.2748 16.9704C10.2748 13.4103 13.1589 10.5262 16.719 10.5262C18.4281 10.5262 20.0672 11.2052 21.2757 12.4137C22.4843 13.6222 23.1632 15.2613 23.1632 16.9704C23.1632 18.6795 22.4843 20.3186 21.2757 21.5271C20.0672 22.7356 18.4281 23.4146 16.719 23.4146ZM23.4197 11.7905C22.5875 11.7905 21.917 11.1186 21.917 10.2879C21.917 10.0906 21.9559 9.8953 22.0313 9.71308C22.1068 9.53085 22.2175 9.36527 22.3569 9.2258C22.4964 9.08633 22.662 8.9757 22.8442 8.90022C23.0264 8.82474 23.2217 8.78589 23.419 8.78589C23.6162 8.78589 23.8115 8.82474 23.9938 8.90022C24.176 8.9757 24.3416 9.08633 24.481 9.2258C24.6205 9.36527 24.7311 9.53085 24.8066 9.71308C24.8821 9.8953 24.9209 10.0906 24.9209 10.2879C24.9209 11.1186 24.2491 11.7905 23.4197 11.7905Z" fill="white"/>
<path d="M16.7192 21.1562C19.0311 21.1562 20.9052 19.282 20.9052 16.9702C20.9052 14.6583 19.0311 12.7842 16.7192 12.7842C14.4073 12.7842 12.5332 14.6583 12.5332 16.9702C12.5332 19.282 14.4073 21.1562 16.7192 21.1562Z" fill="white"/>
</svg>
