<svg width="81" height="72" viewBox="0 0 81 72" fill="none" xmlns="http://www.w3.org/2000/svg">
<path d="M23.3622 53.562L23.6713 53.8055L23.9806 53.5623L62.1862 23.524L62.6857 23.1313L62.1866 22.7382L51.7955 14.5537L51.4864 14.3103L51.1771 14.5535L12.9715 44.5916L12.472 44.9843L12.9711 45.3775L23.3622 53.562ZM73.5291 14.5356L74.0238 14.1424L73.5274 13.7514L63.1363 5.56683L62.8255 5.32203L62.5158 5.5682L54.9583 11.5753L54.4636 11.9685L54.96 12.3595L65.3511 20.5439L65.6619 20.7887L65.9716 20.5426L73.5291 14.5356ZM5.59375 58.8393V59.3393L6.09374 59.3393L13.3538 59.3394C15.4864 59.3395 17.5569 58.622 19.2322 57.3025L20.1977 56.542L20.6963 56.1492L20.1977 55.7564L9.80659 47.5718L9.4972 47.3282L9.18782 47.5718C6.91834 49.3594 5.59375 52.0889 5.59375 54.9778V58.8393ZM75.4883 10.6091C77.7757 12.4108 77.7758 15.8776 75.4883 17.6793L22.2029 59.6493C19.8223 61.5244 16.88 62.544 13.8496 62.544H1.23145V55.7034C1.23145 51.5664 3.12828 47.6578 6.3782 45.098L60.0425 2.82959C61.6759 1.54308 63.978 1.54308 65.6114 2.82959L75.4883 10.6091Z" fill="url(#paint0_linear_59_878)" stroke="white"/>
<path d="M1.0332 70.3931C1.0332 69.8408 1.48092 69.3931 2.0332 69.3931H79.4818C80.034 69.3931 80.4818 69.8408 80.4818 70.3931V70.7859C80.4818 71.3382 80.034 71.7859 79.4818 71.7859H2.0332C1.48092 71.7859 1.0332 71.3382 1.0332 70.7859V70.3931Z" fill="url(#paint1_linear_59_878)"/>
<path d="M37.2383 61.6191C37.2383 61.0669 37.686 60.6191 38.2383 60.6191H79.4824C80.0347 60.6191 80.4824 61.0669 80.4824 61.6191V62.012C80.4824 62.5643 80.0347 63.012 79.4824 63.012H38.2383C37.686 63.012 37.2383 62.5643 37.2383 62.012V61.6191Z" fill="url(#paint2_linear_59_878)"/>
<path d="M63.6924 3.98828L76.5407 14.1785L66.5123 22.1322L53.664 11.9419L63.6924 3.98828Z" fill="#55287D"/>
<defs>
<linearGradient id="paint0_linear_59_878" x1="40.758" y1="0" x2="40.758" y2="63.044" gradientUnits="userSpaceOnUse">
<stop offset="0.296875" stop-color="#55287D"/>
<stop offset="1" stop-color="#CD2288"/>
</linearGradient>
<linearGradient id="paint1_linear_59_878" x1="40.7575" y1="69.3931" x2="40.7575" y2="71.7859" gradientUnits="userSpaceOnUse">
<stop stop-color="#55287D"/>
<stop offset="0.0001" stop-color="#CD2288"/>
</linearGradient>
<linearGradient id="paint2_linear_59_878" x1="58.8603" y1="60.6191" x2="58.8603" y2="63.012" gradientUnits="userSpaceOnUse">
<stop stop-color="#55287D"/>
<stop offset="0.0001" stop-color="#CD2288"/>
</linearGradient>
</defs>
</svg>
