<svg width="26" height="25" viewBox="0 0 26 25" fill="none" xmlns="http://www.w3.org/2000/svg">
<path d="M10.9922 14.9062C12.4998 16.4356 14.324 17.6164 16.3366 18.3657L19.0594 16.199C19.1401 16.1434 19.2358 16.1137 19.3338 16.1137C19.4319 16.1137 19.5276 16.1434 19.6083 16.199L24.6639 19.4562C24.8558 19.5716 25.0183 19.7301 25.1384 19.919C25.2586 20.108 25.3332 20.3223 25.3563 20.5451C25.3794 20.7678 25.3504 20.9929 25.2716 21.2025C25.1928 21.4121 25.0663 21.6006 24.9022 21.7529L22.5333 24.0929C22.194 24.4281 21.7771 24.6741 21.3196 24.8089C20.8622 24.9438 20.3784 24.9633 19.9116 24.8657C15.2549 23.9039 10.9627 21.6514 7.52551 18.3657C4.16464 15.0472 1.83893 10.8248 0.830511 6.21068C0.730892 5.75109 0.751684 5.27355 0.890872 4.82436C1.03006 4.37516 1.28292 3.96953 1.62496 3.64679L4.08051 1.2779C4.23247 1.12175 4.41778 1.00199 4.62257 0.927607C4.82737 0.85322 5.04634 0.826128 5.26309 0.848358C5.47984 0.870589 5.68875 0.941567 5.87418 1.05598C6.05961 1.17039 6.21675 1.32526 6.33385 1.50901L9.6994 6.49957C9.75745 6.57793 9.78879 6.67288 9.78879 6.7704C9.78879 6.86793 9.75745 6.96287 9.6994 7.04124L7.48218 9.70624C8.25177 11.6786 9.45076 13.4549 10.9922 14.9062Z" fill="white"/>
</svg>
