<svg width="106" height="82" viewBox="0 0 106 82" fill="none" xmlns="http://www.w3.org/2000/svg">
<path d="M101.473 29.0268H101.973V28.5268V6.11293C101.973 4.70761 100.819 3.57529 99.4108 3.57529H6.1874C4.77977 3.57529 3.62493 4.70751 3.62493 6.11273V28.5268V29.0268H4.12493H101.473ZM22.3615 32.6019V32.1019H21.8615H13.611H13.111V32.6019V77.4304V77.9304H13.611H25.9864H26.4864V77.4304V57.0536V56.5536H25.9864H23.924C23.0553 56.5536 22.3615 55.8595 22.3615 55.016V32.6019ZM30.1114 56.5534H29.6114V57.0534V77.4304V77.9304H30.1114H42.4868H42.9868V77.4304V57.0534V56.5534H42.4868H40.4243C39.5556 56.5534 38.8619 55.8593 38.8619 55.0158V32.6019V32.1019H38.3619H34.2363H33.7363V32.6019V55.0158C33.7363 55.8593 33.0425 56.5534 32.1738 56.5534H30.1114ZM46.6117 56.5534H46.1117V57.0534V77.4304V77.9304H46.6117H58.9869H59.4869V77.4304V32.6019V32.1019H58.9869H50.7366H50.2366V32.6019V55.0158C50.2366 55.8593 49.5429 56.5534 48.6742 56.5534H46.6117ZM63.1116 32.1019H62.6116V32.6019V77.4304V77.9304H63.1116H75.487H75.987V77.4304V57.0534V56.5534H75.487H73.4246C72.5561 56.5534 71.8621 55.8593 71.8621 55.0158V32.6019V32.1019H71.3621H63.1116ZM79.612 56.5534H79.112V57.0534V77.4304V77.9304H79.612H91.9872H92.4872V77.4304V32.6019V32.1019H91.9872H83.7369H83.2369V32.6019V55.0158C83.2369 55.8593 82.543 56.5534 81.6744 56.5534H79.612ZM4.12493 32.1019H3.62493V32.6019V75.3928C3.62493 76.7982 4.77974 77.9304 6.1874 77.9304H9.4861H9.9861V77.4304V32.6019V32.1019H9.4861H4.12493ZM95.6123 77.4304V77.9304H96.1123H99.411C100.819 77.9304 101.973 76.7981 101.973 75.3928V32.6019V32.1019H101.473H96.1123H95.6123V32.6019V77.4304ZM6.1874 0.5H99.4108C102.552 0.5 105.098 3.0239 105.098 6.11293V75.3928C105.098 78.4816 102.552 81.0057 99.4108 81.0057H6.1874C3.04608 81.0057 0.5 78.4816 0.5 75.3928V6.11293C0.5 3.02409 3.04608 0.5 6.1874 0.5Z" fill="url(#paint0_linear_59_862)" stroke="white"/>
<path d="M21.478 18.2586C22.5687 15.659 21.3198 12.6781 18.6885 11.6006C16.0573 10.5231 13.0401 11.7569 11.9494 14.3565C10.8588 16.9561 12.1077 19.937 14.7389 21.0145C17.3701 22.0921 20.3873 20.8582 21.478 18.2586Z" fill="url(#paint1_linear_59_862)"/>
<path d="M90.8877 20.9834C93.519 19.9058 94.7679 16.925 93.6772 14.3254C92.5866 11.7258 89.5694 10.4919 86.9381 11.5695C84.3069 12.647 83.058 15.6279 84.1486 18.2275C85.2393 20.827 88.2565 22.0609 90.8877 20.9834Z" fill="url(#paint2_linear_59_862)"/>
<path fill-rule="evenodd" clip-rule="evenodd" d="M30.1111 14.2633C31.2502 14.2633 32.1736 13.351 32.1736 12.2256C32.1736 11.1002 31.2502 10.188 30.1111 10.188H30.1097C28.9706 10.188 28.0479 11.1002 28.0479 12.2256C28.0479 13.351 28.972 14.2633 30.1111 14.2633Z" fill="url(#paint3_linear_59_862)"/>
<path fill-rule="evenodd" clip-rule="evenodd" d="M30.1111 22.4142C31.2502 22.4142 32.1736 21.5019 32.1736 20.3765C32.1736 19.2511 31.2502 18.3389 30.1111 18.3389H30.1097C28.9706 18.3389 28.0479 19.2511 28.0479 20.3765C28.0479 21.5019 28.972 22.4142 30.1111 22.4142Z" fill="url(#paint4_linear_59_862)"/>
<path fill-rule="evenodd" clip-rule="evenodd" d="M38.3611 14.2633C39.5002 14.2633 40.4236 13.351 40.4236 12.2256C40.4236 11.1002 39.5002 10.188 38.3611 10.188H38.3597C37.2206 10.188 36.2979 11.1002 36.2979 12.2256C36.2979 13.351 37.222 14.2633 38.3611 14.2633Z" fill="url(#paint5_linear_59_862)"/>
<path fill-rule="evenodd" clip-rule="evenodd" d="M38.3611 22.4142C39.5002 22.4142 40.4236 21.5019 40.4236 20.3765C40.4236 19.2511 39.5002 18.3389 38.3611 18.3389H38.3597C37.2206 18.3389 36.2979 19.2511 36.2979 20.3765C36.2979 21.5019 37.222 22.4142 38.3611 22.4142Z" fill="url(#paint6_linear_59_862)"/>
<path fill-rule="evenodd" clip-rule="evenodd" d="M46.6111 14.2633C47.7502 14.2633 48.6736 13.351 48.6736 12.2256C48.6736 11.1002 47.7502 10.188 46.6111 10.188H46.6095C45.4704 10.188 44.5479 11.1002 44.5479 12.2256C44.5479 13.351 45.472 14.2633 46.6111 14.2633Z" fill="url(#paint7_linear_59_862)"/>
<path fill-rule="evenodd" clip-rule="evenodd" d="M46.6111 22.4142C47.7502 22.4142 48.6736 21.5019 48.6736 20.3765C48.6736 19.2511 47.7502 18.3389 46.6111 18.3389H46.6095C45.4704 18.3389 44.5479 19.2511 44.5479 20.3765C44.5479 21.5019 45.472 22.4142 46.6111 22.4142Z" fill="url(#paint8_linear_59_862)"/>
<path fill-rule="evenodd" clip-rule="evenodd" d="M54.8611 14.2633C56 14.2633 56.9236 13.351 56.9236 12.2256C56.9236 11.1002 56 10.188 54.8611 10.188H54.8597C53.7208 10.188 52.7979 11.1002 52.7979 12.2256C52.7979 13.351 53.722 14.2633 54.8611 14.2633Z" fill="url(#paint9_linear_59_862)"/>
<path fill-rule="evenodd" clip-rule="evenodd" d="M54.8611 22.4142C56 22.4142 56.9236 21.5019 56.9236 20.3765C56.9236 19.2511 56 18.3389 54.8611 18.3389H54.8597C53.7208 18.3389 52.7979 19.2511 52.7979 20.3765C52.7979 21.5019 53.722 22.4142 54.8611 22.4142Z" fill="url(#paint10_linear_59_862)"/>
<path d="M73.0581 18.2527C74.1487 15.6532 72.8998 12.6723 70.2686 11.5947C67.6374 10.5172 64.6202 11.7511 63.5295 14.3507C62.4388 16.9502 63.6877 19.9311 66.319 21.0087C68.9502 22.0862 71.9674 20.8523 73.0581 18.2527Z" fill="url(#paint11_linear_59_862)"/>
<defs>
<linearGradient id="paint0_linear_59_862" x1="52.7991" y1="0" x2="52.7991" y2="81.5057" gradientUnits="userSpaceOnUse">
<stop offset="0.765625" stop-color="#55287D"/>
<stop offset="1" stop-color="#CD2288"/>
</linearGradient>
<linearGradient id="paint1_linear_59_862" x1="11.9494" y1="14.3565" x2="21.4439" y2="18.3399" gradientUnits="userSpaceOnUse">
<stop offset="0.9999" stop-color="#55287D"/>
<stop offset="1" stop-color="#CD2288"/>
</linearGradient>
<linearGradient id="paint2_linear_59_862" x1="86.9381" y1="11.5695" x2="90.8068" y2="21.0165" gradientUnits="userSpaceOnUse">
<stop offset="0.9999" stop-color="#55287D"/>
<stop offset="1" stop-color="#CD2288"/>
</linearGradient>
<linearGradient id="paint3_linear_59_862" x1="30.1107" y1="10.188" x2="30.1107" y2="14.2633" gradientUnits="userSpaceOnUse">
<stop offset="0.9999" stop-color="#55287D"/>
<stop offset="1" stop-color="#CD2288"/>
</linearGradient>
<linearGradient id="paint4_linear_59_862" x1="30.1107" y1="18.3389" x2="30.1107" y2="22.4142" gradientUnits="userSpaceOnUse">
<stop offset="0.9999" stop-color="#55287D"/>
<stop offset="1" stop-color="#CD2288"/>
</linearGradient>
<linearGradient id="paint5_linear_59_862" x1="38.3607" y1="10.188" x2="38.3607" y2="14.2633" gradientUnits="userSpaceOnUse">
<stop offset="0.9999" stop-color="#55287D"/>
<stop offset="1" stop-color="#CD2288"/>
</linearGradient>
<linearGradient id="paint6_linear_59_862" x1="38.3607" y1="18.3389" x2="38.3607" y2="22.4142" gradientUnits="userSpaceOnUse">
<stop offset="0.9999" stop-color="#55287D"/>
<stop offset="1" stop-color="#CD2288"/>
</linearGradient>
<linearGradient id="paint7_linear_59_862" x1="46.6107" y1="10.188" x2="46.6107" y2="14.2633" gradientUnits="userSpaceOnUse">
<stop offset="0.9999" stop-color="#55287D"/>
<stop offset="1" stop-color="#CD2288"/>
</linearGradient>
<linearGradient id="paint8_linear_59_862" x1="46.6107" y1="18.3389" x2="46.6107" y2="22.4142" gradientUnits="userSpaceOnUse">
<stop offset="0.9999" stop-color="#55287D"/>
<stop offset="1" stop-color="#CD2288"/>
</linearGradient>
<linearGradient id="paint9_linear_59_862" x1="54.8607" y1="10.188" x2="54.8607" y2="14.2633" gradientUnits="userSpaceOnUse">
<stop offset="0.9999" stop-color="#55287D"/>
<stop offset="1" stop-color="#CD2288"/>
</linearGradient>
<linearGradient id="paint10_linear_59_862" x1="54.8607" y1="18.3389" x2="54.8607" y2="22.4142" gradientUnits="userSpaceOnUse">
<stop offset="0.9999" stop-color="#55287D"/>
<stop offset="1" stop-color="#CD2288"/>
</linearGradient>
<linearGradient id="paint11_linear_59_862" x1="63.5295" y1="14.3507" x2="73.024" y2="18.3341" gradientUnits="userSpaceOnUse">
<stop offset="0.9999" stop-color="#55287D"/>
<stop offset="1" stop-color="#CD2288"/>
</linearGradient>
</defs>
</svg>
