<svg width="79" height="79" viewBox="0 0 79 79" fill="none" xmlns="http://www.w3.org/2000/svg">
<path d="M76.9906 37.8702L76.9894 37.8696L3.63528 1.19272C3.63524 1.1927 3.6352 1.19268 3.63515 1.19266C2.73557 0.743114 1.64171 1.10801 1.19212 2.00784L1.19206 2.00795C1.06567 2.26083 0.999893 2.53991 1 2.82299L1 2.82337L1 76.1775V76.1779C0.999573 77.1838 1.81447 77.9996 2.82043 78.0002L76.9906 37.8702ZM76.9906 37.8702C77.3447 38.0467 77.6317 38.3337 77.8083 38.6879C78.2569 39.5882 77.8909 40.6817 76.9905 41.1305L76.9894 41.1311M76.9906 37.8702L76.9894 41.1311M76.9894 41.1311L3.63547 77.8081C3.63542 77.8081 3.63537 77.8082 3.63532 77.8082M76.9894 41.1311L3.63532 77.8082M3.63532 77.8082C3.38252 77.9345 3.10355 78.0003 2.82058 78.0002L3.63532 77.8082ZM4.64257 71.6126V73.2306L6.08979 72.507L70.3143 40.3948L72.1031 39.5003L70.3143 38.6059L6.08979 6.49368L4.64257 5.77008V7.38811V71.6126Z" fill="#55287D" stroke="#55287D" stroke-width="2"/>
</svg>
