<svg width="80" height="80" viewBox="0 0 80 80" fill="none" xmlns="http://www.w3.org/2000/svg">
<path d="M56.6562 24.3438C57.3639 24.3438 57.9375 23.7701 57.9375 23.0625C57.9375 22.3549 57.3639 21.7812 56.6562 21.7812C55.9486 21.7812 55.375 22.3549 55.375 23.0625C55.375 23.7701 55.9486 24.3438 56.6562 24.3438Z" fill="url(#paint0_linear_59_922)"/>
<path d="M71.7602 57.9368L73.3554 56.5185L73.4028 56.5326L76.4522 53.4819C78.3228 51.6139 79.4016 49.1206 79.4952 46.3697C79.5643 44.3556 78.793 42.3889 77.3785 40.9744L77.1389 40.7335C77.0544 40.6489 76.9621 40.5733 76.8737 40.4926V17.9285C76.875 8.04241 68.8326 0 58.9465 0C50.1456 0 42.7092 6.30119 41.2614 14.9817L38.5669 31.1485C38.4811 31.6635 38.4375 32.1901 38.4375 32.7116V33.0422C38.4375 34.1799 38.663 35.2907 39.0538 36.3439L17.088 38.1403C16.2437 37.5278 15.2148 37.1562 14.0938 37.1562C11.2673 37.1562 8.96875 39.4548 8.96875 42.2812C8.96875 43.5689 9.46203 44.7336 10.25 45.6356V76.875H0V79.4375H43.5625H46.125H79.4375V78.1562C79.4375 72.939 77.0403 68.9774 74.9262 65.4808C73.2657 62.739 71.8371 60.3584 71.7602 57.9368ZM63.5923 61.7703C61.9267 63.2489 59.7831 64.0689 57.5576 64.0779C57.5461 64.0779 57.5358 64.0779 57.5243 64.0779C54.7324 64.0779 52.1341 62.8287 50.389 60.648L43.8469 52.471L48.4133 49.209L54.6838 57.5691L52.9067 59.3462L54.7183 61.1579L56.7504 59.1258C57.0438 58.8324 57.3667 58.5659 57.7113 58.3353L64.2816 53.9278L70.4367 55.687L63.5923 61.7703ZM46.9706 69.0222C42.9193 66.4828 40.0391 62.4315 39.0307 57.728L38.5656 55.5588C38.4811 55.1604 38.4375 54.7504 38.4375 54.3442C38.4375 53.1706 38.8078 52.0405 39.4574 51.086L48.3877 62.2495C48.9912 63.0029 49.6779 63.6615 50.4236 64.2329C49.5575 65.2912 48.2339 67.0107 46.9706 69.0222ZM18.901 40.5644L39.328 38.8936L37.4022 41.524L37.4087 41.5292L37.3305 41.6073L19.1367 43.0884C19.179 42.8245 19.2188 42.558 19.2188 42.2812C19.2188 41.6765 19.0945 41.1038 18.901 40.5644ZM44.3658 36.3529C44.9578 37.4381 45.8444 38.3247 46.9296 38.9154L44.74 40.5182C44.4261 40.5721 44.1134 40.6489 43.8098 40.7732C43.2307 40.2902 42.5234 40.0006 41.7854 39.8776L44.3658 36.3529ZM52.6376 19.5262L60.5134 20.1323C62.5032 20.2847 64.0625 21.9696 64.0625 23.9645V34.3862C64.0625 36.8411 64.4225 39.2729 65.1003 41.6304C65.0811 41.6573 65.0593 41.6816 65.0414 41.7085C64.6634 42.2761 64.3764 42.9014 64.1676 43.551C62.9683 43.5484 61.7806 42.9539 61.0977 41.9289L60.2188 40.6118V36.0698L57.8856 35.6815C57.2527 35.5752 56.6543 35.3727 56.0918 35.0934C56.2584 34.5246 56.375 33.9352 56.375 33.3125C56.375 30.6923 54.7901 28.4412 52.5312 27.4495V19.5083C52.5671 19.5122 52.6004 19.5237 52.6376 19.5262ZM56.671 55.9483L52.5863 50.5018C52.7913 48.717 53.6728 47.0578 55.0604 45.9008L58.6633 42.8988L58.9657 43.3511C60.0368 44.9591 61.7793 45.9559 63.6884 46.0981L62.8761 51.7868L56.671 55.9483ZM48.6593 41.7547C48.4735 41.5689 48.2724 41.4087 48.0635 41.2614L50.2032 39.6957C52.0969 39.6252 53.7664 38.7296 54.8952 37.3587C55.6998 37.7661 56.5569 38.0583 57.4641 38.2107L57.6562 38.2427V40.4004L53.4192 43.9315C52.152 44.9885 51.1911 46.3505 50.6094 47.8675L49.9688 47.0116V44.9168C49.9688 43.7239 49.5037 42.6003 48.6593 41.7547ZM53.8125 33.3125C53.8125 35.4317 52.0879 37.1562 49.9688 37.1562C47.8496 37.1562 46.125 35.4317 46.125 33.3125C46.125 31.1933 47.8496 29.4688 49.9688 29.4688C52.0879 29.4688 53.8125 31.1933 53.8125 33.3125ZM38.4375 44.8758C38.4375 44.3992 38.631 43.9328 38.9679 43.5958L39.7188 42.845C40.3927 42.1698 41.6035 42.1685 42.2812 42.8463L43.3088 43.8713L44.6388 43.2076C45.3742 42.8399 46.2634 42.9821 46.8451 43.5651C47.2013 43.9225 47.4062 44.4145 47.4062 44.9181V46.781L42.2441 50.4684L38.8347 46.207C38.5784 45.8854 38.4375 45.4844 38.4375 45.0731V44.8758ZM74.6418 51.6702L72.6584 53.6549L65.4885 51.6062L66.4174 45.1051C66.5187 44.403 66.7787 43.7201 67.1721 43.1294C68.0613 41.7957 69.5488 41 71.1504 41H71.595C72.9838 41 74.3445 41.5638 75.3272 42.5452L75.5668 42.7861C76.4817 43.7009 76.9813 44.9757 76.9314 46.3774C76.8647 48.3826 76.0512 50.2622 74.6418 51.6702ZM41 32.7116C41 32.3298 41.032 31.9454 41.0948 31.5687L43.7893 15.4019C45.0295 7.96297 51.4038 2.5625 58.9465 2.5625C67.4194 2.5625 74.3125 9.45563 74.3125 17.9285V38.9282C73.4528 38.6117 72.538 38.4375 71.595 38.4375H71.1504C69.7282 38.4375 68.3713 38.8565 67.2105 39.597C66.8262 37.8878 66.625 36.1441 66.625 34.3862V23.9645C66.625 20.6371 64.0266 17.8324 60.7095 17.5775L52.8336 16.9714C51.2269 16.8472 49.9688 15.489 49.9688 13.8772C49.9688 12.8368 50.4851 11.8733 51.3512 11.2955L53.2423 10.0347L51.8214 7.90275L49.9303 9.1635C48.3493 10.218 47.4062 11.9797 47.4062 13.8772C47.4062 15.8298 48.43 17.5634 49.9688 18.5845V26.9062C46.5171 26.9062 43.7124 29.6571 43.5856 33.0793L41.583 35.8148C41.2037 34.9422 41 34.0031 41 33.0422V32.7116ZM14.0938 39.7188C15.507 39.7188 16.6562 40.868 16.6562 42.2812C16.6562 43.6945 15.507 44.8438 14.0938 44.8438C12.6805 44.8438 11.5312 43.6945 11.5312 42.2812C11.5312 40.868 12.6805 39.7188 14.0938 39.7188ZM12.8125 47.2243C13.2251 47.3319 13.6492 47.4062 14.0938 47.4062C14.5383 47.4062 14.9624 47.3319 15.375 47.2243V76.875H12.8125V47.2243ZM17.9375 76.875V45.7586L35.9314 44.2928C35.9058 44.4863 35.875 44.6772 35.875 44.8758V45.0718C35.875 46.0597 36.2158 47.0308 36.8334 47.806L37.8033 49.0193C36.572 50.5082 35.875 52.389 35.875 54.3442C35.875 54.931 35.9378 55.5204 36.0608 56.0957L36.5259 58.2661C37.6867 63.6781 41.0128 68.3355 45.6907 71.2388C44.7156 73.0838 43.9289 75.0364 43.6637 76.8737H17.9375V76.875ZM46.2531 76.875C46.9783 73.0069 50.5978 68.0139 52.6402 65.5693C54.1495 66.2624 55.8061 66.6404 57.5243 66.6404H57.5666C60.4186 66.6288 63.1631 65.5795 65.2951 63.6845L69.4707 59.9727C70.0306 62.3328 71.3503 64.5225 72.734 66.8082C74.5726 69.8461 76.4688 72.9787 76.8186 76.8737H46.2531V76.875Z" fill="url(#paint1_linear_59_922)"/>
<path d="M9.25 17.9375C11.3692 17.9375 13.0938 16.2129 13.0938 14.0938C13.0938 11.9746 11.3692 10.25 9.25 10.25C7.13081 10.25 5.40625 11.9746 5.40625 14.0938C5.40625 16.2129 7.13081 17.9375 9.25 17.9375ZM9.25 12.8125C9.95597 12.8125 10.5312 13.3865 10.5312 14.0938C10.5312 14.801 9.95597 15.375 9.25 15.375C8.54403 15.375 7.96875 14.801 7.96875 14.0938C7.96875 13.3865 8.54403 12.8125 9.25 12.8125Z" fill="url(#paint2_linear_59_922)"/>
<path d="M19.5 17.9375C21.6192 17.9375 23.3438 16.2129 23.3438 14.0938C23.3438 11.9746 21.6192 10.25 19.5 10.25C17.3808 10.25 15.6562 11.9746 15.6562 14.0938C15.6562 16.2129 17.3808 17.9375 19.5 17.9375ZM19.5 12.8125C20.206 12.8125 20.7812 13.3865 20.7812 14.0938C20.7812 14.801 20.206 15.375 19.5 15.375C18.794 15.375 18.2188 14.801 18.2188 14.0938C18.2188 13.3865 18.794 12.8125 19.5 12.8125Z" fill="url(#paint3_linear_59_922)"/>
<path d="M29.75 17.9375C31.8692 17.9375 33.5938 16.2129 33.5938 14.0938C33.5938 11.9746 31.8692 10.25 29.75 10.25C27.6308 10.25 25.9062 11.9746 25.9062 14.0938C25.9062 16.2129 27.6308 17.9375 29.75 17.9375ZM29.75 12.8125C30.456 12.8125 31.0312 13.3865 31.0312 14.0938C31.0312 14.801 30.456 15.375 29.75 15.375C29.044 15.375 28.4688 14.801 28.4688 14.0938C28.4688 13.3865 29.044 12.8125 29.75 12.8125Z" fill="url(#paint4_linear_59_922)"/>
<path d="M6.6875 23.0627H21.6743L28.5431 27.6419C29.0799 27.9993 29.7026 28.1877 30.3458 28.1877C32.137 28.1877 33.5938 26.7296 33.5938 24.9397V22.9346C36.5137 22.3388 38.7188 19.7519 38.7188 16.6577V11.5327C38.7188 8.00031 35.8449 5.12646 32.3125 5.12646H6.6875C3.15509 5.12646 0.28125 8.00031 0.28125 11.5327V16.6577C0.28125 20.1888 3.15509 23.0627 6.6875 23.0627ZM2.84375 11.5314C2.84375 9.41225 4.56831 7.68768 6.6875 7.68768H32.3125C34.4317 7.68768 36.1562 9.41225 36.1562 11.5314V16.6564C36.1562 18.7756 34.4317 20.5002 32.3125 20.5002H31.0312V24.9397C31.0312 25.4535 30.3932 25.793 29.9652 25.5099L22.4507 20.5002H6.6875C4.56831 20.5002 2.84375 18.7756 2.84375 16.6564V11.5314Z" fill="url(#paint5_linear_59_922)"/>
<defs>
<linearGradient id="paint0_linear_59_922" x1="56.6562" y1="21.7812" x2="56.6562" y2="24.3438" gradientUnits="userSpaceOnUse">
<stop offset="0.65625" stop-color="#55287D"/>
<stop offset="1" stop-color="#CD2288"/>
</linearGradient>
<linearGradient id="paint1_linear_59_922" x1="39.7497" y1="0" x2="39.7497" y2="79.4375" gradientUnits="userSpaceOnUse">
<stop offset="0.65625" stop-color="#55287D"/>
<stop offset="1" stop-color="#CD2288"/>
</linearGradient>
<linearGradient id="paint2_linear_59_922" x1="9.25" y1="10.25" x2="9.25" y2="17.9375" gradientUnits="userSpaceOnUse">
<stop offset="0.9999" stop-color="#55287D"/>
<stop offset="1" stop-color="#CD2288"/>
</linearGradient>
<linearGradient id="paint3_linear_59_922" x1="19.5" y1="10.25" x2="19.5" y2="17.9375" gradientUnits="userSpaceOnUse">
<stop offset="0.9999" stop-color="#55287D"/>
<stop offset="1" stop-color="#CD2288"/>
</linearGradient>
<linearGradient id="paint4_linear_59_922" x1="29.75" y1="10.25" x2="29.75" y2="17.9375" gradientUnits="userSpaceOnUse">
<stop offset="0.9999" stop-color="#55287D"/>
<stop offset="1" stop-color="#CD2288"/>
</linearGradient>
<linearGradient id="paint5_linear_59_922" x1="19.5" y1="5.12646" x2="19.5" y2="28.1877" gradientUnits="userSpaceOnUse">
<stop offset="0.9999" stop-color="#55287D"/>
<stop offset="1" stop-color="#CD2288"/>
</linearGradient>
</defs>
</svg>
