<svg width="58" height="60" viewBox="0 0 58 60" fill="none" xmlns="http://www.w3.org/2000/svg">
<path d="M29.2169 56.9876C43.694 56.9876 55.43 45.1294 55.43 30.5016C55.43 15.8738 43.694 4.01562 29.2169 4.01562C14.7399 4.01562 3.00391 15.8738 3.00391 30.5016C3.00391 45.1294 14.7399 56.9876 29.2169 56.9876Z" fill="white" stroke="#55287D" stroke-width="3" stroke-miterlimit="10"/>
<path d="M29.2156 54.867C42.5345 54.867 53.3316 43.9575 53.3316 30.4999C53.3316 17.0423 42.5345 6.13281 29.2156 6.13281C15.8967 6.13281 5.09961 17.0423 5.09961 30.4999C5.09961 43.9575 15.8967 54.867 29.2156 54.867Z" fill="#55287D"/>
<path d="M18.0898 41.4456V19.1508C18.3033 18.2737 18.7116 17.4573 19.2839 16.7634C19.8562 16.0695 20.5773 15.5164 21.3927 15.1461C22.8253 14.7898 24.322 14.7898 25.7545 15.1461L45.0473 27.0288C45.8151 27.9419 46.2366 29.1011 46.2366 30.2993C46.2366 31.4975 45.8151 32.6566 45.0473 33.5698L25.4903 45.3126C24.1026 45.6699 22.6483 45.6699 21.2606 45.3126C19.7401 44.4947 18.6007 43.1035 18.0898 41.4414V41.4456Z" fill="white"/>
<path d="M27.1016 35.3056V25.6943H23.9308V35.3056H27.1016Z" fill="#55287D"/>
<path d="M32.3867 35.3056V25.6943H29.216V35.3056H32.3867Z" fill="#55287D"/>
</svg>
