<svg xmlns="http://www.w3.org/2000/svg" width="144" height="48"><g fill="none" fill-rule="evenodd"><path fill="#007F2D" d="M16.525 13.56C6.909 14.426 5.055 9.195 3.765.593c10.548-.075 15.382.47 15.124 7.776-.15.192-.292.386-.427.585-1.42-2.645-4.535-4.963-10.97-6.207 4.683 1.604 8.21 4.851 9.395 9.218-.154.52-.272 1.05-.362 1.595zm.98 2.758c.391-3.455 1.584-6.365 4.554-8.562 1.486-1.099 3.53.3 1.4 1.57-2.573 1.531-5.034 5.111-5.42 6.972a1.213 1.213 0 01-.534.02z"/><path fill="#65B32E" d="M16.123 16.997c.652.098 1.195.14 1.722.113.537-.03 1.082-.132 1.737-.32 3.83-1.102 8.89-.408 12.151 1.928 4.178 2.991 5.297 8.087 4.548 13.158-.9 6.096-6.804 18.044-14.4 15.07-.938-.366-1.856-.667-2.879-.632-1.07.036-1.495.384-3.057.766C7.376 49.17 1.198 37.52.483 30.638c-.46-4.44.624-8.728 4.033-11.373 2.964-2.302 7.987-3.154 11.607-2.268z"/><path fill="#64B22C" d="M54.6 39.244h-7.734l-1.499 4.753h-4.465l7.583-22.039h4.526l7.553 22.04H56.1l-1.5-4.755zm-6.645-3.466h5.556l-2.725-8.658h-.09l-2.74 8.658zm22.857.5h-8.537v-3.406h8.537v3.406zm18.043-10.914h-9.748v4.344h3.784c2.533 0 4.546.661 6.04 1.983 1.493 1.322 2.24 3.032 2.24 5.131 0 2.12-.75 3.845-2.248 5.177-1.499 1.332-3.51 1.998-6.032 1.998h-8.4V21.958h14.364v3.406zm-9.748 7.75v7.493h3.784c1.241 0 2.197-.369 2.868-1.105.671-.737 1.007-1.64 1.007-2.71 0-1.03-.336-1.9-1.007-2.61-.67-.712-1.627-1.068-2.868-1.068h-3.784zm24.31 10.883a9.297 9.297 0 01-.417-1.18 8.213 8.213 0 01-.25-1.272 6.091 6.091 0 01-1.793 1.983c-.742.525-1.628.787-2.657.787-1.715 0-3.037-.441-3.966-1.324-.928-.883-1.392-2.087-1.392-3.61 0-1.605.618-2.849 1.854-3.732 1.236-.883 3.04-1.324 5.411-1.324h2.468v-1.302c0-.787-.207-1.398-.62-1.831-.415-.434-1.025-.651-1.832-.651-.717 0-1.27.174-1.658.522-.388.348-.583.83-.583 1.445l-4.268-.015-.015-.09c-.071-1.383.53-2.576 1.8-3.58 1.272-1.004 2.942-1.506 5.011-1.506 1.958 0 3.547.497 4.768 1.49 1.221.995 1.832 2.41 1.832 4.246v6.767c0 .766.058 1.488.174 2.164.116.676.3 1.347.552 2.013h-4.42zm-4.042-2.951c.777 0 1.468-.192 2.074-.576.605-.383 1.014-.827 1.226-1.332v-2.316h-2.468c-.938 0-1.65.235-2.134.704a2.284 2.284 0 00-.726 1.703c0 .545.181.984.544 1.317.364.333.858.5 1.484.5zm25.233 2.951h-4.42V37.64h-5.389v6.357h-4.42V27.62h4.42v6.63h5.389v-6.63h4.42v16.378zm9.718-6.13h-1.696v6.13h-4.42V27.62h4.42v6.237h1.544l3.527-6.237h5.585l-5.343 7.72 5.828 8.658h-5.888l-3.557-6.13z"/></g></svg>