<svg width="52" height="44" viewBox="0 0 52 44" fill="none" xmlns="http://www.w3.org/2000/svg">
<path d="M43.2041 16.7231H22.751C22.395 16.7231 22.1064 17.0117 22.1064 17.3677C22.1064 17.7236 22.395 18.0122 22.751 18.0122H43.2041C43.5601 18.0122 43.8486 17.7236 43.8486 17.3677C43.8486 17.0117 43.5601 16.7231 43.2041 16.7231Z" fill="url(#paint0_linear_212_826)"/>
<path d="M43.2041 21.6504H22.751C22.395 21.6504 22.1064 21.939 22.1064 22.2949C22.1064 22.6509 22.395 22.9395 22.751 22.9395H43.2041C43.5601 22.9395 43.8486 22.6509 43.8486 22.2949C43.8486 21.939 43.5601 21.6504 43.2041 21.6504Z" fill="url(#paint1_linear_212_826)"/>
<path d="M43.2041 26.5776H22.751C22.395 26.5776 22.1064 26.8662 22.1064 27.2222C22.1064 27.5781 22.395 27.8667 22.751 27.8667H43.2041C43.5601 27.8667 43.8486 27.5781 43.8486 27.2222C43.8486 26.8662 43.5601 26.5776 43.2041 26.5776Z" fill="url(#paint2_linear_212_826)"/>
<path d="M45.2515 11.0864H20.7038C18.6368 11.0864 16.9551 12.7681 16.9551 14.8352V30.271C16.9551 32.3381 18.6367 34.0198 20.7038 34.0198H37.9095C38.0935 34.0198 38.2644 34.1025 38.3785 34.247L43.9348 41.2813C44.1538 41.5585 44.4733 41.7096 44.8078 41.7096C44.9322 41.7096 45.0587 41.6887 45.1828 41.6455C45.6406 41.4866 45.9364 41.0707 45.9364 40.5861V33.9558C47.6745 33.6311 49.0003 32.0944 49.0003 30.271V14.8351C49.0003 12.7681 47.3187 11.0864 45.2515 11.0864ZM47.7112 30.271C47.7112 31.6097 46.6222 32.7127 45.2835 32.7297C44.9308 32.7343 44.6472 33.0215 44.6472 33.3742V40.1036L39.3901 33.448C39.0301 32.9921 38.4904 32.7306 37.9095 32.7306H20.7038C19.3476 32.7306 18.2441 31.6272 18.2441 30.2709V14.8351C18.2441 13.4788 19.3475 12.3754 20.7038 12.3754H45.2515C46.6078 12.3754 47.7112 13.4788 47.7112 14.8351V30.271Z" fill="url(#paint3_linear_212_826)"/>
<path fill-rule="evenodd" clip-rule="evenodd" d="M45.278 32.3293C46.3978 32.3151 47.3109 31.3903 47.3109 30.2706V14.8347C47.3109 13.6994 46.3865 12.775 45.2511 12.775H20.7035C19.568 12.775 18.6437 13.6994 18.6437 14.8347V30.2705C18.6437 31.4059 19.5681 32.3303 20.7035 32.3303H37.9091C38.6124 32.3303 39.2678 32.6477 39.7036 33.1997L44.2468 38.9514V33.3738C44.2468 32.8021 44.7065 32.3367 45.278 32.3293ZM44.6468 40.1032L39.3897 33.4476C39.0297 32.9917 38.49 32.7303 37.9091 32.7303H20.7035C19.3472 32.7303 18.2437 31.6268 18.2437 30.2705V14.8347C18.2437 13.4784 19.3471 12.375 20.7035 12.375H45.2511C46.6074 12.375 47.7109 13.4784 47.7109 14.8347V30.2706C47.7109 31.6093 46.6218 32.7123 45.2831 32.7293C44.9304 32.7339 44.6468 33.0211 44.6468 33.3738V40.1032ZM20.7035 10.686H45.2511C47.5392 10.686 49.3999 12.5467 49.3999 14.8347V30.2706C49.3999 32.1748 48.0963 33.7932 46.336 34.2736V40.5857C46.336 41.2406 45.9323 41.8081 45.3136 42.023C45.1476 42.0807 44.9767 42.1092 44.8075 42.1092C44.3499 42.1092 43.9149 41.9016 43.6205 41.5288L38.0643 34.4946C38.026 34.4462 37.9707 34.4194 37.9091 34.4194H20.7035C18.4154 34.4194 16.5547 32.5586 16.5547 30.2706V14.8348C16.5547 12.5467 18.4155 10.686 20.7035 10.686ZM38.3781 34.2466C38.264 34.1022 38.0931 34.0194 37.9091 34.0194H20.7035C18.6363 34.0194 16.9547 32.3377 16.9547 30.2706V14.8348C16.9547 12.7677 18.6364 11.086 20.7035 11.086H45.2511C47.3183 11.086 48.9999 12.7677 48.9999 14.8347V30.2706C48.9999 32.0941 47.6741 33.6307 45.936 33.9554V40.5857C45.936 41.0703 45.6402 41.4862 45.1824 41.6452C45.0583 41.6883 44.9318 41.7092 44.8075 41.7092C44.4729 41.7092 44.1534 41.5581 43.9344 41.2809L38.3781 34.2466Z" fill="white"/>
<path d="M14.4956 21.7438C14.0547 21.8064 13.6599 22.0334 13.3839 22.3828L8.9563 27.9881V22.3703C8.9563 22.0175 8.67271 21.7303 8.32002 21.7258C7.20017 21.7115 6.28906 20.7888 6.28906 19.6689V6.2316C6.28906 5.09697 7.2122 4.17383 8.34684 4.17383H29.7163C30.8509 4.17383 31.7741 5.09697 31.7741 6.2316V8.71795C31.7741 9.0739 32.0627 9.36248 32.4186 9.36248C32.7746 9.36248 33.0631 9.0739 33.0631 8.71795V6.2316C33.0631 4.38618 31.5617 2.88477 29.7163 2.88477H8.34684C6.50141 2.88477 5 4.38618 5 6.2316V19.6689C5 21.2731 6.14907 22.6284 7.66733 22.9452V28.6485C7.66733 29.1064 7.9468 29.4994 8.37941 29.6496C8.49671 29.6903 8.61616 29.7101 8.73373 29.7101C9.04972 29.7101 9.35179 29.5672 9.55864 29.3054L14.3955 23.1818C14.4653 23.0934 14.5653 23.036 14.6768 23.0201C15.0293 22.9701 15.2744 22.6438 15.2243 22.2913C15.1743 21.9389 14.8485 21.6936 14.4956 21.7438Z" fill="url(#paint4_linear_212_826)"/>
<defs>
<linearGradient id="paint0_linear_212_826" x1="22.1064" y1="17.3677" x2="43.8486" y2="17.3677" gradientUnits="userSpaceOnUse">
<stop stop-color="white"/>
<stop offset="1" stop-color="white"/>
</linearGradient>
<linearGradient id="paint1_linear_212_826" x1="22.1064" y1="22.2949" x2="43.8486" y2="22.2949" gradientUnits="userSpaceOnUse">
<stop stop-color="white"/>
<stop offset="1" stop-color="white"/>
</linearGradient>
<linearGradient id="paint2_linear_212_826" x1="22.1064" y1="27.2222" x2="43.8486" y2="27.2222" gradientUnits="userSpaceOnUse">
<stop stop-color="white"/>
<stop offset="1" stop-color="white"/>
</linearGradient>
<linearGradient id="paint3_linear_212_826" x1="16.9551" y1="26.398" x2="49.0003" y2="26.398" gradientUnits="userSpaceOnUse">
<stop stop-color="white"/>
<stop offset="1" stop-color="white"/>
</linearGradient>
<linearGradient id="paint4_linear_212_826" x1="5" y1="16.2974" x2="33.0631" y2="16.2974" gradientUnits="userSpaceOnUse">
<stop stop-color="white"/>
<stop offset="1" stop-color="white"/>
</linearGradient>
</defs>
</svg>
