<svg width="38" height="47" viewBox="0 0 38 47" fill="none" xmlns="http://www.w3.org/2000/svg">
<path d="M0.851069 42.0796C1.20529 42.271 9.63481 46.7668 19.0001 46.7668C29.1465 46.7668 36.8536 42.2559 37.1767 42.064C37.2912 41.9959 37.3859 41.8997 37.4517 41.7847C37.5175 41.6696 37.552 41.5397 37.552 41.4074C37.552 35.2257 35.6382 29.569 32.1632 25.4784C29.7323 22.6169 26.6823 20.6665 23.3183 19.7686C25.3775 18.798 27.0421 17.1625 28.0387 15.1308C29.0353 13.0992 29.3046 10.7922 28.8023 8.58892C28.3 6.38564 27.0559 4.41712 25.2746 3.00677C23.4933 1.59641 21.2806 0.828125 19.0001 0.828125C16.7196 0.828125 14.507 1.59641 12.7256 3.00677C10.9443 4.41712 9.70031 6.38564 9.19799 8.58892C8.69568 10.7922 8.96494 13.0992 9.96153 15.1308C10.9581 17.1625 12.6228 18.798 14.682 19.7686C11.318 20.6665 8.26796 22.6172 5.83708 25.4784C2.36208 29.569 0.448242 35.2257 0.448242 41.4074C0.448243 41.545 0.485652 41.68 0.556536 41.7983C0.627421 41.9165 0.729163 42.0137 0.851069 42.0796V42.0796ZM10.4972 10.7824C10.4972 9.11676 10.9959 7.48847 11.9302 6.1035C12.8645 4.71853 14.1925 3.63908 15.7462 3.00165C17.2999 2.36422 19.0096 2.19743 20.659 2.52239C22.3084 2.84735 23.8235 3.64946 25.0126 4.82728C26.2018 6.0051 27.0116 7.50574 27.3397 9.13942C27.6678 10.7731 27.4994 12.4665 26.8558 14.0054C26.2123 15.5443 25.1224 16.8596 23.7241 17.785C22.3258 18.7104 20.6819 19.2043 19.0001 19.2043C16.7458 19.2018 14.5845 18.3137 12.9905 16.7348C11.3964 15.156 10.4997 13.0153 10.4972 10.7824V10.7824ZM7.01996 26.4643C10.159 22.77 14.4132 20.7356 19.0001 20.7356C23.5871 20.7356 27.8413 22.77 30.9803 26.4643C34.1381 30.1812 35.9136 35.3149 36.0025 40.9608C34.3484 41.8477 27.4749 45.2356 19.0001 45.2356C11.1629 45.2356 3.78178 41.8277 1.9981 40.9427C2.09086 35.3038 3.86556 30.1773 7.01996 26.4643Z" fill="url(#paint0_linear_1781_818)"/>
<defs>
<linearGradient id="paint0_linear_1781_818" x1="0.448242" y1="23.7975" x2="37.552" y2="23.7975" gradientUnits="userSpaceOnUse">
<stop stop-color="white"/>
<stop offset="1" stop-color="white"/>
</linearGradient>
</defs>
</svg>
