<svg width="52" height="52" viewBox="0 0 52 52" fill="none" xmlns="http://www.w3.org/2000/svg">
<circle cx="26" cy="26" r="26" fill="#CD2288"/>
<path d="M23.6832 28.1991C25.4228 29.9638 27.5276 31.3262 29.8499 32.1907L32.9915 29.6907C33.0847 29.6266 33.1951 29.5922 33.3082 29.5922C33.4213 29.5922 33.5317 29.6266 33.6249 29.6907L39.4582 33.4491C39.6797 33.5822 39.8671 33.765 40.0058 33.983C40.1445 34.2011 40.2305 34.4484 40.2572 34.7054C40.2839 34.9624 40.2504 35.2221 40.1595 35.464C40.0685 35.7059 39.9226 35.9233 39.7332 36.0991L36.9999 38.7991C36.6084 39.1858 36.1273 39.4697 35.5995 39.6253C35.0717 39.7808 34.5135 39.8033 33.9749 39.6907C28.6017 38.581 23.6492 35.982 19.6832 32.1907C15.8053 28.3618 13.1218 23.4898 11.9582 18.1657C11.8433 17.6354 11.8673 17.0844 12.0279 16.5661C12.1885 16.0478 12.4802 15.5798 12.8749 15.2074L15.7082 12.4741C15.8835 12.2939 16.0974 12.1557 16.3337 12.0699C16.57 11.984 16.8226 11.9528 17.0727 11.9784C17.3228 12.0041 17.5639 12.086 17.7778 12.218C17.9918 12.35 18.1731 12.5287 18.3082 12.7407L22.1915 18.4991C22.2585 18.5895 22.2947 18.699 22.2947 18.8116C22.2947 18.9241 22.2585 19.0336 22.1915 19.1241L19.6332 22.1991C20.5212 24.4748 21.9046 26.5244 23.6832 28.1991Z" fill="#55287D"/>
</svg>
