<svg width="52" height="52" viewBox="0 0 52 52" fill="none" xmlns="http://www.w3.org/2000/svg">
<path d="M26 0C11.6405 0 0 11.6405 0 26C0 40.3595 11.6405 52 26 52C40.3595 52 52 40.3595 52 26C52 11.6405 40.3595 0 26 0Z" fill="#40B3E0"/>
<path d="M38.6512 14.9562L34.0071 38.3702C34.0071 38.3702 33.3577 39.994 31.5717 39.2146L20.8552 30.9986L16.9585 29.1152L10.3987 26.9069C10.3987 26.9069 9.39205 26.5498 9.29455 25.7704C9.19705 24.991 10.4312 24.5689 10.4312 24.5689L36.5076 14.3395C36.5076 14.3395 38.651 13.3978 38.651 14.9566" fill="#55287D"/>
<path d="M20.0323 38.1066C20.0323 38.1066 19.7195 38.0773 19.3295 36.8431C18.9401 35.6092 16.959 29.1144 16.959 29.1144L32.7089 19.1126C32.7089 19.1126 33.6183 18.5605 33.5858 19.1126C33.5858 19.1126 33.7481 19.2101 33.2608 19.6647C32.7739 20.1195 20.8884 30.8032 20.8884 30.8032" fill="#D2E5F1"/>
<path d="M24.9657 34.1487L20.7271 38.0133C20.7271 38.0133 20.3956 38.2648 20.0332 38.1072L20.8449 30.9287" fill="#B5CFE4"/>
</svg>
