<?xml version="1.0" encoding="utf-8"?>
<!-- Generator: Adobe Illustrator 22.1.0, SVG Export Plug-In . SVG Version: 6.00 Build 0)  -->
<svg version="1.1" id="Слой_1" xmlns="http://www.w3.org/2000/svg" xmlns:xlink="http://www.w3.org/1999/xlink" x="0px" y="0px"
	 viewBox="0 0 74 64" style="enable-background:new 0 0 74 64;" xml:space="preserve">
<style type="text/css">
	.st0{fill:#FFFFFF;}
	.st1{fill:#EF002F;}
</style>
<title>25BF234F-1B84-4E5B-AA4D-5DA8DD581E57</title>
<desc>Created with sketchtool.</desc>
<g id="Corporation_1" transform="translate(-11.000000, -16.000000)">
	<g id="Navigation">
		<path id="Logo_base" class="st0" d="M0,0h96v96H2c-1.1,0-2-0.9-2-2V0z"/>
		<g id="AlfaBank_Logo_Red" transform="translate(11.000000, 16.000000)">
			<g id="AlfaBank_Logo">
				<path id="logo_shape" class="st1" d="M42.9,56.5c-0.6,0-1.1,0.5-1.1,1.1c0,0.6,0.5,1.1,1.1,1.1c0.6,0,1.1-0.5,1.1-1.1
					C44,57.1,43.5,56.5,42.9,56.5z M3.8,57.6c0,0,0.6-1.9,0.7-2.2c0.2-0.8,0.6-2,0.6-2h0.1c0,0,0.3,1.2,0.5,2
					c0.1,0.3,0.6,2.2,0.6,2.2H3.8z M7.2,61h2l-3.1-9.4c-0.3-0.1-0.7-0.2-1.2-0.2c-0.5,0-0.6,0.1-1,0.2L0.8,61h2c0,0,0.3-0.8,0.6-1.8
					l3.4,0C7,60.2,7.2,61,7.2,61z M73.2,61c0,0-1-2.1-1.2-2.5c-0.3-0.5-0.5-0.9-1.1-1l0,0c0.4-0.1,0.7-0.3,1-1
					c0.3-0.7,0.4-0.8,0.6-1c0.2-0.2,0.4-0.1,0.4-0.1l0.1-1.2c-0.3,0-0.5,0-0.8,0c-0.5,0-0.7,0.2-1,0.4c-0.2,0.2-0.3,0.5-0.5,0.8
					c-0.2,0.3-0.3,0.6-0.5,1c-0.2,0.4-0.3,0.5-0.7,0.5h-0.3v-2.5h-1.8V61h1.8v-2.7l0.2,0c0.5,0,0.6,0.1,0.9,0.7
					c0.3,0.6,0.9,2.1,0.9,2.1H73.2z M66,61v-6.7h-1.8v2.5h-2v-2.5h-1.8V61h1.8v-2.7h2V61H66z M17.2,54.3l0,6.4
					c0.8,0.4,1.8,0.5,2.6,0.5c1.9,0,2.9-1,2.9-2.6c0-1.4-0.9-2.3-2.6-2.3c-0.4,0-0.7,0.1-1.1,0.2v-2.2L17.2,54.3L17.2,54.3z
					 M20.8,58.7c0,0.7-0.2,1.1-1.1,1.1c-0.3,0-0.4,0-0.8-0.1v-1.9c0.5-0.1,0.5-0.1,0.8-0.1C20.6,57.7,20.8,58.1,20.8,58.7z
					 M59.5,60.4c-0.5-0.7-0.6-1.1-0.6-2v-1.8c0-1-0.1-1.3-0.4-1.7c-0.4-0.5-1-0.7-2.1-0.7c-0.8,0-1.5,0.1-2.3,0.3l0.3,1.3
					c0.5-0.1,1-0.1,1.4-0.1c1.2,0,1.3,0.2,1.3,1V57c-0.3-0.1-0.6-0.1-0.9-0.1c-1.8,0-2.7,0.9-2.7,2.3c0,1.3,1,2.1,2.2,2.1
					c0.5,0,0.9-0.1,1.3-0.2c0.2-0.1,0.3-0.2,0.6-0.3c0.2,0.3,0.5,0.5,0.7,0.6L59.5,60.4z M57.2,59.6c-0.4,0.1-0.6,0.2-1,0.2
					c-0.6,0-1-0.2-1-0.9c0-0.7,0.5-0.9,1.3-0.9c0.2,0,0.4,0,0.5,0.1v0.5C57.1,59,57.2,59.4,57.2,59.6z M39.8,60.4
					c-0.5-0.7-0.6-1.1-0.6-2v-1.8c0-1-0.1-1.3-0.4-1.7c-0.4-0.5-1-0.7-2.1-0.7c-0.8,0-1.5,0.1-2.3,0.3l0.3,1.3
					c0.5-0.1,1-0.1,1.4-0.1c1.2,0,1.3,0.2,1.3,1V57c-0.3-0.1-0.6-0.1-0.9-0.1c-1.8,0-2.7,0.9-2.7,2.3c0,1.3,1,2.1,2.2,2.1
					c0.5,0,0.9-0.1,1.3-0.2c0.2-0.1,0.3-0.2,0.6-0.3c0.2,0.3,0.5,0.5,0.7,0.6L39.8,60.4z M37.6,59.6c-0.4,0.1-0.6,0.2-1,0.2
					c-0.6,0-1-0.2-1-0.9c0-0.7,0.5-0.9,1.3-0.9c0.2,0,0.4,0,0.5,0.1v0.5C37.5,59,37.5,59.4,37.6,59.6z M15.8,61v-6.5
					c-1-0.3-1.7-0.4-2.7-0.4c-1,0-1.7,0.1-2.7,0.4v3.3c0,0.9,0,1.2-0.1,1.5c-0.1,0.3-0.2,0.6-0.6,0.8l0.5,1c1.4-0.4,2-1,2-3v-2.4
					c0.5-0.1,0.6-0.1,0.9-0.1c0.4,0,0.5,0,0.9,0.1V61H15.8z M29.1,63.2v-2.4c0.2,0.1,0.7,0.3,1.4,0.3c1.5,0,2.6-1.2,2.6-3.5
					c0-2.4-1.1-3.5-2.9-3.5c-0.5,0-0.8,0-1.1,0.2v-2.9h-1.8v2.9c-0.4-0.2-0.7-0.2-1.1-0.2c-1.8,0-2.9,1.1-2.9,3.5
					c0,2.3,1,3.5,2.6,3.5c0.8,0,1.2-0.2,1.4-0.3v2.4H29.1z M25.2,57.7c0-1.3,0.4-2.1,1.2-2.1c0.3,0,0.6,0,1,0.2v3.7
					c-0.4,0.1-0.6,0.1-0.9,0.1C25.5,59.7,25.2,58.9,25.2,57.7z M31.4,57.6c0,1.2-0.5,2-1.3,2c-0.3,0-0.5,0-0.9-0.1v-3.7
					c0.4-0.2,0.7-0.2,1-0.2C30.9,55.6,31.4,56.3,31.4,57.6L31.4,57.6L31.4,57.6z M52.9,58.1c0-1.7-1-2.8-3-2.8c-0.5,0-0.9,0-1.4,0.2
					l0-2.4c0.3,0,0.9-0.1,1.6-0.1c0.6,0,1.4,0,2,0.1l0-1.4c-0.8-0.2-1.9-0.3-2.7-0.3c-0.8,0-2.2,0.2-2.8,0.4l0,8.8
					c1,0.4,1.9,0.5,2.9,0.5C51.7,61.2,52.9,60,52.9,58.1z M51,58.3c0,0.9-0.5,1.5-1.4,1.5c-0.4,0-0.7,0-1.1-0.1l0-2.7
					c0.2,0,0.6-0.1,1.1-0.1C50.5,56.8,51,57.3,51,58.3z M37,6.7L33.2,18h7.6L37,6.7L37,6.7z M37,0c2.9,0,3.8,2.1,4.6,4.1l8.1,22
					c0.1,0.2,0,0.5-0.2,0.6L45,28.4c-0.2,0.1-0.5,0-0.5-0.3L42.6,23H31.4l-1.9,5.2c-0.1,0.2-0.3,0.3-0.5,0.3l-4.4-1.7
					c-0.2-0.1-0.3-0.3-0.2-0.6l8.1-22C33.2,2.1,34.1,0,37,0z M23.8,36.7c-0.2,0-0.4,0.2-0.4,0.4V42c0,0.2,0.2,0.4,0.4,0.4h26.5
					c0.2,0,0.4-0.2,0.4-0.4v-4.8c0-0.2-0.2-0.4-0.4-0.4H23.8z"/>
			</g>
		</g>
	</g>
</g>
</svg>
