<svg width="25" height="25" viewBox="0 0 25 25" fill="none" xmlns="http://www.w3.org/2000/svg">
<g clip-path="url(#clip0_47_50)">
<path d="M21.9961 11.9386C22.0918 17.4003 17.7386 21.9024 12.2841 21.996C6.82227 22.0917 2.3202 17.7387 2.22663 12.2843C2.131 6.82263 6.47668 2.32252 11.9386 2.22693C17.391 2.1258 21.9006 6.47677 21.9961 11.9386Z" fill="url(#paint0_linear_47_50)"/>
<path d="M16.3386 9.70557C16.1853 8.38699 15.0387 7.95839 13.5884 7.85911L13.5593 6.01934L12.4446 6.03809L12.4766 7.82909C12.1825 7.83591 11.881 7.84473 11.5814 7.86101L11.5474 6.06255L10.4327 6.0813L10.4672 7.91161C10.2219 7.92136 9.98402 7.92911 9.75362 7.93486L9.75162 7.9274L8.20795 7.95711L8.23177 9.15045C8.23177 9.15045 9.05584 9.12159 9.04292 9.13305C9.49626 9.12355 9.64687 9.38713 9.69193 9.615L9.72529 11.7096C9.75714 11.709 9.79645 11.7065 9.84722 11.7169C9.80791 11.7194 9.7686 11.7219 9.72729 11.717L9.77658 14.6471C9.75834 14.788 9.676 15.018 9.36498 15.0213C9.37644 15.0343 8.55383 15.0387 8.55383 15.0387L8.35339 16.3801L9.81098 16.3575C10.0827 16.3567 10.3449 16.3504 10.6092 16.3516L10.6423 18.2063L11.757 18.1875L11.7279 16.3477C12.0315 16.3464 12.335 16.345 12.6217 16.3402L12.6562 18.1705L13.7709 18.1517L13.7378 16.2971C15.6188 16.153 16.926 15.6587 17.0518 13.8894C17.1591 12.469 16.4795 11.8433 15.4073 11.6027C16.0593 11.2601 16.4522 10.6669 16.3386 9.70557ZM14.843 13.7055C14.87 15.0899 12.4882 14.9763 11.7313 14.9872L11.688 12.5273C12.4449 12.5165 14.8224 12.2553 14.843 13.7055ZM14.2656 10.2371C14.285 11.5035 12.3022 11.387 11.6727 11.3957L11.6352 9.16628C12.2647 9.15756 14.2416 8.92379 14.2656 10.2371Z" fill="white"/>
</g>
<defs>
<linearGradient id="paint0_linear_47_50" x1="9.54539" y1="2.55655" x2="14.6649" y2="21.6628" gradientUnits="userSpaceOnUse">
<stop stop-color="#F9AA4B"/>
<stop offset="1" stop-color="#F7931A"/>
</linearGradient>
<clipPath id="clip0_47_50">
<rect width="19.7775" height="19.7775" fill="white" transform="translate(0 5.11914) rotate(-15)"/>
</clipPath>
</defs>
</svg>
