<svg width="69" height="69" viewBox="0 0 69 69" fill="none" xmlns="http://www.w3.org/2000/svg">
<path d="M11.2031 4.54688H13.4219V6.76562H11.2031V4.54688Z" fill="#9407E9"/>
<path d="M11.2031 0.109375H13.4219V2.32812H11.2031V0.109375Z" fill="#9407E9"/>
<path d="M11.2031 8.98438H13.4219V11.2031H11.2031V8.98438Z" fill="#9407E9"/>
<path d="M15.6406 8.98438H17.8594V11.2031H15.6406V8.98438Z" fill="#9809E3"/>
<path d="M15.6406 13.4219H17.8594V15.6406H15.6406V13.4219Z" fill="#9809E3"/>
<path d="M11.2031 62.2344H13.4219V64.4531H11.2031V62.2344Z" fill="#9407E9"/>
<path d="M11.2031 57.7969H13.4219V60.0156H11.2031V57.7969Z" fill="#9407E9"/>
<path d="M11.2031 66.6719H13.4219V68.8906H11.2031V66.6719Z" fill="#9407E9"/>
<path d="M20.0781 17.8594H22.2969V20.0781H20.0781V17.8594Z" fill="#9D0BDB"/>
<path d="M20.0781 13.4219H22.2969V15.6406H20.0781V13.4219Z" fill="#9D0BDB"/>
<path d="M15.6406 53.3594H17.8594V55.5781H15.6406V53.3594Z" fill="#9809E3"/>
<path d="M15.6406 57.7969H17.8594V60.0156H15.6406V57.7969Z" fill="#9809E3"/>
<path d="M20.0781 48.9219H22.2969V51.1406H20.0781V48.9219Z" fill="#9D0BDB"/>
<path d="M20.0781 53.3594H22.2969V55.5781H20.0781V53.3594Z" fill="#9D0BDB"/>
<path d="M26.7344 4.54688H28.9531V6.76562H26.7344V4.54688Z" fill="#A40ECF"/>
<path d="M26.7344 0.109375H28.9531V2.32812H26.7344V0.109375Z" fill="#A40ECF"/>
<path d="M26.7344 8.98438H28.9531V11.2031H26.7344V8.98438Z" fill="#A40ECF"/>
<path d="M31.1719 8.98438H33.3906V11.2031H31.1719V8.98438Z" fill="#A810C8"/>
<path d="M31.1719 13.4219H33.3906V15.6406H31.1719V13.4219Z" fill="#A810C8"/>
<path d="M26.7344 62.2344H28.9531V64.4531H26.7344V62.2344Z" fill="#A40ECF"/>
<path d="M26.7344 57.7969H28.9531V60.0156H26.7344V57.7969Z" fill="#A40ECF"/>
<path d="M26.7344 66.6719H28.9531V68.8906H26.7344V66.6719Z" fill="#A40ECF"/>
<path d="M35.6094 17.8594H37.8281V20.0781H35.6094V17.8594Z" fill="#AD13C0"/>
<path d="M35.6094 13.4219H37.8281V15.6406H35.6094V13.4219Z" fill="#AD13C0"/>
<path d="M31.1719 53.3594H33.3906V55.5781H31.1719V53.3594Z" fill="#A810C8"/>
<path d="M31.1719 57.7969H33.3906V60.0156H31.1719V57.7969Z" fill="#A810C8"/>
<path d="M35.6094 48.9219H37.8281V51.1406H35.6094V48.9219Z" fill="#AD13C0"/>
<path d="M35.6094 53.3594H37.8281V55.5781H35.6094V53.3594Z" fill="#AD13C0"/>
<path d="M53.3594 26.4393V22.2969H51.1406V26.7344C51.1406 26.9274 51.1917 27.1171 51.2871 27.2846L54.776 33.3906H52.8934L48.9219 26.4393V17.8594H46.7031V26.7344C46.7031 26.9274 46.7542 27.1171 46.8496 27.2846L50.3385 33.3906H48.4559L44.4844 26.4393V13.4219H42.2656V26.7344C42.2656 26.9274 42.3167 27.1171 42.4121 27.2846L45.901 33.3906H41.7997L37.8281 26.4393V22.2969H35.6094V26.7344C35.6094 26.9274 35.6604 27.1171 35.7558 27.2846L39.2448 33.3906H37.3622L33.3906 26.4393V17.8594H31.1719V26.7344C31.1719 26.9274 31.2229 27.1171 31.3183 27.2846L34.8073 33.3906H32.9247L28.9531 26.4393V13.4219H26.7344V26.7344C26.7344 26.9274 26.7854 27.1171 26.8808 27.2846L30.3698 33.3906H26.2684L22.2969 26.4393V22.2969H20.0781V26.7344C20.0781 26.9274 20.1292 27.1171 20.2246 27.2846L23.7135 33.3906H21.8309L17.8594 26.4393V17.8594H15.6406V26.7344C15.6406 26.9274 15.6917 27.1171 15.7871 27.2846L19.276 33.3906H17.3934L13.4219 26.4393V13.4219H11.2031V26.7344C11.2031 26.9274 11.2542 27.1171 11.3496 27.2846L14.8385 33.3906H0.109375V35.6094H14.8385L11.3496 41.7154C11.2542 41.8829 11.2031 42.0726 11.2031 42.2656V55.5781H13.4219V42.5607L17.3934 35.6094H19.276L15.7871 41.7154C15.6917 41.8829 15.6406 42.0726 15.6406 42.2656V51.1406H17.8594V42.5607L21.8309 35.6094H23.7135L20.2246 41.7154C20.1292 41.8829 20.0781 42.0726 20.0781 42.2656V46.7031H22.2969V42.5607L26.2684 35.6094H30.3698L26.8808 41.7154C26.7854 41.8829 26.7344 42.0726 26.7344 42.2656V55.5781H28.9531V42.5607L32.9247 35.6094H34.8073L31.3183 41.7154C31.2229 41.8829 31.1719 42.0726 31.1719 42.2656V51.1406H33.3906V42.5607L37.3622 35.6094H39.2448L35.7558 41.7154C35.6604 41.8829 35.6094 42.0726 35.6094 42.2656V46.7031H37.8281V42.5607L41.7997 35.6094H45.901L42.4121 41.7154C42.3167 41.8829 42.2656 42.0726 42.2656 42.2656V55.5781H44.4844V42.5607L48.4559 35.6094H50.3385L46.8496 41.7154C46.7542 41.8829 46.7031 42.0726 46.7031 42.2656V51.1406H48.9219V42.5607L52.8934 35.6094H54.776L51.2871 41.7154C51.1917 41.8829 51.1406 42.0726 51.1406 42.2656V46.7031H53.3594V42.5607L57.3309 35.6094H68.8906V33.3906H57.3309L53.3594 26.4393Z" fill="url(#paint0_linear_44_1022)"/>
<path d="M42.2656 4.54688H44.4844V6.76562H42.2656V4.54688Z" fill="#B416B4"/>
<path d="M42.2656 0.109375H44.4844V2.32812H42.2656V0.109375Z" fill="#B416B4"/>
<path d="M42.2656 8.98438H44.4844V11.2031H42.2656V8.98438Z" fill="#B416B4"/>
<path d="M46.7031 8.98438H48.9219V11.2031H46.7031V8.98438Z" fill="#B818AD"/>
<path d="M46.7031 13.4219H48.9219V15.6406H46.7031V13.4219Z" fill="#B818AD"/>
<path d="M42.2656 62.2344H44.4844V64.4531H42.2656V62.2344Z" fill="#B416B4"/>
<path d="M42.2656 57.7969H44.4844V60.0156H42.2656V57.7969Z" fill="#B416B4"/>
<path d="M42.2656 66.6719H44.4844V68.8906H42.2656V66.6719Z" fill="#B416B4"/>
<path d="M51.1406 17.8594H53.3594V20.0781H51.1406V17.8594Z" fill="#BD1AA5"/>
<path d="M51.1406 13.4219H53.3594V15.6406H51.1406V13.4219Z" fill="#BD1AA5"/>
<path d="M46.7031 53.3594H48.9219V55.5781H46.7031V53.3594Z" fill="#B818AD"/>
<path d="M46.7031 57.7969H48.9219V60.0156H46.7031V57.7969Z" fill="#B818AD"/>
<path d="M51.1406 48.9219H53.3594V51.1406H51.1406V48.9219Z" fill="#BD1AA5"/>
<path d="M51.1406 53.3594H53.3594V55.5781H51.1406V53.3594Z" fill="#BD1AA5"/>
<path d="M63.3438 0.109375C62.7303 0.109375 62.2344 0.606375 62.2344 1.21875V5.29792C61.4401 4.82422 60.4871 4.54688 59.4609 4.54688C56.7086 4.54688 54.4688 6.53709 54.4688 8.98438C54.4688 11.4317 56.7086 13.4219 59.4609 13.4219C62.2133 13.4219 64.4531 11.4317 64.4531 8.98438V2.32812H68.8906V0.109375H63.3438ZM59.4609 11.2031C57.9311 11.2031 56.6875 10.208 56.6875 8.98438C56.6875 7.76073 57.9311 6.76562 59.4609 6.76562C60.9908 6.76562 62.2344 7.76073 62.2344 8.98438C62.2344 10.208 60.9908 11.2031 59.4609 11.2031Z" fill="#C82092"/>
<path d="M62.2344 56.6875V60.7667C61.4401 60.293 60.4871 60.0156 59.4609 60.0156C56.7086 60.0156 54.4688 62.0058 54.4688 64.4531C54.4688 66.9004 56.7086 68.8906 59.4609 68.8906C62.2133 68.8906 64.4531 66.9004 64.4531 64.4531V57.7969H68.8906V55.5781H63.3438C62.7303 55.5781 62.2344 56.0751 62.2344 56.6875ZM59.4609 66.6719C57.9311 66.6719 56.6875 65.6768 56.6875 64.4531C56.6875 63.2295 57.9311 62.2344 59.4609 62.2344C60.9908 62.2344 62.2344 63.2295 62.2344 64.4531C62.2344 65.6768 60.9908 66.6719 59.4609 66.6719Z" fill="#C82092"/>
<path d="M4.54688 58.9062V62.4385C4.19853 62.3142 3.828 62.2344 3.4375 62.2344C1.60259 62.2344 0.109375 63.7276 0.109375 65.5625C0.109375 67.3974 1.60259 68.8906 3.4375 68.8906C5.27241 68.8906 6.76562 67.3974 6.76562 65.5625V60.0156H8.98438V57.7969H5.65625C5.04277 57.7969 4.54688 58.2939 4.54688 58.9062ZM3.4375 66.6719C2.82512 66.6719 2.32812 66.1738 2.32812 65.5625C2.32812 64.9512 2.82512 64.4531 3.4375 64.4531C4.04988 64.4531 4.54688 64.9512 4.54688 65.5625C4.54688 66.1738 4.04988 66.6719 3.4375 66.6719Z" fill="#8C02F8"/>
<path d="M3.4375 31.1719C5.27241 31.1719 6.76562 29.6787 6.76562 27.8438V22.2969H8.98438V20.0781H5.65625C5.04277 20.0781 4.54688 20.5751 4.54688 21.1875V24.7197C4.19853 24.5955 3.828 24.5156 3.4375 24.5156C1.60259 24.5156 0.109375 26.0088 0.109375 27.8438C0.109375 29.6787 1.60259 31.1719 3.4375 31.1719ZM3.4375 26.7344C4.04988 26.7344 4.54688 27.2325 4.54688 27.8438C4.54688 28.455 4.04988 28.9531 3.4375 28.9531C2.82512 28.9531 2.32812 28.455 2.32812 27.8438C2.32812 27.2325 2.82512 26.7344 3.4375 26.7344Z" fill="#8B02F9"/>
<defs>
<linearGradient id="paint0_linear_44_1022" x1="0.109375" y1="34.5" x2="68.8906" y2="34.5" gradientUnits="userSpaceOnUse">
<stop stop-color="#8700FF"/>
<stop offset="1" stop-color="#CD2288"/>
</linearGradient>
</defs>
</svg>
