<svg width="30" height="30" viewBox="0 0 30 30" fill="none" xmlns="http://www.w3.org/2000/svg">
<path d="M14.984 10.808C14.7067 10.808 14.472 10.712 14.28 10.52C14.088 10.328 13.992 10.0933 13.992 9.816C13.992 9.53867 14.088 9.304 14.28 9.112C14.472 8.92 14.7067 8.824 14.984 8.824C15.2507 8.824 15.4747 8.92 15.656 9.112C15.848 9.304 15.944 9.53867 15.944 9.816C15.944 10.0933 15.848 10.328 15.656 10.52C15.4747 10.712 15.2507 10.808 14.984 10.808ZM15.688 12.232V21H14.232V12.232H15.688Z" fill="white"/>
<circle cx="15" cy="15" r="14.5" stroke="white"/>
</svg>
