<svg width="40" height="44" viewBox="0 0 40 44" fill="none" xmlns="http://www.w3.org/2000/svg">
<path d="M1.69432 20.1747L11.734 20.1747L11.734 43.0836C11.734 43.5897 12.1443 44 12.6504 44L27.3122 44C27.8182 44 28.2285 43.5897 28.2285 43.0836L28.2285 20.1746L38.3085 20.1746C38.8146 20.1745 39.2248 19.7641 39.2246 19.258C39.2245 19.0156 39.1284 18.7829 38.9573 18.6113L20.6759 0.269403C20.504 0.0969865 20.2705 7.7951e-05 20.0271 -5.95109e-06C19.7839 -0.000436991 19.5505 0.0957811 19.3783 0.267599L1.05112 18.6095C0.692796 18.9669 0.692022 19.5471 1.04949 19.9054C1.22036 20.0768 1.45223 20.1736 1.69432 20.1747Z" fill="#CD2288"/>
<path d="M20.0292 0.0146844C20.2727 0.0147722 20.5061 0.111673 20.678 0.284094L38.9576 18.6187C39.3108 18.981 39.3035 19.5613 38.9411 19.9145C38.7718 20.0795 38.5452 20.1728 38.3088 20.1746L28.2289 20.1746L28.2289 43.0836C28.2288 43.5897 27.8186 44 27.3125 44L12.6507 44C12.1446 44 11.7343 43.5897 11.7343 43.0836L11.7343 20.1746L1.69284 20.1746C1.18675 20.1755 0.775766 19.7659 0.77482 19.2598C0.774393 19.0158 0.871298 18.7817 1.04406 18.6094L19.3712 0.267599C19.5481 0.0989626 19.785 0.00789812 20.0292 0.0146844ZM36.1021 18.3419L20.0274 2.21395L3.8995 18.3419L12.6507 18.3419C13.1568 18.3419 13.5671 18.7522 13.5671 19.2583L13.5671 42.1673L26.3961 42.1673L26.3961 19.2583C26.3961 18.7522 26.8064 18.3419 27.3125 18.3419L36.1021 18.3419Z" fill="white"/>
</svg>
