<svg width="20" height="26" viewBox="0 0 20 26" fill="none" xmlns="http://www.w3.org/2000/svg">
<path d="M9.99936 0C4.72182 0 0.427734 4.29409 0.427734 9.57215C0.427734 10.9489 0.709519 12.2633 1.26484 13.4794C3.65801 18.7162 8.24639 24.2452 9.59597 25.8148C9.69709 25.9321 9.8445 25.9997 9.99963 25.9997C10.1548 25.9997 10.3022 25.9321 10.4033 25.8148C11.7523 24.2454 16.3407 18.7167 18.7347 13.4794C19.2903 12.2633 19.5718 10.9489 19.5718 9.57215C19.5712 4.29409 15.2772 0 9.99936 0ZM9.99936 14.544C7.25788 14.544 5.02729 12.3134 5.02729 9.57189C5.02729 6.83014 7.25788 4.59955 9.99936 4.59955C12.7408 4.59955 14.9714 6.83014 14.9714 9.57189C14.9717 12.3134 12.7411 14.544 9.99936 14.544Z" fill="white"/>
</svg>
