<svg width="100" height="50" viewBox="0 0 100 50" fill="none" xmlns="http://www.w3.org/2000/svg">
<path d="M99.8121 24.2036C99.639 23.8565 99.3577 23.575 99.0104 23.402L52.5838 0.188755C51.7017 -0.252144 50.6291 0.105681 50.1883 0.987898C50.0643 1.23597 49.9999 1.50957 50 1.78694V48.2135C49.9996 49.1997 50.7986 49.9995 51.7848 50C52.0622 50.0001 52.3358 49.9357 52.5839 49.8117L99.0104 26.5983C99.8931 26.1584 100.252 25.0863 99.8121 24.2036ZM53.5712 45.3243V4.67601L94.2195 25.0002L53.5712 45.3243Z" fill="#55287D"/>
<path fill-rule="evenodd" clip-rule="evenodd" d="M98.5644 24.297L98.5632 24.2964L52.1367 1.08325C52.1366 1.08323 52.1367 1.08327 52.1367 1.08325C51.7487 0.889421 51.2768 1.04671 51.0829 1.43486C51.0284 1.54386 51 1.66435 51 1.78656V48.2135C50.9998 48.6474 51.3513 48.9997 51.7852 49M52.5838 0.188755L99.0104 23.402C99.3577 23.575 99.639 23.8565 99.8121 24.2036C100.252 25.0863 99.8931 26.1584 99.0104 26.5983L52.5839 49.8117C52.3358 49.9357 52.0622 50.0001 51.7848 50C50.7986 49.9995 49.9996 49.1997 50 48.2135V1.78694C49.9999 1.50957 50.0643 1.23597 50.1883 0.987898C50.6291 0.105681 51.7017 -0.252144 52.5838 0.188755ZM98.5644 24.297C98.717 24.3731 98.8408 24.4968 98.9171 24.6497L98.5644 24.297ZM98.9171 24.6497C99.1106 25.038 98.9527 25.5098 98.5643 25.7034L98.5632 25.7039L52.1368 48.9172C52.0279 48.9716 51.9074 49 51.7852 49M52.5712 46.9423V3.05797L96.4556 25.0002L52.5712 46.9423ZM53.5712 4.67601L94.2195 25.0002L53.5712 45.3243V4.67601Z" fill="#55287D"/>
<g clip-path="url(#clip0_59_1035)">
<g filter="url(#filter0_d_59_1035)">
<path d="M49.8121 24.2036C49.639 23.8565 49.3577 23.575 49.0104 23.402L2.58377 0.188755C1.70166 -0.252144 0.629124 0.105681 0.188329 0.987898C0.0643459 1.23597 -0.000104463 1.50957 1.64325e-07 1.78694V48.2135C-0.000418345 49.1997 0.79862 49.9995 1.78484 50C2.0622 50.0001 2.3358 49.9357 2.58387 49.8117L49.0104 26.5983C49.8931 26.1584 50.2519 25.0863 49.8121 24.2036ZM3.57124 45.3243V4.67601L44.2195 25.0002L3.57124 45.3243Z" fill="#55287D"/>
<path fill-rule="evenodd" clip-rule="evenodd" d="M48.5644 24.297L48.5632 24.2964L2.13668 1.08325C2.13664 1.08323 2.13673 1.08327 2.13668 1.08325C1.74873 0.889421 1.27682 1.04671 1.08288 1.43486C1.0284 1.54386 0.999954 1.66435 1 1.78656V48.2135C0.999816 48.6474 1.35128 48.9997 1.78521 49M2.58377 0.188755L49.0104 23.402C49.3577 23.575 49.639 23.8565 49.8121 24.2036C50.2519 25.0863 49.8931 26.1584 49.0104 26.5983L2.58387 49.8117C2.3358 49.9357 2.0622 50.0001 1.78484 50C0.79862 49.9995 -0.00041818 49.1997 1.64196e-07 48.2135V1.78694C-0.000104299 1.50957 0.0643461 1.23597 0.188329 0.987898C0.629124 0.105681 1.70166 -0.252144 2.58377 0.188755ZM48.5644 24.297C48.717 24.3731 48.8408 24.4968 48.9171 24.6497L48.5644 24.297ZM48.9171 24.6497C49.1106 25.038 48.9527 25.5098 48.5643 25.7034L48.5632 25.7039L2.13681 48.9172C2.02786 48.9716 1.90737 49 1.78521 49M2.57124 46.9423V3.05797L46.4556 25.0002L2.57124 46.9423ZM3.57124 4.67601L44.2195 25.0002L3.57124 45.3243V4.67601Z" fill="#55287D"/>
</g>
</g>
<defs>
<filter id="filter0_d_59_1035" x="-4" y="0" width="58" height="58" filterUnits="userSpaceOnUse" color-interpolation-filters="sRGB">
<feFlood flood-opacity="0" result="BackgroundImageFix"/>
<feColorMatrix in="SourceAlpha" type="matrix" values="0 0 0 0 0 0 0 0 0 0 0 0 0 0 0 0 0 0 127 0" result="hardAlpha"/>
<feOffset dy="4"/>
<feGaussianBlur stdDeviation="2"/>
<feComposite in2="hardAlpha" operator="out"/>
<feColorMatrix type="matrix" values="0 0 0 0 0 0 0 0 0 0 0 0 0 0 0 0 0 0 0.25 0"/>
<feBlend mode="normal" in2="BackgroundImageFix" result="effect1_dropShadow_59_1035"/>
<feBlend mode="normal" in="SourceGraphic" in2="effect1_dropShadow_59_1035" result="shape"/>
</filter>
<clipPath id="clip0_59_1035">
<rect width="49.9999" height="49.9999" fill="white"/>
</clipPath>
</defs>
</svg>
