<svg width="83" height="83" viewBox="0 0 83 83" fill="none" xmlns="http://www.w3.org/2000/svg">
<path d="M10.6153 21.2308C13.507 21.2308 15.8596 18.8783 15.8596 15.9866C15.8596 13.0949 13.507 10.7422 10.6153 10.7422C7.72363 10.7422 5.37109 13.0949 5.37109 15.9866C5.37109 18.8783 7.72363 21.2308 10.6153 21.2308ZM10.6153 13.174C12.1662 13.174 13.4279 14.4357 13.4279 15.9868C13.4279 17.5375 12.1662 18.7994 10.6153 18.7994C9.06443 18.7994 7.80273 17.5377 7.80273 15.9868C7.80273 14.4357 9.06443 13.174 10.6153 13.174V13.174Z" fill="url(#paint0_linear_59_933)"/>
<path d="M10.6153 34.6589C13.507 34.6589 15.8596 32.3064 15.8596 29.4147C15.8596 26.5229 13.507 24.1704 10.6153 24.1704C7.72363 24.1704 5.37109 26.5231 5.37109 29.4148C5.37109 32.3065 7.72363 34.6589 10.6153 34.6589ZM10.6153 26.6021C12.1662 26.6021 13.4279 27.8638 13.4279 29.4148C13.4279 30.9656 12.1662 32.2274 10.6153 32.2274C9.06443 32.2274 7.80273 30.9657 7.80273 29.4148C7.80273 27.8638 9.06443 26.6021 10.6153 26.6021Z" fill="url(#paint1_linear_59_933)"/>
<path d="M79.1904 5.37117H74.9432V2.55857C74.9432 1.14773 73.7953 0 72.3846 0H10.6154C9.20473 0 8.05684 1.14773 8.05684 2.55857V5.37117H3.80957C1.70896 5.37117 0 7.08013 0 9.18074V13.5549C0 14.2266 0.544363 14.7708 1.21582 14.7708C1.88728 14.7708 2.43164 14.2266 2.43164 13.5549V9.18074C2.43164 8.42093 3.04976 7.80281 3.80957 7.80281H17.4214C18.1812 7.80281 18.7993 8.42093 18.7993 9.18074V21.4848C18.7993 21.9101 18.7993 22.029 18.7993 22.7007C18.7993 23.3723 18.7993 23.3554 18.7993 23.9165V36.2206C18.7993 36.9804 18.1812 37.5985 17.4214 37.5985H3.80957C3.04976 37.5985 2.43164 36.9804 2.43164 36.2206V23.9165C2.43164 23.2942 2.43164 23.3723 2.43164 22.7007C2.43164 22.029 2.43164 22.0745 2.43164 21.4848V12.9003C2.43164 12.2287 1.88728 11.6845 1.21582 11.6845C0.544363 11.6845 0 12.2287 0 12.9003L0 36.2206C0 38.3212 1.70896 40.0302 3.80957 40.0302H6.71392V42.9697H5.24424C3.8334 42.9697 2.68567 44.1174 2.68567 45.5283V48.2139C2.68567 49.6248 3.83356 50.7725 5.24424 50.7725H5.37117V60.0121L0.128391 70.498C0.124176 70.5066 0.121096 70.5153 0.117043 70.5239C0.10602 70.5472 0.0954824 70.5707 0.085918 70.5949C0.0799199 70.61 0.0745703 70.6252 0.0693828 70.6403C0.0617637 70.662 0.0544687 70.6839 0.0481465 70.7063C0.0427969 70.7249 0.0382578 70.7436 0.0337187 70.7622C0.0291797 70.7812 0.0249648 70.8001 0.0213984 70.8194C0.0171836 70.842 0.0139414 70.8645 0.0110234 70.887C0.00891602 70.9032 0.0069707 70.9196 0.00551172 70.936C0.00324219 70.9614 0.00226953 70.9869 0.00162109 71.0123C0.00129688 71.0224 0 71.0319 0 71.0417V75.0701C0 76.4809 1.14773 77.6288 2.55857 77.6288H2.68567V80.4414C2.68567 81.8523 3.8334 83 5.24424 83H53.8391C54.5106 83 55.0549 82.4558 55.0549 81.7842C55.0549 81.1126 54.5106 80.5684 53.8391 80.5684H45.395C45.3971 80.526 45.4015 80.4842 45.4015 80.4414V77.6288H77.8827V80.4414C77.8827 80.5115 77.8256 80.5684 77.7558 80.5684H58.7024C58.0309 80.5684 57.4866 81.1126 57.4866 81.7842C57.4866 82.4558 58.0309 83 58.7024 83H77.7558C79.1666 83 80.3143 81.8523 80.3143 80.4414V77.6288H80.4414C81.8523 77.6288 83 76.4809 83 75.0701V71.0417C83 71.0319 82.9987 71.0224 82.9985 71.0127C82.9979 70.9872 82.9969 70.9618 82.9947 70.9363C82.9932 70.9198 82.9911 70.9036 82.9891 70.8873C82.9862 70.8648 82.983 70.8423 82.9788 70.8198C82.9752 70.8005 82.971 70.7815 82.9664 70.7625C82.9621 70.7437 82.9574 70.7251 82.952 70.7066C82.9457 70.6842 82.9384 70.6623 82.9308 70.6406C82.9254 70.6254 82.9201 70.6103 82.9141 70.5952C82.9045 70.5711 82.894 70.5476 82.883 70.5242C82.8789 70.5156 82.8758 70.5067 82.8716 70.4983L77.6288 60.0126V50.7727H77.7558C79.1666 50.7727 80.3143 49.6249 80.3143 48.2141V45.5284C80.3143 44.1176 79.1666 42.9698 77.7558 42.9698H76.2861V40.0303H79.1904C81.291 40.0303 83 38.3214 83 36.2207V9.18074C83 7.08013 81.291 5.37117 79.1904 5.37117ZM10.4885 5.37117V2.55857C10.4885 2.48854 10.5455 2.43164 10.6154 2.43164H72.3844C72.4545 2.43164 72.5114 2.4887 72.5114 2.55857V5.37117H10.4885ZM68.4831 40.0303V42.9698H58.8295V40.0303H65.5786H68.356H68.4831ZM79.817 69.8259H45.4015V68.3562C45.4015 66.205 43.6514 64.4547 41.5 64.4547H20.0152C17.8638 64.4547 16.1137 66.205 16.1137 68.3562V69.8259H3.18302L7.33837 61.515H75.6615L79.817 69.8259ZM42.9698 59.0835H40.0302V56.1438H42.9698V59.0835ZM44.1857 53.7122H38.8143H27.9801C27.2203 53.7122 26.6021 53.0939 26.6021 52.3343V30.6657C26.6021 29.9059 27.2203 29.2878 27.9801 29.2878H55.0199C55.7797 29.2878 56.3978 29.9059 56.3978 30.6657V52.3343C56.3978 53.0939 55.7797 53.7122 55.0199 53.7122H44.1857ZM58.8295 37.5987V34.659H61.769V36.2207C61.769 36.7066 61.8614 37.171 62.0279 37.5987H58.8295ZM62.0281 7.80281C61.8616 8.23045 61.7692 8.6949 61.7692 9.18074V32.2273H58.8295V30.6657C58.8295 28.5651 57.1205 26.8562 55.0199 26.8562H27.9801C25.8795 26.8562 24.1705 28.5651 24.1705 30.6657V32.2273H21.231V9.18074C21.231 8.6949 21.1386 8.23045 20.9721 7.80281H62.0281ZM21.231 36.2207V34.659H24.1705V37.5987H20.9719C21.1386 37.1709 21.231 36.7066 21.231 36.2207ZM17.4214 40.0303H24.1705V42.9698H14.5169V40.0303H14.644H17.4214ZM9.14556 40.0303H12.0853V42.9698H9.14556V40.0303ZM5.11731 48.2141V45.5284C5.11731 45.4584 5.17437 45.4015 5.24424 45.4015H24.1705V48.341H5.24424C5.17421 48.341 5.11731 48.2841 5.11731 48.2141ZM24.1705 50.7727V52.3343C24.1705 54.4349 25.8795 56.1438 27.9801 56.1438H37.5985V59.0835H7.80281V50.7727H24.1705ZM2.43164 75.0701V72.2575H16.1137V75.1972H2.55857C2.4887 75.1972 2.43164 75.1403 2.43164 75.0701ZM5.11731 80.4414V77.6288H16.1137V80.4414C16.1137 80.4842 16.118 80.526 16.1202 80.5684H5.24424C5.17421 80.5684 5.11731 80.5113 5.11731 80.4414ZM29.2876 80.5684V77.6288H32.2273V80.5684H29.2876ZM33.4432 75.1972H28.072H26.6832C26.6385 75.1972 26.6021 75.1607 26.6021 75.1161V72.3385C26.6021 72.294 26.6385 72.2575 26.6832 72.2575H34.832C34.8767 72.2575 34.913 72.294 34.913 72.3385V75.1161C34.913 75.1607 34.8767 75.1972 34.832 75.1972H33.4432ZM34.659 80.5684V77.6288H34.832C36.2175 77.6288 37.3446 76.5017 37.3446 75.1161V72.3385C37.3446 70.953 36.2175 69.8259 34.832 69.8259H26.6832C25.2977 69.8259 24.1705 70.953 24.1705 72.3385V75.1161C24.1705 76.5017 25.2977 77.6288 26.6832 77.6288H26.856V80.5684H18.6722C18.6022 80.5684 18.5453 80.5113 18.5453 80.4414V68.3562C18.5453 67.5456 19.2046 66.8863 20.0152 66.8863H41.5C42.3104 66.8863 42.9698 67.5456 42.9698 68.3562V80.4414C42.9698 80.5115 42.9128 80.5684 42.8428 80.5684H34.659ZM80.5684 75.0701C80.5684 75.1403 80.5113 75.1972 80.4414 75.1972H45.4015V72.2575H80.5684V75.0701ZM75.1972 59.0835H45.4015V56.1438H55.0199C57.1205 56.1438 58.8295 54.4349 58.8295 52.3343V50.7727H75.1972V59.0835ZM77.8827 45.5284V48.2141C77.8827 48.2841 77.8256 48.341 77.7558 48.341H58.8295V45.4013H77.7558C77.8256 45.4013 77.8827 45.4584 77.8827 45.5284ZM73.8543 42.9697H70.9147V40.0302H73.8543V42.9697ZM79.1904 37.5987H75.0701H69.6989H68.356H65.5786C64.8188 37.5987 64.2007 36.9806 64.2007 36.2207V23.9166C64.2007 23.2366 64.2007 23.2347 64.2007 22.5631C64.2007 21.8915 64.2007 21.9112 64.2007 21.485V9.1809C64.2007 8.42109 64.8188 7.80297 65.5786 7.80297H79.1904C79.9502 7.80297 80.5684 8.42109 80.5684 9.1809V21.485C80.5825 22.1602 80.5825 21.8915 80.5825 22.5631C80.5825 23.2347 80.5825 23.3689 80.5684 23.9166V36.2207C80.5684 36.9804 79.9502 37.5987 79.1904 37.5987Z" fill="url(#paint2_linear_59_933)"/>
<path d="M72.3849 10.7427C69.4932 10.7427 67.1406 13.0954 67.1406 15.9871C67.1406 18.8788 69.4932 21.2313 72.3849 21.2313C75.2766 21.2313 77.6291 18.8788 77.6291 15.9871C77.6291 13.0954 75.2764 10.7427 72.3849 10.7427ZM72.3849 18.7995C70.834 18.7995 69.5723 17.5378 69.5723 15.9869C69.5723 14.436 70.834 13.1742 72.3849 13.1742C73.9358 13.1742 75.1975 14.4359 75.1975 15.9869C75.1975 17.5378 73.9356 18.7995 72.3849 18.7995V18.7995Z" fill="url(#paint3_linear_59_933)"/>
<path d="M72.3849 24.1704C69.4932 24.1704 67.1406 26.5231 67.1406 29.4148C67.1406 32.3065 69.4932 34.659 72.3849 34.659C75.2766 34.659 77.6291 32.3065 77.6291 29.4148C77.6291 26.5231 75.2764 24.1704 72.3849 24.1704ZM72.3849 32.2272C70.834 32.2272 69.5723 30.9655 69.5723 29.4146C69.5723 27.8637 70.834 26.6019 72.3849 26.6019C73.9358 26.6019 75.1975 27.8636 75.1975 29.4146C75.1975 30.9655 73.9356 32.2272 72.3849 32.2272Z" fill="url(#paint4_linear_59_933)"/>
<path d="M50.9459 31.7275H32.0547C30.393 31.7275 29.042 33.0785 29.042 34.7402V48.2602C29.042 49.9218 30.393 51.2729 32.0547 51.2729H50.9458C52.6075 51.2729 53.9585 49.9218 53.9585 48.2602V34.7403C53.9585 34.7403 53.9585 34.7403 53.9585 34.7402C53.9586 33.0785 52.6074 31.7275 50.9459 31.7275ZM50.5268 35.1592L50.527 47.8412H32.4736V35.1592H50.5268Z" fill="url(#paint5_linear_59_933)" stroke="white"/>
<path d="M14.6436 56.144H17.3292C18.0007 56.144 18.545 55.5998 18.545 54.9282C18.545 54.2566 18.0007 53.7124 17.3292 53.7124H14.6436C13.9721 53.7124 13.4277 54.2566 13.4277 54.9282C13.4277 55.5998 13.9721 56.144 14.6436 56.144Z" fill="url(#paint6_linear_59_933)"/>
<path d="M65.6709 56.144H68.3564C69.0278 56.144 69.5722 55.5998 69.5722 54.9282C69.5722 54.2566 69.0278 53.7124 68.3564 53.7124H65.6709C64.9994 53.7124 64.4551 54.2566 64.4551 54.9282C64.4551 55.5998 64.9994 56.144 65.6709 56.144Z" fill="url(#paint7_linear_59_933)"/>
<path d="M54.9276 66.8862H57.6132C58.2847 66.8862 58.829 66.342 58.829 65.6704C58.829 64.9988 58.2847 64.4546 57.6132 64.4546H54.9277C54.2563 64.4546 53.7119 64.9988 53.7119 65.6704C53.7118 66.3419 54.2561 66.8862 54.9276 66.8862V66.8862Z" fill="url(#paint8_linear_59_933)"/>
<path d="M65.6709 66.8862H68.3564C69.0278 66.8862 69.5722 66.342 69.5722 65.6704C69.5722 64.9988 69.0278 64.4546 68.3564 64.4546H65.6709C64.9994 64.4546 64.4551 64.9988 64.4551 65.6704C64.4551 66.3419 64.9994 66.8862 65.6709 66.8862Z" fill="url(#paint9_linear_59_933)"/>
<defs>
<linearGradient id="paint0_linear_59_933" x1="10.6153" y1="10.7422" x2="10.6153" y2="21.2308" gradientUnits="userSpaceOnUse">
<stop offset="0.9999" stop-color="#55287D"/>
<stop offset="1" stop-color="#CD2288"/>
</linearGradient>
<linearGradient id="paint1_linear_59_933" x1="10.6153" y1="24.1704" x2="10.6153" y2="34.6589" gradientUnits="userSpaceOnUse">
<stop offset="0.9999" stop-color="#55287D"/>
<stop offset="1" stop-color="#CD2288"/>
</linearGradient>
<linearGradient id="paint2_linear_59_933" x1="41.5" y1="0" x2="41.5" y2="83" gradientUnits="userSpaceOnUse">
<stop offset="0.770833" stop-color="#55287D"/>
<stop offset="1" stop-color="#CD2288"/>
</linearGradient>
<linearGradient id="paint3_linear_59_933" x1="72.3849" y1="10.7427" x2="72.3849" y2="21.2313" gradientUnits="userSpaceOnUse">
<stop offset="0.9999" stop-color="#55287D"/>
<stop offset="1" stop-color="#CD2288"/>
</linearGradient>
<linearGradient id="paint4_linear_59_933" x1="72.3849" y1="24.1704" x2="72.3849" y2="34.659" gradientUnits="userSpaceOnUse">
<stop offset="0.9999" stop-color="#55287D"/>
<stop offset="1" stop-color="#CD2288"/>
</linearGradient>
<linearGradient id="paint5_linear_59_933" x1="41.5002" y1="32.2275" x2="41.5002" y2="50.7729" gradientUnits="userSpaceOnUse">
<stop offset="0.9999" stop-color="#55287D"/>
<stop offset="1" stop-color="#CD2288"/>
</linearGradient>
<linearGradient id="paint6_linear_59_933" x1="15.9864" y1="53.7124" x2="15.9864" y2="56.144" gradientUnits="userSpaceOnUse">
<stop offset="0.598958" stop-color="#55287D"/>
<stop offset="1" stop-color="#CD2288"/>
</linearGradient>
<linearGradient id="paint7_linear_59_933" x1="67.0136" y1="53.7124" x2="67.0136" y2="56.144" gradientUnits="userSpaceOnUse">
<stop offset="0.598958" stop-color="#55287D"/>
<stop offset="1" stop-color="#CD2288"/>
</linearGradient>
<linearGradient id="paint8_linear_59_933" x1="56.2705" y1="64.4546" x2="56.2705" y2="66.8862" gradientUnits="userSpaceOnUse">
<stop offset="0.598958" stop-color="#55287D"/>
<stop offset="1" stop-color="#CD2288"/>
</linearGradient>
<linearGradient id="paint9_linear_59_933" x1="67.0136" y1="64.4546" x2="67.0136" y2="66.8862" gradientUnits="userSpaceOnUse">
<stop offset="0.598958" stop-color="#55287D"/>
<stop offset="1" stop-color="#CD2288"/>
</linearGradient>
</defs>
</svg>
