<svg width="27" height="22" viewBox="0 0 27 22" fill="none" xmlns="http://www.w3.org/2000/svg">
<path d="M26.4634 2.67208C25.5099 3.09865 24.4722 3.40564 23.4034 3.52521C24.5131 2.84153 25.3441 1.76144 25.7405 0.487567C24.6992 1.12996 23.5584 1.58042 22.3688 1.81896C21.8717 1.26774 21.2703 0.828622 20.6023 0.528954C19.9343 0.229286 19.214 0.0754946 18.4862 0.0771618C15.5414 0.0771618 13.1732 2.55252 13.1732 5.59016C13.1732 6.01672 13.223 6.44328 13.304 6.85369C8.89474 6.61456 4.96219 4.43004 2.34776 1.0854C1.87139 1.9292 1.62175 2.88997 1.62482 3.86775C1.62482 5.78082 2.56277 7.46768 3.99308 8.45976C3.15018 8.42534 2.32702 8.18508 1.59055 7.75852V7.82638C1.59055 10.5053 3.41659 12.7254 5.85028 13.236C5.39333 13.3591 4.92326 13.422 4.45115 13.4234C4.10526 13.4234 3.77806 13.3879 3.44775 13.3394C4.12084 15.5239 6.08088 17.1106 8.41485 17.1623C6.58881 18.6456 4.30157 19.5181 1.81802 19.5181C1.37242 19.5181 0.961088 19.5019 0.53418 19.4502C2.88997 21.0175 5.68513 21.9223 8.6953 21.9223C18.4675 21.9223 23.8147 13.5268 23.8147 6.2397C23.8147 6.00056 23.8147 5.76143 23.7991 5.5223C24.8337 4.73703 25.7405 3.76434 26.4634 2.67208Z" fill="white"/>
</svg>
