<svg width="38" height="38" viewBox="0 0 38 38" fill="none" xmlns="http://www.w3.org/2000/svg">
<path d="M20.1402 13.0625H16.4023C16.1974 13.0625 16.0312 13.2287 16.0312 13.4336V17.4414C16.0312 17.6463 16.1974 17.8125 16.4023 17.8125H20.1875C21.4834 17.8125 22.5402 16.7693 22.5621 15.4786C22.5848 14.15 21.469 13.0625 20.1402 13.0625Z" fill="white"/>
<path d="M20.1402 20.1875H16.4023C16.1974 20.1875 16.0312 20.3537 16.0312 20.5586V24.5664C16.0312 24.7713 16.1974 24.9375 16.4023 24.9375H20.1875C21.4834 24.9375 22.5402 23.8943 22.5621 22.6036C22.5848 21.275 21.469 20.1875 20.1402 20.1875Z" fill="white"/>
<path d="M32.4351 5.56492C28.8465 1.9763 24.0751 0 19 0C13.9249 0 9.15355 1.9763 5.56492 5.56492C1.9763 9.15355 0 13.9249 0 19C0 24.0751 1.97637 28.8464 5.56492 32.4351C9.15347 36.0238 13.9249 38 19 38C24.0751 38 28.8465 36.0237 32.4351 32.4351C36.0237 28.8465 38 24.0751 38 19C38 13.9249 36.0236 9.15362 32.4351 5.56492ZM24.9375 22.5625C24.9375 24.4689 23.8081 26.1156 22.1837 26.8711C22.0528 26.932 21.9688 27.0627 21.9688 27.207V28.4665C21.9688 29.1059 21.4773 29.6561 20.8386 29.6862C20.1566 29.7182 19.5938 29.1749 19.5938 28.5V27.6836C19.5938 27.4787 19.4276 27.3125 19.2227 27.3125H17.5898C17.3849 27.3125 17.2188 27.4787 17.2188 27.6836V28.4665C17.2188 29.1059 16.7273 29.6561 16.0886 29.6862C15.4066 29.7182 14.8438 29.1749 14.8438 28.5V27.6836C14.8438 27.4787 14.6776 27.3125 14.4727 27.3125H12.5023C11.8629 27.3125 11.3127 26.8211 11.2826 26.1824C11.2504 25.5005 11.7938 24.9375 12.4688 24.9375H13.2852C13.4901 24.9375 13.6562 24.7713 13.6562 24.5664V19V13.4336C13.6562 13.2287 13.4901 13.0625 13.2852 13.0625H12.5023C11.8629 13.0625 11.3127 12.5711 11.2826 11.9324C11.2504 11.2505 11.7938 10.6875 12.4688 10.6875H14.4727C14.6776 10.6875 14.8438 10.5213 14.8438 10.3164V9.53355C14.8438 8.89408 15.3352 8.34389 15.9739 8.31384C16.6559 8.28177 17.2188 8.82513 17.2188 9.5V10.3164C17.2188 10.5213 17.3849 10.6875 17.5898 10.6875H19.2227C19.4276 10.6875 19.5938 10.5213 19.5938 10.3164V9.53355C19.5938 8.89408 20.0852 8.34389 20.7239 8.31384C21.4059 8.28177 21.9688 8.82513 21.9688 9.5V10.793C21.9688 10.9373 22.0528 11.068 22.1837 11.1289C23.8081 11.8844 24.9375 13.5311 24.9375 15.4375C24.9375 16.7203 24.4257 17.8853 23.5962 18.7407C23.4556 18.8856 23.4556 19.1143 23.5962 19.2592C24.4257 20.1147 24.9375 21.2797 24.9375 22.5625Z" fill="white"/>
</svg>
