<svg width="38" height="30" viewBox="0 0 38 30" fill="none" xmlns="http://www.w3.org/2000/svg">
<path d="M0 5.5C0 4.24022 0.500445 3.03204 1.39124 2.14124C2.28204 1.25044 3.49022 0.75 4.75 0.75H33.25C34.5098 0.75 35.718 1.25044 36.6088 2.14124C37.4996 3.03204 38 4.24022 38 5.5V7.875H0V5.5Z" fill="white"/>
<path fill-rule="evenodd" clip-rule="evenodd" d="M0 12.625V24.5C0 25.7598 0.500445 26.968 1.39124 27.8588C2.28204 28.7496 3.49022 29.25 4.75 29.25H33.25C34.5098 29.25 35.718 28.7496 36.6088 27.8588C37.4996 26.968 38 25.7598 38 24.5V12.625H0ZM7.125 17.375C6.49511 17.375 5.89102 17.6252 5.44562 18.0706C5.00022 18.516 4.75 19.1201 4.75 19.75V22.125C4.75 22.7549 5.00022 23.359 5.44562 23.8044C5.89102 24.2498 6.49511 24.5 7.125 24.5H9.5C10.1299 24.5 10.734 24.2498 11.1794 23.8044C11.6248 23.359 11.875 22.7549 11.875 22.125V19.75C11.875 19.1201 11.6248 18.516 11.1794 18.0706C10.734 17.6252 10.1299 17.375 9.5 17.375H7.125Z" fill="white"/>
</svg>
