<svg width="67" height="63" viewBox="0 0 67 63" fill="none" xmlns="http://www.w3.org/2000/svg">
<path d="M66.0186 15.4707H52.4114C51.9285 11.7625 48.7517 8.88899 44.9141 8.88899H16.8835C15.6101 8.88899 14.5741 7.85298 14.5741 6.57959C14.5741 5.30632 15.6101 4.27031 16.8835 4.27031H37.6221C37.5645 4.9513 37.7094 5.86719 38.6035 5.86719H48.3993C49.2672 5.86719 49.4503 4.95013 49.3807 4.27031H50.9697C52.198 4.27031 52.2538 2.30742 50.9697 2.30742H49.3807C49.4419 1.61203 49.3286 0.632812 48.3993 0.632812H38.6035C37.6997 0.632812 37.549 1.6136 37.6221 2.30742H16.8835C14.5277 2.30742 12.6112 4.22399 12.6112 6.57959C12.6112 8.93519 14.5277 10.8519 16.8835 10.8519H44.9141C47.6672 10.8519 49.9609 12.8493 50.4265 15.4707H0.981445C0.439426 15.4707 0 15.91 0 16.4521V55.3095C0 58.0116 2.02976 60.2308 4.72128 60.4714L18.5299 61.7049C23.4966 62.1485 28.4983 62.3703 33.4999 62.3703C38.5014 62.3703 43.5032 62.1485 48.4698 61.7049C49.6932 61.5955 49.5742 59.6397 48.2952 59.7497C38.4778 60.6266 28.5218 60.6266 18.7045 59.7497L4.89584 58.5164C3.22385 58.3668 1.96289 56.9882 1.96289 55.3095V17.4336H65.0371V55.3095C65.0371 56.9882 63.7761 58.3668 62.104 58.5162L52.8298 59.3446C51.6064 59.454 51.7257 61.4101 53.0043 61.2998L62.2787 60.4713C64.9702 60.2308 67 58.0116 67 55.3095V16.4521C67 15.91 66.5606 15.4707 66.0186 15.4707ZM39.585 2.59557H47.4178V3.90417H39.585V2.59557Z" fill="url(#paint0_linear_44_1071)"/>
<path d="M25.5602 30.9307C25.5602 30.3885 25.1208 29.9492 24.5788 29.9492H14.3499C13.8079 29.9492 13.3685 30.3885 13.3685 30.9307C13.3685 31.4728 13.8079 31.9121 14.3499 31.9121H23.5973V35.1836H8.03516V31.9121H9.90082C10.4428 31.9121 10.8823 31.4728 10.8823 30.9307C10.8823 30.3885 10.4428 29.9492 9.90082 29.9492H7.05371C6.51169 29.9492 6.07227 30.3885 6.07227 30.9307V36.165C6.07227 36.7072 6.51169 37.1465 7.05371 37.1465H24.5788C25.1208 37.1465 25.5602 36.7072 25.5602 36.165V30.9307Z" fill="url(#paint1_linear_44_1071)"/>
<path d="M9.0166 27.9863C10.6402 27.9863 11.9609 26.6654 11.9609 25.042C11.9609 23.4186 10.6402 22.0977 9.0166 22.0977C7.39303 22.0977 6.07227 23.4186 6.07227 25.042C6.07227 26.6654 7.39303 27.9863 9.0166 27.9863ZM9.0166 24.0605C9.55784 24.0605 9.99805 24.5008 9.99805 25.042C9.99805 25.5832 9.55784 26.0234 9.0166 26.0234C8.47537 26.0234 8.03516 25.5832 8.03516 25.042C8.03516 24.5008 8.47537 24.0605 9.0166 24.0605Z" fill="#BC2387"/>
<path d="M15.8174 27.9863C17.441 27.9863 18.7617 26.6654 18.7617 25.042C18.7617 23.4186 17.441 22.0977 15.8174 22.0977C14.1938 22.0977 12.873 23.4186 12.873 25.042C12.873 26.6654 14.1938 27.9863 15.8174 27.9863ZM15.8174 24.0605C16.3586 24.0605 16.7988 24.5008 16.7988 25.042C16.7988 25.5832 16.3586 26.0234 15.8174 26.0234C15.2761 26.0234 14.8359 25.5832 14.8359 25.042C14.8359 24.5008 15.2761 24.0605 15.8174 24.0605Z" fill="#C125A6"/>
<path d="M10.4536 38.4561C9.91155 38.4561 9.47212 38.8953 9.47212 39.4375V44.3664H7.05371C6.51169 44.3664 6.07227 44.8057 6.07227 45.3479V53.1777C6.07227 53.7199 6.51169 54.1592 7.05371 54.1592H13.8533C14.3953 54.1592 14.8347 53.7199 14.8347 53.1777V45.3479C14.8347 44.8057 14.3953 44.3664 13.8533 44.3664H11.435V39.4375C11.435 38.8953 10.9956 38.4561 10.4536 38.4561ZM12.872 52.1963H8.03516V46.3293H12.8719V52.1963H12.872Z" fill="#BA2487"/>
<path d="M21.18 54.1595C21.722 54.1595 22.1614 53.7202 22.1614 53.1781V51.2034H24.5797C25.1217 51.2034 25.5612 50.7641 25.5612 50.222V42.3927C25.5612 41.8505 25.1217 41.4112 24.5797 41.4112H22.1614V39.4379C22.1614 38.2096 20.1986 38.1537 20.1986 39.4379V41.4112H17.7803C17.2383 41.4112 16.7988 41.8505 16.7988 42.3927V50.222C16.7988 50.7641 17.2383 51.2034 17.7803 51.2034H20.1986V53.1781C20.1986 53.7201 20.638 54.1595 21.18 54.1595ZM18.7617 43.3741H23.5983V49.2405H18.7617V43.3741Z" fill="#BE26AF"/>
<path d="M60.2627 54.1592C60.8047 54.1592 61.2441 53.7199 61.2441 53.1777V22.4258C61.2441 21.8836 60.8047 21.4443 60.2627 21.4443H29.5107C28.9687 21.4443 28.5293 21.8836 28.5293 22.4258V53.1777C28.5293 53.7199 28.9687 54.1592 29.5107 54.1592H60.2627ZM53.5561 38.7832H59.2812V44.5083H53.5561V38.7832ZM59.2812 36.8203H53.5561V31.0952H59.2812V36.8203ZM51.5933 36.8203H45.8682V31.0952H51.5933V36.8203ZM43.9053 36.8203H38.1802V31.0952H43.9053V36.8203ZM36.2173 36.8203H30.4922V31.0952H36.2173V36.8203ZM30.4922 38.7832H36.2173V44.5083H30.4922V38.7832ZM38.1802 38.7832H43.9053V44.5083H38.1802V38.7832ZM45.8682 38.7832H51.5933V44.5083H45.8682V38.7832ZM59.2812 52.1963H53.5561V46.4712H59.2812V52.1963ZM59.2812 29.1323H53.5561V23.4072H59.2812V29.1323ZM51.5933 29.1323H45.8682V23.4072H51.5933V29.1323ZM43.9053 29.1323H38.1802V23.4072H43.9053V29.1323ZM30.4922 23.4072H36.2173V29.1323H30.4922V23.4072ZM30.4922 46.4712H36.2173V52.1963H30.4922V46.4712ZM38.1802 46.4712H43.9053V52.1963H38.1802V46.4712ZM45.8682 46.4712H51.5933V52.1963H45.8682V46.4712Z" fill="url(#paint2_linear_44_1071)"/>
<defs>
<linearGradient id="paint0_linear_44_1071" x1="9.74953e-10" y1="31.5016" x2="67" y2="31.5016" gradientUnits="userSpaceOnUse">
<stop stop-color="#CD2288"/>
<stop offset="1" stop-color="#9C2DFF"/>
</linearGradient>
<linearGradient id="paint1_linear_44_1071" x1="6.24527" y1="37.1465" x2="25.5504" y2="37.1465" gradientUnits="userSpaceOnUse">
<stop stop-color="#C12387"/>
<stop offset="1" stop-color="#BC26B4"/>
</linearGradient>
<linearGradient id="paint2_linear_44_1071" x1="28.3896" y1="37.662" x2="61.3218" y2="37.662" gradientUnits="userSpaceOnUse">
<stop stop-color="#992584"/>
<stop offset="1" stop-color="#A900FF"/>
</linearGradient>
</defs>
</svg>
