<svg width="69" height="67" viewBox="0 0 69 67" fill="none" xmlns="http://www.w3.org/2000/svg">
<path d="M11.666 33.4879C11.666 47.0342 22.6866 58.0549 36.233 58.0549C40.8728 58.0549 45.3912 56.7548 49.2999 54.2953C49.7723 53.9981 49.9142 53.374 49.617 52.9016C49.3197 52.4291 48.6954 52.2872 48.2232 52.5845C45.8614 54.0707 43.2558 55.0921 40.5359 55.6185L38.9048 48.3777C38.5608 46.8502 38.9244 45.2729 39.9022 44.0502C40.8801 42.8275 42.3389 42.1261 43.9046 42.1261H46.7824C47.3408 42.1261 47.7932 41.6736 47.7932 41.1154C47.7932 40.5572 47.3408 40.1047 46.7824 40.1047H43.9046C41.7214 40.1047 39.6872 41.0825 38.3235 42.7876C36.9599 44.4926 36.4529 46.692 36.9328 48.8218L38.5307 55.916C37.7701 55.9934 37.0034 56.0338 36.2327 56.0338C32.9789 56.0338 29.8847 55.3399 27.0883 54.094L28.8608 45.6725C29.2659 43.7483 28.7874 41.769 27.5485 40.242C26.3096 38.715 24.4712 37.8393 22.5047 37.8393H14.1101C13.8337 36.4308 13.6872 34.9764 13.6872 33.4883C13.6872 32.9905 13.7049 32.4934 13.7376 31.998L23.394 31.8528C25.6555 31.8187 27.6372 30.3483 28.3252 28.1937L31.0289 19.7266C31.5453 18.1093 31.2673 16.3955 30.2658 15.0245C29.4473 13.9038 28.2631 13.1745 26.9308 12.9452C29.8132 11.6401 32.9734 10.943 36.2326 10.943C41.6933 10.943 46.7064 12.895 50.6119 16.1371C48.0922 16.4652 45.7447 17.487 43.7673 19.1264C41.5029 21.0038 39.9439 23.5084 39.2591 26.3691C39.067 27.1715 38.3568 27.7318 37.5317 27.7318H37.2877C35.9446 27.7318 34.852 28.8245 34.852 30.1676V35.0457C34.852 36.3888 35.9446 37.4815 37.2877 37.4815H42.1659C43.509 37.4815 44.6015 36.3888 44.6015 35.0457V34.8489C44.6015 33.8695 45.3984 33.0727 46.3779 33.0727H49.9373C53.083 33.0727 56.131 31.9148 58.4845 29.8594C58.6766 31.0413 58.7781 32.2531 58.7781 33.4883C58.7781 35.7524 58.4345 37.9806 57.7813 40.1048H50.8251C50.2668 40.1048 49.8144 40.5573 49.8144 41.1155C49.8144 41.6737 50.2668 42.1263 50.8251 42.1263H57.054C55.7673 45.2264 53.7921 48.037 51.2346 50.3183C50.8179 50.6898 50.7815 51.3288 51.1531 51.7453C51.3529 51.9692 51.6297 52.0833 51.9078 52.0833C52.1472 52.0833 52.3876 51.9987 52.5802 51.8268C57.8038 47.1673 60.7995 40.4832 60.7995 33.4883C60.7995 19.9421 49.7789 8.92139 36.2326 8.92139C28.8385 8.92139 21.9078 12.2056 17.2177 17.9318C16.8639 18.3637 16.9273 19.0005 17.3592 19.3543C17.7908 19.7079 18.4279 19.6447 18.7815 19.2128C20.1567 17.5339 21.7424 16.0849 23.4842 14.8885H26.0186C27.0638 14.8885 28.0169 15.3726 28.6333 16.2167C29.2498 17.0607 29.4211 18.1159 29.1031 19.1116L26.3994 27.5786C25.9758 28.9051 24.7559 29.8105 23.3637 29.8313L13.9627 29.9727C14.365 27.4192 15.2023 24.9447 16.4414 22.6805C16.7093 22.1909 16.5297 21.5767 16.04 21.3086C15.5502 21.0406 14.9361 21.2204 14.6681 21.7101C12.7043 25.2989 11.666 29.3718 11.666 33.4879ZM57.98 27.5378C57.9736 27.5442 57.9668 27.55 57.9604 27.5566C55.893 29.7773 52.9688 31.0508 49.9377 31.0508H46.3783C44.2841 31.0508 42.5804 32.7545 42.5804 34.8485V35.0453C42.5804 35.2698 42.3908 35.4596 42.1663 35.4596H37.2881C37.0635 35.4596 36.8739 35.2698 36.8739 35.0453V30.1672C36.8739 29.9427 37.0635 29.7529 37.2881 29.7529H37.5321C39.2961 29.7529 40.8147 28.5548 41.2255 26.8393C41.8076 24.4073 43.1328 22.2783 45.058 20.6821C46.983 19.0861 49.3209 18.1782 51.8185 18.0567L52.6176 18.0179C55.1211 20.668 56.9897 23.923 57.98 27.5378ZM22.5048 39.8605C23.8593 39.8605 25.1255 40.4637 25.9789 41.5154C26.8323 42.5671 27.1616 43.9304 26.8828 45.2558L25.2203 53.1546C20.1476 50.3028 16.284 45.5461 14.6059 39.8605H22.5048Z" fill="url(#paint0_linear_44_1080)"/>
<path d="M28.7035 3.49541C28.7803 3.49541 28.8598 3.48598 28.938 3.46711C29.4811 3.33774 29.8168 2.79328 29.6874 2.25018C29.5581 1.70707 29.0121 1.37151 28.4705 1.50088C27.9261 1.63026 27.5917 2.17606 27.7212 2.71916C27.8317 3.18276 28.2454 3.49541 28.7035 3.49541Z" fill="url(#paint1_linear_44_1080)"/>
<path d="M32.9661 2.7825C32.9998 2.7825 33.032 2.77981 33.0657 2.77711C33.6209 2.72321 34.028 2.22862 33.974 1.67338C33.9187 1.1168 33.4241 0.711154 32.8689 0.765061C32.3137 0.820315 31.9067 1.3149 31.9621 1.87014C32.0133 2.39168 32.4526 2.7825 32.9661 2.7825Z" fill="url(#paint2_linear_44_1080)"/>
<path d="M41.4186 3.08164C41.4778 3.09242 41.5345 3.09646 41.5924 3.09646C42.0749 3.09646 42.5021 2.75011 42.587 2.25822C42.6827 1.70838 42.3134 1.18414 41.7636 1.0898C41.2137 0.994117 40.6909 1.36338 40.5952 1.91322C40.4995 2.46306 40.8687 2.98595 41.4186 3.08164Z" fill="url(#paint3_linear_44_1080)"/>
<path d="M49.3794 5.61529C49.5196 5.68133 49.6678 5.71367 49.8134 5.71367C50.1907 5.71367 50.5533 5.50074 50.7258 5.13687C50.967 4.63285 50.7527 4.03045 50.2487 3.78921C49.7448 3.54933 49.1409 3.76361 48.901 4.26763C48.6611 4.77166 48.8754 5.37406 49.3794 5.61529Z" fill="url(#paint4_linear_44_1080)"/>
<path d="M45.4857 4.07537C45.5868 4.10772 45.6907 4.12389 45.7918 4.12389C46.2203 4.12389 46.6179 3.84897 46.7552 3.41906C46.9237 2.88809 46.6299 2.31938 46.0989 2.14957C45.5667 1.97977 44.9979 2.2749 44.8294 2.80588C44.6596 3.33821 44.9532 3.90692 45.4857 4.07537Z" fill="url(#paint5_linear_44_1080)"/>
<path d="M37.253 2.64923H37.2907C37.8325 2.64923 38.2799 2.22068 38.3001 1.67488C38.3202 1.11695 37.8836 0.649309 37.3258 0.629094C36.7678 0.60888 36.3002 1.04417 36.28 1.6021C36.2598 2.16003 36.6951 2.62902 37.253 2.64923Z" fill="url(#paint6_linear_44_1080)"/>
<path d="M24.5773 4.78244C24.6985 4.78244 24.8225 4.75953 24.9439 4.71371C25.4628 4.51156 25.7215 3.92533 25.5194 3.40514C25.3172 2.88494 24.731 2.62754 24.2108 2.82969C23.6907 3.03184 23.4332 3.61672 23.6353 4.13692C23.7902 4.53717 24.1731 4.78244 24.5773 4.78244Z" fill="url(#paint7_linear_44_1080)"/>
<path d="M53.0272 7.66776C53.1984 7.77962 53.391 7.83352 53.5811 7.83352C53.9097 7.83352 54.232 7.67315 54.426 7.37667C54.7333 6.91038 54.6026 6.28372 54.1363 5.9778C53.6685 5.67189 53.0433 5.80126 52.7359 6.26755C52.4302 6.73519 52.5595 7.36185 53.0272 7.66776Z" fill="url(#paint8_linear_44_1080)"/>
<path d="M6.20023 22.4233C6.3257 22.4745 6.45359 22.4987 6.58027 22.4987C6.98052 22.4987 7.35787 22.2602 7.51824 21.868C7.72712 21.3519 7.47915 20.7616 6.96165 20.5514C6.4455 20.3411 5.85523 20.5891 5.64486 21.1066C5.43476 21.6241 5.68408 22.213 6.20023 22.4233Z" fill="url(#paint9_linear_44_1080)"/>
<path d="M4.97971 26.5755C5.06327 26.597 5.14817 26.6078 5.23024 26.6078C5.68184 26.6078 6.09274 26.3033 6.20878 25.8464C6.3461 25.3046 6.0201 24.7548 5.47969 24.6173C4.9378 24.4785 4.38796 24.806 4.25063 25.3464C4.11182 25.8882 4.4393 26.438 4.97971 26.5755Z" fill="url(#paint10_linear_44_1080)"/>
<path d="M7.97674 18.4754C8.1359 18.567 8.30975 18.6115 8.48077 18.6115C8.83116 18.6115 9.17077 18.4296 9.35809 18.1048C9.63584 17.621 9.46995 17.0024 8.98614 16.7248C8.50233 16.4458 7.8851 16.6116 7.60614 17.0954C7.32717 17.5792 7.49294 18.1978 7.97674 18.4754Z" fill="url(#paint11_linear_44_1080)"/>
<path d="M17.0389 8.96668C17.249 8.96668 17.4621 8.90065 17.644 8.76453C18.0901 8.43032 18.1818 7.79692 17.8475 7.35084C17.5133 6.90342 16.8784 6.81178 16.4325 7.146V7.14735C15.9851 7.48157 15.8948 8.11496 16.229 8.56104C16.4271 8.82653 16.7315 8.96668 17.0389 8.96668Z" fill="url(#paint12_linear_44_1080)"/>
<path d="M10.2718 14.8094C10.455 14.9522 10.6735 15.021 10.889 15.021C11.1909 15.021 11.49 14.8862 11.6894 14.6288C12.0303 14.1868 11.9496 13.552 11.5074 13.2111C11.0654 12.8688 10.4306 12.951 10.0897 13.3917C9.74886 13.8337 9.82972 14.4684 10.2718 14.8094Z" fill="url(#paint13_linear_44_1080)"/>
<path d="M20.6663 6.61806C20.832 6.61806 21.0005 6.57763 21.1555 6.49138C21.6433 6.2205 21.82 5.60462 21.549 5.11677C21.2781 4.62892 20.6622 4.45237 20.1745 4.72325C19.6867 4.99548 19.51 5.61001 19.7823 6.09786C19.9653 6.43073 20.3105 6.61806 20.6663 6.61806Z" fill="url(#paint14_linear_44_1080)"/>
<path d="M13.7592 11.7863C14.0152 11.7863 14.2713 11.6893 14.468 11.4966C14.8656 11.1044 14.871 10.4643 14.4788 10.0667C14.0881 9.66915 13.448 9.66376 13.0503 10.0559C12.6514 10.4467 12.6473 11.0869 13.0382 11.4844C13.2363 11.6852 13.4977 11.7863 13.7592 11.7863Z" fill="url(#paint15_linear_44_1080)"/>
<path d="M62.9691 14.5073C63.632 13.7577 64.0356 12.7738 64.0356 11.6969C64.0356 9.35467 62.1302 7.44922 59.788 7.44922C57.4457 7.44922 55.5404 9.35467 55.5404 11.6969C55.5404 14.0391 57.4459 15.9446 59.788 15.9446C60.3241 15.9446 60.8367 15.8438 61.3095 15.6617C65.0186 20.8911 66.9785 27.0471 66.9785 33.4896C66.9785 41.7328 63.7684 49.4827 57.9395 55.3116C52.1106 61.1405 44.3608 64.3506 36.1176 64.3506C28.5702 64.3506 21.3058 61.5975 15.6625 56.5982C10.1646 51.7279 6.59017 45.0858 5.56542 37.8594C7.26441 37.3034 8.49536 35.7042 8.49536 33.8219C8.49536 31.4797 6.5899 29.5742 4.24768 29.5742C1.90559 29.5744 0 31.4798 0 33.822C0 35.9249 1.53633 37.6747 3.54541 38.0106C4.61249 45.7634 8.43094 52.8929 14.3219 58.1115C20.3353 63.4385 28.0759 66.3721 36.1175 66.3721C44.9007 66.3721 53.1582 62.9518 59.3688 56.7411C65.5797 50.5303 69 42.2728 69 33.4896C69 26.6312 66.9152 20.0772 62.9691 14.5073ZM57.5619 11.6968C57.5619 10.4693 58.5605 9.47057 59.788 9.47057C61.0154 9.47057 62.0142 10.4692 62.0142 11.6968C62.0142 12.9243 61.0155 13.923 59.788 13.923C58.5604 13.923 57.5619 12.9243 57.5619 11.6968ZM2.02148 33.822C2.02148 32.5946 3.0201 31.5958 4.24781 31.5958C5.47526 31.5958 6.47401 32.5945 6.47401 33.822C6.47401 35.0495 5.47539 36.0482 4.24781 36.0482C3.0201 36.0482 2.02148 35.0495 2.02148 33.822Z" fill="url(#paint16_linear_44_1080)"/>
<defs>
<linearGradient id="paint0_linear_44_1080" x1="11.666" y1="33.4881" x2="60.7995" y2="33.4881" gradientUnits="userSpaceOnUse">
<stop stop-color="#E40088"/>
<stop offset="1" stop-color="#8700FF"/>
</linearGradient>
<linearGradient id="paint1_linear_44_1080" x1="27.6934" y1="2.48428" x2="29.7152" y2="2.48428" gradientUnits="userSpaceOnUse">
<stop stop-color="#E40088"/>
<stop offset="1" stop-color="#8700FF"/>
</linearGradient>
<linearGradient id="paint2_linear_44_1080" x1="31.957" y1="1.77138" x2="33.9788" y2="1.77138" gradientUnits="userSpaceOnUse">
<stop stop-color="#E40088"/>
<stop offset="1" stop-color="#8700FF"/>
</linearGradient>
<linearGradient id="paint3_linear_44_1080" x1="40.5801" y1="2.08558" x2="42.6021" y2="2.08558" gradientUnits="userSpaceOnUse">
<stop stop-color="#E40088"/>
<stop offset="1" stop-color="#8700FF"/>
</linearGradient>
<linearGradient id="paint4_linear_44_1080" x1="48.8027" y1="4.70229" x2="50.8249" y2="4.70229" gradientUnits="userSpaceOnUse">
<stop stop-color="#E40088"/>
<stop offset="1" stop-color="#8700FF"/>
</linearGradient>
<linearGradient id="paint5_linear_44_1080" x1="44.7813" y1="3.11273" x2="46.8027" y2="3.11273" gradientUnits="userSpaceOnUse">
<stop stop-color="#E40088"/>
<stop offset="1" stop-color="#8700FF"/>
</linearGradient>
<linearGradient id="paint6_linear_44_1080" x1="36.2793" y1="1.63882" x2="38.3008" y2="1.63882" gradientUnits="userSpaceOnUse">
<stop stop-color="#E40088"/>
<stop offset="1" stop-color="#8700FF"/>
</linearGradient>
<linearGradient id="paint7_linear_44_1080" x1="23.5664" y1="3.77159" x2="25.5881" y2="3.77159" gradientUnits="userSpaceOnUse">
<stop stop-color="#E40088"/>
<stop offset="1" stop-color="#8700FF"/>
</linearGradient>
<linearGradient id="paint8_linear_44_1080" x1="52.5703" y1="6.82277" x2="54.5924" y2="6.82277" gradientUnits="userSpaceOnUse">
<stop stop-color="#E40088"/>
<stop offset="1" stop-color="#8700FF"/>
</linearGradient>
<linearGradient id="paint9_linear_44_1080" x1="5.57031" y1="21.4876" x2="7.59228" y2="21.4876" gradientUnits="userSpaceOnUse">
<stop stop-color="#E40088"/>
<stop offset="1" stop-color="#8700FF"/>
</linearGradient>
<linearGradient id="paint10_linear_44_1080" x1="4.21875" y1="25.5966" x2="6.24017" y2="25.5966" gradientUnits="userSpaceOnUse">
<stop stop-color="#E40088"/>
<stop offset="1" stop-color="#8700FF"/>
</linearGradient>
<linearGradient id="paint11_linear_44_1080" x1="7.4707" y1="17.6004" x2="9.49265" y2="17.6004" gradientUnits="userSpaceOnUse">
<stop stop-color="#E40088"/>
<stop offset="1" stop-color="#8700FF"/>
</linearGradient>
<linearGradient id="paint12_linear_44_1080" x1="16.0273" y1="7.95575" x2="18.0488" y2="7.95575" gradientUnits="userSpaceOnUse">
<stop stop-color="#E40088"/>
<stop offset="1" stop-color="#8700FF"/>
</linearGradient>
<linearGradient id="paint13_linear_44_1080" x1="9.87891" y1="14.0102" x2="11.9003" y2="14.0102" gradientUnits="userSpaceOnUse">
<stop stop-color="#E40088"/>
<stop offset="1" stop-color="#8700FF"/>
</linearGradient>
<linearGradient id="paint14_linear_44_1080" x1="19.6543" y1="5.60712" x2="21.6761" y2="5.60712" gradientUnits="userSpaceOnUse">
<stop stop-color="#E40088"/>
<stop offset="1" stop-color="#8700FF"/>
</linearGradient>
<linearGradient id="paint15_linear_44_1080" x1="12.748" y1="10.7757" x2="14.7696" y2="10.7757" gradientUnits="userSpaceOnUse">
<stop stop-color="#E40088"/>
<stop offset="1" stop-color="#8700FF"/>
</linearGradient>
<linearGradient id="paint16_linear_44_1080" x1="1.00406e-09" y1="36.9107" x2="69" y2="36.9107" gradientUnits="userSpaceOnUse">
<stop stop-color="#E40088"/>
<stop offset="1" stop-color="#8700FF"/>
</linearGradient>
</defs>
</svg>
